<svg xmlns="http://www.w3.org/2000/svg" xmlns:xlink="http://www.w3.org/1999/xlink" width="600" zoomAndPan="magnify" viewBox="0 0 375 112.499997" height="150" preserveAspectRatio="xMidYMid meet" version="1.0"><defs><g/><clipPath id="id1"><path d="M 4.046875 5.347656 L 61.539062 5.347656 L 61.539062 106.894531 L 4.046875 106.894531 Z M 4.046875 5.347656 " clip-rule="nonzero"/></clipPath><clipPath id="id2"><path d="M 48.378906 102.757812 L 61.488281 102.757812 L 61.488281 106.304688 L 48.378906 106.304688 Z M 48.378906 102.757812 " clip-rule="nonzero"/></clipPath><clipPath id="id3"><path d="M 4.046875 12 L 15 12 L 15 18 L 4.046875 18 Z M 4.046875 12 " clip-rule="nonzero"/></clipPath><clipPath id="id4"><path d="M 4.046875 13 L 6 13 L 6 15 L 4.046875 15 Z M 4.046875 13 " clip-rule="nonzero"/></clipPath><clipPath id="id5"><path d="M 4.046875 13 L 6 13 L 6 15 L 4.046875 15 Z M 4.046875 13 " clip-rule="nonzero"/></clipPath><clipPath id="id6"><path d="M 4.046875 13 L 12 13 L 12 17 L 4.046875 17 Z M 4.046875 13 " clip-rule="nonzero"/></clipPath><clipPath id="id7"><path d="M 8 5.347656 L 26 5.347656 L 26 12 L 8 12 Z M 8 5.347656 " clip-rule="nonzero"/></clipPath><clipPath id="id8"><path d="M 5 5.347656 L 26 5.347656 L 26 13 L 5 13 Z M 5 5.347656 " clip-rule="nonzero"/></clipPath></defs><g clip-path="url(#id1)"><path fill="#c7b299" d="M 27.621094 100.417969 C 27.488281 101.277344 27.464844 102.136719 27.210938 102.246094 C 26.917969 102.371094 26.433594 102.28125 25.992188 102.132812 C 26.417969 100.3125 27.226562 98.253906 27.664062 96.585938 C 28.039062 97.746094 27.789062 99.332031 27.621094 100.417969 M 58.097656 103.914062 C 50.511719 103.109375 48.121094 102.191406 43.519531 95.121094 C 38.65625 87.640625 32.265625 71.515625 31.597656 67.78125 C 30.8125 63.367188 27.007812 54.242188 26.972656 48.871094 C 26.921875 41.183594 27.792969 37.917969 27.265625 32.9375 C 27.195312 32.257812 26.792969 29.460938 26.355469 26.632812 C 26.144531 25.292969 25.585938 21.320312 26.558594 17.921875 C 27.589844 14.34375 28.042969 10.996094 27.183594 8.949219 C 26.109375 6.40625 23.589844 5.433594 20 5.371094 C 18.582031 5.347656 16.613281 5.753906 15.140625 6.472656 C 12.257812 7.875 13.121094 8.859375 10.25 10.609375 C 7.375 12.359375 4.09375 12.523438 4.09375 14.308594 C 4.09375 14.773438 4.691406 15.132812 5.605469 15.410156 C 5.914062 15.503906 6.941406 15.832031 7.492188 15.832031 C 7.6875 15.832031 7.097656 16.015625 7.582031 16.578125 C 8.394531 17.519531 12.109375 17.15625 15.371094 18.375 C 17.289062 19.089844 16.445312 20.949219 16.222656 22.289062 C 16.03125 23.464844 11.253906 31.03125 10.695312 36.121094 C 10.324219 39.464844 10.199219 41.519531 10.273438 43.316406 C 8.929688 45.054688 7.792969 46.859375 7.195312 47.769531 C 6.167969 49.335938 6.253906 52.277344 6.527344 54.273438 C 6.695312 55.484375 6.800781 56.820312 6.929688 57.492188 C 7.058594 58.164062 7.007812 58.464844 6.980469 58.769531 C 6.960938 59.011719 6.765625 59.367188 6.703125 59.800781 C 6.605469 60.457031 6.785156 60.953125 7.046875 60.992188 C 7.160156 61.007812 7.148438 60.886719 7.128906 60.703125 C 7.226562 61.132812 7.410156 61.421875 7.621094 61.421875 C 7.90625 61.421875 7.644531 60.835938 7.828125 60.1875 C 7.996094 60.847656 8.320312 61.347656 8.570312 61.238281 C 8.695312 61.179688 8.464844 60.652344 8.570312 59.980469 C 9.523438 59.496094 10.636719 58.210938 10.023438 55.148438 C 9.941406 54.746094 10.007812 53.851562 10.289062 52.785156 C 10.664062 54.777344 10.5625 57.765625 10.503906 58.1875 C 10.414062 58.84375 10.601562 59.339844 10.863281 59.375 C 10.976562 59.390625 10.960938 59.269531 10.941406 59.085938 C 11.042969 59.511719 11.230469 59.800781 11.441406 59.800781 C 11.726562 59.796875 11.457031 59.214844 11.636719 58.5625 C 11.808594 59.21875 12.140625 59.71875 12.390625 59.601562 C 12.515625 59.546875 12.269531 58.675781 12.507812 58.039062 C 12.683594 57.570312 13.046875 57.230469 13.359375 56.777344 C 13.515625 57.269531 13.664062 57.75 13.792969 58.207031 C 14.78125 61.664062 16.15625 63.53125 16.453125 66.339844 C 16.621094 67.933594 16.300781 72.171875 16.144531 73.714844 C 15.136719 83.671875 21.835938 91.933594 23.167969 96.453125 C 23.476562 97.507812 23.226562 100.160156 22.949219 101.578125 C 22.777344 102.464844 22.71875 103.359375 22.453125 103.464844 C 22.105469 103.597656 21.195312 103.324219 20.707031 103.125 C 19.832031 102.761719 17.632812 104.492188 17.632812 105.363281 C 17.632812 106.234375 20.371094 106.1875 21.671875 106.214844 C 22.230469 106.226562 24.402344 106.34375 24.660156 105.910156 C 24.839844 105.605469 25.035156 105.175781 25.222656 104.6875 C 25.792969 104.683594 26.394531 104.648438 26.9375 104.628906 C 27.070312 104.621094 27.261719 104.625 27.476562 104.628906 C 28.132812 104.640625 29.007812 104.652344 29.113281 104.398438 C 29.371094 103.773438 30.140625 102.433594 30.527344 100.972656 C 31.210938 98.414062 32.09375 95.429688 31.449219 93.875 C 30.910156 92.5625 29.851562 89.808594 29.121094 86.453125 C 30.023438 82.273438 30.144531 81.515625 30.445312 80.984375 C 30.789062 80.375 32.378906 84.148438 33.261719 85.707031 C 35.976562 90.507812 38.15625 94.28125 40.191406 97.265625 C 42.964844 101.335938 46.042969 104.625 48.480469 105.3125 C 54.105469 106.898438 61.492188 106.363281 61.488281 105.25 C 61.488281 104.058594 59.285156 104.039062 58.097656 103.914062 " fill-opacity="1" fill-rule="nonzero"/></g><path fill="#b39e8a" d="M 53.453125 103.242188 C 53.109375 103.75 52.679688 104.101562 52.148438 104.257812 C 48.492188 105.316406 41.609375 97.847656 36.007812 87.472656 C 29.960938 76.265625 25.972656 64.210938 24.6875 57.132812 C 23.167969 48.769531 22.574219 36.367188 22.574219 31.933594 C 22.574219 27.5625 22.605469 18.53125 24.289062 15.742188 C 25.386719 13.917969 26.753906 10.710938 27.402344 9.613281 C 27.945312 11.675781 27.484375 14.707031 26.5625 17.925781 C 25.585938 21.320312 26.144531 25.292969 26.355469 26.632812 C 26.355469 26.648438 26.363281 26.660156 26.363281 26.675781 C 26.421875 27.085938 26.488281 27.488281 26.542969 27.886719 C 26.847656 29.875 27.109375 31.679688 27.222656 32.550781 C 27.246094 32.714844 27.257812 32.84375 27.269531 32.9375 C 27.308594 33.285156 27.335938 33.625 27.355469 33.960938 C 27.449219 35.265625 27.449219 36.460938 27.40625 37.699219 L 27.40625 37.703125 C 27.386719 38.417969 27.347656 39.132812 27.296875 39.894531 L 27.296875 39.902344 C 27.203125 41.472656 27.082031 43.199219 27.019531 45.289062 C 27 45.992188 26.980469 46.738281 26.980469 47.539062 C 26.96875 47.96875 26.96875 48.410156 26.976562 48.867188 C 26.980469 49.742188 27.085938 50.71875 27.261719 51.753906 C 27.476562 53.019531 27.800781 54.371094 28.171875 55.757812 L 28.171875 55.761719 C 28.398438 56.605469 28.640625 57.457031 28.894531 58.308594 C 29.132812 59.105469 29.375 59.914062 29.617188 60.695312 C 29.96875 61.828125 30.308594 62.921875 30.613281 63.941406 L 30.621094 63.957031 C 30.839844 64.703125 31.039062 65.402344 31.207031 66.050781 C 31.328125 66.511719 31.433594 66.949219 31.515625 67.355469 L 31.515625 67.363281 C 31.550781 67.507812 31.578125 67.644531 31.597656 67.78125 C 31.671875 68.195312 31.816406 68.757812 32.019531 69.445312 C 32.152344 69.902344 32.316406 70.414062 32.5 70.976562 L 32.503906 70.976562 C 32.566406 71.171875 32.632812 71.347656 32.703125 71.550781 L 32.703125 71.566406 C 33.058594 72.605469 33.484375 73.753906 33.972656 75.015625 L 33.972656 75.039062 C 34.179688 75.597656 34.402344 76.171875 34.640625 76.757812 C 34.832031 77.246094 35.039062 77.75 35.242188 78.261719 L 35.242188 78.269531 C 35.492188 78.871094 35.746094 79.484375 36.007812 80.101562 C 38.289062 85.519531 41.09375 91.386719 43.523438 95.117188 C 44.351562 96.390625 45.101562 97.460938 45.832031 98.375 C 47.757812 100.78125 49.480469 102.03125 51.804688 102.792969 L 51.8125 102.800781 C 52.324219 102.972656 52.875 103.113281 53.453125 103.242188 " fill-opacity="1" fill-rule="nonzero"/><path fill="#dbcdbd" d="M 17.109375 23.320312 C 16.269531 26.007812 14.277344 28.824219 14.941406 31.65625 C 16.699219 39.15625 11.839844 41.421875 10.277344 43.316406 C 10.199219 41.519531 10.324219 39.464844 10.695312 36.121094 C 11.253906 31.03125 16.03125 23.464844 16.226562 22.289062 C 16.445312 20.949219 17.289062 19.089844 15.375 18.371094 C 14.777344 18.152344 14.167969 17.980469 13.558594 17.847656 C 13.578125 17.84375 13.597656 17.84375 13.617188 17.84375 C 17.65625 17.742188 18.015625 20.40625 17.109375 23.320312 " fill-opacity="1" fill-rule="nonzero"/><g clip-path="url(#id2)"><path fill="#968a7d" d="M 61.488281 105.25 C 61.488281 105.300781 61.460938 105.367188 61.410156 105.4375 L 61.40625 105.449219 C 60.585938 106.421875 53.769531 106.800781 48.492188 105.316406 L 48.480469 105.3125 C 48.480469 105.3125 49.710938 105.117188 50.910156 104.382812 C 52.246094 103.5625 51.855469 102.871094 51.8125 102.800781 C 53.492188 103.347656 55.488281 103.640625 58.097656 103.914062 C 59.199219 104.023438 61.195312 104.058594 61.460938 105.023438 C 61.472656 105.0625 61.476562 105.101562 61.484375 105.140625 C 61.488281 105.171875 61.488281 105.210938 61.488281 105.25 " fill-opacity="1" fill-rule="nonzero"/></g><path fill="#a18c82" d="M 27.355469 33.960938 C 27.246094 33.984375 27.128906 33.933594 27.09375 33.792969 C 27.085938 33.757812 27.074219 33.726562 27.070312 33.691406 C 27.003906 33.757812 26.898438 33.761719 26.808594 33.726562 C 26.730469 33.734375 26.660156 33.714844 26.609375 33.664062 C 26.597656 33.734375 26.589844 33.808594 26.570312 33.886719 C 26.542969 34.046875 26.328125 34.128906 26.210938 34.035156 C 26.179688 34.0625 26.140625 34.089844 26.109375 34.117188 C 26.085938 34.277344 26.058594 34.429688 26.007812 34.589844 C 25.9375 34.851562 25.585938 34.703125 25.59375 34.480469 C 25.59375 34.421875 25.585938 34.359375 25.585938 34.300781 L 25.550781 34.300781 C 25.4375 34.34375 25.316406 34.371094 25.199219 34.371094 C 25.191406 34.460938 25.179688 34.546875 25.160156 34.640625 C 25.117188 34.929688 24.707031 34.875 24.71875 34.585938 C 24.726562 34.441406 24.742188 34.304688 24.753906 34.160156 C 24.6875 34.101562 24.628906 34.023438 24.582031 33.953125 C 24.527344 33.980469 24.476562 34 24.425781 34.023438 C 24.410156 34.066406 24.394531 34.117188 24.371094 34.160156 C 24.28125 34.347656 23.996094 34.289062 23.980469 34.101562 C 23.949219 34.089844 23.917969 34.078125 23.890625 34.0625 C 23.863281 34.148438 23.828125 34.238281 23.800781 34.332031 C 23.75 34.535156 23.425781 34.460938 23.480469 34.25 C 23.484375 34.226562 23.484375 34.207031 23.492188 34.1875 C 23.398438 34.15625 23.324219 34.078125 23.351562 33.960938 C 23.359375 33.941406 23.363281 33.921875 23.371094 33.902344 C 23.371094 33.894531 23.375 33.890625 23.375 33.878906 C 23.386719 33.847656 23.398438 33.820312 23.402344 33.785156 C 23.347656 33.78125 23.292969 33.773438 23.230469 33.753906 C 23.117188 33.707031 23.054688 33.566406 23.097656 33.449219 C 23.183594 33.246094 23.226562 33.039062 23.347656 32.859375 C 23.457031 32.6875 23.730469 32.765625 23.761719 32.953125 C 23.769531 33.007812 23.785156 33.0625 23.800781 33.113281 C 23.828125 33.0625 23.867188 33.035156 23.914062 33.023438 C 24.011719 32.804688 24.117188 32.582031 24.234375 32.367188 C 24.316406 32.21875 24.59375 32.246094 24.585938 32.441406 C 24.582031 32.5 24.574219 32.5625 24.570312 32.617188 C 24.660156 32.421875 24.753906 32.230469 24.863281 32.042969 C 24.957031 31.882812 25.234375 31.886719 25.25 32.109375 C 25.261719 32.242188 25.261719 32.367188 25.261719 32.5 C 25.3125 32.53125 25.355469 32.578125 25.367188 32.644531 C 25.394531 32.785156 25.410156 32.929688 25.433594 33.078125 L 25.4375 33.074219 C 25.457031 33.003906 25.472656 32.929688 25.492188 32.851562 C 25.539062 32.664062 25.753906 32.636719 25.851562 32.765625 C 25.953125 32.636719 26.167969 32.617188 26.230469 32.796875 C 26.246094 32.835938 26.257812 32.882812 26.273438 32.917969 C 26.296875 32.792969 26.316406 32.664062 26.339844 32.539062 C 26.367188 32.378906 26.53125 32.300781 26.660156 32.355469 L 26.660156 32.324219 C 26.660156 32.085938 27.015625 32.046875 27.101562 32.25 C 27.148438 32.355469 27.175781 32.460938 27.214844 32.566406 L 27.222656 32.550781 C 27.246094 32.714844 27.257812 32.84375 27.269531 32.9375 C 27.308594 33.285156 27.335938 33.625 27.355469 33.960938 " fill-opacity="1" fill-rule="nonzero"/><path fill="#a18c82" d="M 27.40625 37.699219 L 27.40625 37.703125 C 27.386719 38.417969 27.347656 39.132812 27.296875 39.894531 C 27.257812 39.875 27.222656 39.828125 27.203125 39.773438 L 27.191406 39.757812 C 27.1875 39.742188 27.175781 39.726562 27.167969 39.714844 C 27.128906 39.917969 27.085938 40.117188 27.015625 40.316406 C 26.96875 40.453125 26.828125 40.492188 26.703125 40.457031 C 26.644531 40.882812 26.523438 41.296875 26.230469 41.671875 C 26.113281 41.816406 25.804688 41.816406 25.78125 41.582031 C 25.777344 41.519531 25.777344 41.453125 25.777344 41.386719 C 25.644531 41.546875 25.484375 41.671875 25.265625 41.75 C 25.179688 41.78125 25.066406 41.765625 24.988281 41.710938 C 24.851562 41.855469 24.597656 41.714844 24.597656 41.523438 C 24.546875 41.648438 24.410156 41.667969 24.304688 41.617188 C 24.171875 41.816406 24.035156 42.007812 23.878906 42.195312 C 23.769531 42.324219 23.519531 42.203125 23.574219 42.035156 C 23.613281 41.921875 23.664062 41.808594 23.703125 41.699219 C 23.648438 41.695312 23.601562 41.660156 23.558594 41.617188 C 23.523438 41.621094 23.496094 41.632812 23.457031 41.632812 C 23.296875 41.644531 23.175781 41.550781 23.175781 41.378906 C 23.183594 41.078125 23.191406 40.800781 23.257812 40.503906 C 23.308594 40.265625 23.613281 40.222656 23.707031 40.445312 C 23.722656 40.390625 23.730469 40.335938 23.75 40.28125 C 23.789062 40.167969 23.882812 40.121094 23.980469 40.132812 C 24.09375 39.976562 24.253906 39.902344 24.480469 39.949219 C 24.5 39.90625 24.519531 39.867188 24.539062 39.828125 C 24.566406 39.757812 24.625 39.726562 24.691406 39.714844 C 24.703125 39.679688 24.714844 39.648438 24.726562 39.613281 C 24.78125 39.453125 24.933594 39.4375 25.050781 39.503906 C 25.078125 39.308594 25.105469 39.117188 25.132812 38.917969 C 25.179688 38.609375 25.617188 38.648438 25.617188 38.957031 C 25.609375 39.347656 25.59375 39.71875 25.550781 40.078125 C 25.597656 40.050781 25.660156 40.039062 25.714844 40.054688 C 25.78125 39.453125 25.730469 38.785156 25.78125 38.382812 C 25.8125 38.070312 26.273438 38.097656 26.269531 38.417969 C 26.261719 38.941406 26.246094 39.464844 26.242188 39.996094 C 26.25 39.976562 26.269531 39.96875 26.285156 39.949219 C 26.324219 39.425781 26.316406 38.886719 26.429688 38.386719 L 26.429688 38.382812 C 26.433594 38.359375 26.433594 38.339844 26.4375 38.316406 C 26.5 38.078125 26.792969 38.128906 26.886719 38.300781 C 26.914062 38.128906 26.941406 37.953125 26.980469 37.777344 C 27.019531 37.582031 27.289062 37.566406 27.40625 37.699219 " fill-opacity="1" fill-rule="nonzero"/><path fill="#a18c82" d="M 27.019531 45.289062 C 27 45.992188 26.980469 46.738281 26.980469 47.539062 C 26.882812 47.671875 26.660156 47.621094 26.566406 47.484375 C 26.496094 47.722656 26.390625 47.949219 26.234375 48.15625 C 26.089844 48.34375 25.851562 48.277344 25.777344 48.074219 C 25.742188 47.980469 25.71875 47.886719 25.699219 47.792969 C 25.644531 48.003906 25.582031 48.21875 25.492188 48.425781 C 25.394531 48.679688 25.011719 48.605469 25.023438 48.328125 C 25.027344 48.085938 25.050781 47.84375 25.074219 47.605469 C 25.039062 47.605469 25.019531 47.609375 24.988281 47.605469 C 24.960938 47.605469 24.941406 47.617188 24.914062 47.617188 C 24.792969 47.910156 24.652344 48.203125 24.480469 48.476562 C 24.375 48.648438 24.117188 48.578125 24.066406 48.410156 C 23.984375 48.578125 23.90625 48.742188 23.808594 48.90625 C 23.6875 49.101562 23.417969 48.929688 23.429688 48.746094 C 23.453125 48.453125 23.496094 48.164062 23.542969 47.875 C 23.441406 47.859375 23.347656 47.835938 23.253906 47.863281 L 23.253906 47.890625 L 23.25 47.890625 C 23.253906 47.914062 23.253906 47.929688 23.257812 47.953125 C 23.230469 48.207031 22.867188 48.261719 22.789062 48.023438 C 22.632812 48.210938 22.308594 48.015625 22.386719 47.777344 L 22.46875 47.539062 C 22.496094 47.457031 22.566406 47.40625 22.652344 47.390625 C 22.679688 47.363281 22.722656 47.324219 22.773438 47.273438 C 22.855469 47.203125 22.96875 47.207031 23.054688 47.257812 C 23.09375 47.214844 23.132812 47.167969 23.183594 47.121094 C 23.265625 47.035156 23.441406 47.042969 23.507812 47.140625 C 23.558594 47.09375 23.601562 47.035156 23.65625 46.992188 C 23.65625 46.964844 23.664062 46.933594 23.667969 46.90625 C 23.679688 46.734375 23.90625 46.707031 24.007812 46.8125 C 24.027344 46.800781 24.042969 46.789062 24.074219 46.789062 C 24.082031 46.78125 24.117188 46.789062 24.15625 46.800781 C 24.199219 46.617188 24.25 46.445312 24.289062 46.265625 C 24.355469 45.984375 24.730469 46.03125 24.726562 46.320312 C 24.726562 46.511719 24.703125 46.707031 24.691406 46.898438 C 24.832031 46.519531 24.96875 46.136719 25.152344 45.773438 C 25.21875 45.640625 25.421875 45.585938 25.53125 45.667969 C 25.542969 45.617188 25.550781 45.570312 25.558594 45.519531 C 25.609375 45.269531 26.023438 45.175781 26.050781 45.480469 C 26.082031 45.84375 26.070312 46.21875 26.074219 46.601562 C 26.125 46.539062 26.167969 46.480469 26.21875 46.40625 C 26.230469 46.070312 26.210938 45.730469 26.207031 45.410156 C 26.203125 45.128906 26.667969 45.089844 26.703125 45.371094 C 26.714844 45.457031 26.726562 45.542969 26.730469 45.625 C 26.742188 45.570312 26.75 45.507812 26.765625 45.453125 C 26.792969 45.335938 26.910156 45.28125 27.019531 45.289062 " fill-opacity="1" fill-rule="nonzero"/><path fill="#a18c82" d="M 28.171875 55.757812 L 28.171875 55.761719 C 28.058594 55.898438 27.789062 55.84375 27.71875 55.644531 C 27.683594 55.546875 27.644531 55.441406 27.609375 55.34375 C 27.515625 55.4375 27.363281 55.414062 27.257812 55.320312 C 27.257812 55.449219 27.253906 55.582031 27.253906 55.707031 C 27.246094 55.964844 26.890625 56.015625 26.777344 55.804688 C 26.671875 55.617188 26.582031 55.429688 26.511719 55.238281 C 26.457031 55.492188 26.378906 55.746094 26.25 55.996094 C 26.144531 56.199219 25.847656 56.203125 25.785156 55.957031 C 25.757812 55.851562 25.730469 55.746094 25.703125 55.640625 C 25.675781 55.722656 25.644531 55.804688 25.605469 55.882812 C 25.523438 56.050781 25.292969 56.097656 25.183594 55.9375 C 25.179688 55.957031 25.171875 55.976562 25.160156 55.996094 C 25.105469 56.136719 24.902344 56.1875 24.785156 56.082031 C 24.707031 56.078125 24.640625 56.03125 24.640625 55.921875 C 24.640625 55.867188 24.640625 55.804688 24.648438 55.746094 C 24.597656 55.570312 24.566406 55.386719 24.542969 55.199219 C 24.539062 55.210938 24.539062 55.222656 24.53125 55.234375 C 24.519531 55.542969 24.515625 55.84375 24.515625 56.152344 C 24.515625 56.441406 24.066406 56.390625 24.066406 56.105469 C 24.066406 56 24.0625 55.898438 24.0625 55.804688 C 23.984375 55.796875 23.914062 55.746094 23.875 55.667969 C 23.761719 55.695312 23.640625 55.652344 23.589844 55.542969 C 23.585938 55.617188 23.582031 55.691406 23.574219 55.773438 C 23.550781 56.058594 23.160156 56.039062 23.105469 55.789062 C 22.972656 55.855469 22.792969 55.824219 22.785156 55.636719 C 22.785156 55.480469 22.761719 55.332031 22.722656 55.1875 C 22.710938 55.226562 22.699219 55.261719 22.691406 55.296875 C 22.652344 55.507812 22.335938 55.601562 22.242188 55.371094 C 22.160156 55.15625 22.160156 55.160156 22.148438 54.914062 C 22.140625 54.761719 22.242188 54.652344 22.386719 54.652344 C 22.40625 54.601562 22.4375 54.546875 22.472656 54.476562 C 22.546875 54.332031 22.765625 54.246094 22.878906 54.40625 C 22.910156 54.449219 22.933594 54.5 22.960938 54.542969 C 23.003906 54.425781 23.0625 54.304688 23.148438 54.179688 C 23.230469 54.0625 23.386719 54.066406 23.484375 54.152344 C 23.601562 54.039062 23.761719 54.066406 23.851562 54.1875 L 23.851562 53.617188 C 23.851562 53.398438 24.109375 53.378906 24.234375 53.5 C 24.253906 53.355469 24.277344 53.210938 24.296875 53.070312 C 24.34375 52.847656 24.601562 52.847656 24.703125 53.023438 C 24.753906 53.117188 24.796875 53.210938 24.839844 53.3125 C 24.925781 53.15625 25.152344 53.144531 25.25 53.289062 C 25.25 53.21875 25.246094 53.152344 25.246094 53.078125 C 25.253906 52.808594 25.675781 52.792969 25.714844 53.058594 C 25.753906 53.328125 25.792969 53.609375 25.824219 53.890625 C 25.84375 53.769531 25.875 53.648438 25.9375 53.542969 C 25.96875 53.476562 26.035156 53.449219 26.101562 53.445312 L 26.101562 53.410156 C 26.097656 53.21875 26.308594 53.144531 26.449219 53.203125 L 26.449219 53.179688 C 26.472656 52.976562 26.730469 52.882812 26.871094 53.046875 C 26.886719 53.058594 26.890625 53.074219 26.902344 53.089844 C 26.914062 53.070312 26.921875 53.046875 26.925781 53.023438 C 26.9375 52.886719 27.070312 52.808594 27.191406 52.816406 C 27.195312 52.675781 27.214844 52.542969 27.234375 52.410156 C 27.21875 52.261719 27.191406 52.109375 27.179688 51.964844 C 27.175781 51.882812 27.214844 51.8125 27.261719 51.753906 C 27.476562 53.019531 27.800781 54.371094 28.171875 55.757812 " fill-opacity="1" fill-rule="nonzero"/><path fill="#a18c82" d="M 29.617188 60.695312 C 29.550781 60.777344 29.4375 60.8125 29.332031 60.785156 C 29.253906 60.972656 28.945312 61.039062 28.855469 60.824219 C 28.796875 60.675781 28.75 60.53125 28.703125 60.382812 C 28.644531 60.441406 28.574219 60.476562 28.496094 60.476562 C 28.484375 60.757812 28.472656 61.042969 28.445312 61.324219 C 28.425781 61.558594 28.066406 61.691406 27.960938 61.4375 C 27.9375 61.375 27.914062 61.308594 27.894531 61.25 C 27.871094 61.242188 27.847656 61.21875 27.832031 61.210938 C 27.785156 61.363281 27.722656 61.519531 27.644531 61.667969 C 27.535156 61.878906 27.234375 61.777344 27.1875 61.585938 C 27.175781 61.546875 27.167969 61.507812 27.160156 61.46875 C 27.140625 61.519531 27.136719 61.5625 27.121094 61.613281 C 27.042969 61.816406 26.769531 61.824219 26.671875 61.640625 C 26.554688 61.425781 26.476562 61.210938 26.40625 60.996094 L 26.382812 60.996094 C 26.335938 61.078125 26.285156 61.160156 26.210938 61.238281 C 26.109375 61.351562 25.878906 61.378906 25.8125 61.199219 C 25.742188 61.011719 25.691406 60.824219 25.644531 60.636719 C 25.621094 60.769531 25.59375 60.898438 25.558594 61.039062 L 25.558594 61.089844 C 25.558594 61.136719 25.542969 61.183594 25.511719 61.214844 C 25.492188 61.277344 25.484375 61.335938 25.460938 61.398438 C 25.386719 61.632812 25.101562 61.523438 25.0625 61.332031 L 25.0625 61.324219 C 25.035156 61.253906 25 61.175781 24.972656 61.105469 C 24.878906 61.171875 24.753906 61.1875 24.675781 61.070312 C 24.636719 60.929688 24.558594 60.835938 24.425781 60.789062 C 24.289062 60.882812 24.027344 60.796875 24.074219 60.585938 C 24.15625 60.25 24.277344 60.101562 24.558594 59.882812 C 24.628906 59.828125 24.757812 59.820312 24.824219 59.882812 C 24.890625 59.953125 24.980469 59.953125 25.066406 59.921875 C 25.074219 59.761719 25.222656 59.6875 25.339844 59.730469 C 25.351562 59.636719 25.359375 59.542969 25.371094 59.449219 C 25.398438 59.242188 25.714844 59.179688 25.792969 59.386719 C 25.8125 59.449219 25.824219 59.507812 25.847656 59.570312 C 25.863281 59.585938 25.886719 59.585938 25.902344 59.601562 C 25.984375 59.703125 26.0625 59.800781 26.128906 59.90625 C 26.128906 59.714844 26.113281 59.527344 26.113281 59.347656 C 26.109375 59.078125 26.550781 59.0625 26.582031 59.328125 C 26.609375 59.546875 26.636719 59.761719 26.671875 59.972656 C 26.742188 59.828125 26.808594 59.679688 26.863281 59.527344 C 26.863281 59.433594 26.859375 59.339844 26.859375 59.242188 C 26.855469 59.101562 26.980469 59.023438 27.101562 59.019531 C 27.160156 58.972656 27.222656 58.953125 27.289062 58.96875 C 27.261719 58.664062 27.707031 58.566406 27.789062 58.878906 C 27.867188 59.140625 27.921875 59.410156 27.953125 59.6875 C 27.964844 59.734375 27.976562 59.789062 27.992188 59.847656 C 28.027344 59.546875 28.03125 59.242188 28.039062 58.929688 C 28.039062 58.832031 28.082031 58.769531 28.148438 58.730469 C 28.152344 58.703125 28.152344 58.671875 28.160156 58.644531 C 28.199219 58.464844 28.367188 58.433594 28.503906 58.5 C 28.523438 58.324219 28.746094 58.234375 28.894531 58.308594 C 29.132812 59.105469 29.375 59.914062 29.617188 60.695312 " fill-opacity="1" fill-rule="nonzero"/><path fill="#a18c82" d="M 31.207031 66.050781 C 31.171875 66.09375 31.140625 66.132812 31.101562 66.171875 C 31.085938 66.269531 31.078125 66.371094 31.058594 66.46875 C 31 66.722656 30.675781 66.710938 30.554688 66.535156 C 30.398438 66.3125 30.289062 66.082031 30.195312 65.84375 C 30.160156 65.984375 30.121094 66.121094 30.074219 66.253906 C 30 66.453125 29.679688 66.539062 29.582031 66.308594 C 29.507812 66.144531 29.449219 65.96875 29.382812 65.789062 C 29.269531 65.636719 29.203125 65.460938 29.160156 65.277344 C 29.148438 65.691406 29.144531 66.097656 29.097656 66.511719 C 29.078125 66.746094 28.71875 66.886719 28.613281 66.628906 C 28.550781 66.484375 28.507812 66.34375 28.464844 66.199219 C 28.445312 66.199219 28.429688 66.203125 28.414062 66.203125 C 28.398438 66.4375 28.375 66.671875 28.332031 66.90625 C 28.285156 67.132812 28.046875 67.121094 27.910156 67 C 27.910156 67.125 27.914062 67.253906 27.910156 67.378906 C 27.898438 67.589844 27.605469 67.734375 27.457031 67.542969 C 27.363281 67.421875 27.285156 67.296875 27.214844 67.164062 C 27.191406 67.257812 27.164062 67.351562 27.136719 67.445312 C 27.070312 67.648438 26.761719 67.695312 26.667969 67.488281 C 26.582031 67.3125 26.515625 67.136719 26.449219 66.960938 L 26.445312 66.960938 C 26.476562 67.109375 26.300781 67.230469 26.171875 67.121094 C 26.035156 67 25.890625 66.886719 25.742188 66.785156 L 25.742188 67.085938 C 25.742188 67.414062 25.246094 67.378906 25.238281 67.058594 C 25.238281 66.976562 25.238281 66.894531 25.234375 66.8125 C 25.132812 66.8125 25.035156 66.75 25.027344 66.628906 L 25.027344 66.558594 C 24.972656 66.503906 24.925781 66.441406 24.894531 66.371094 C 24.820312 66.320312 24.773438 66.222656 24.800781 66.109375 C 24.820312 66.0625 24.832031 66.023438 24.835938 65.988281 C 24.851562 65.8125 24.925781 65.636719 25.046875 65.496094 C 25.140625 65.394531 25.332031 65.332031 25.4375 65.476562 L 25.4375 65.480469 C 25.539062 65.425781 25.644531 65.398438 25.753906 65.414062 C 25.953125 65.429688 26.019531 65.488281 26.125 65.570312 C 26.097656 65.335938 26.085938 65.105469 26.101562 64.867188 C 26.117188 64.585938 26.53125 64.554688 26.59375 64.828125 C 26.660156 65.140625 26.6875 65.4375 26.699219 65.734375 C 26.722656 65.730469 26.742188 65.730469 26.761719 65.71875 C 26.714844 65.460938 26.675781 65.199219 26.636719 64.941406 C 26.589844 64.613281 27.0625 64.492188 27.140625 64.824219 C 27.175781 64.960938 27.203125 65.09375 27.222656 65.226562 L 27.234375 65.214844 C 27.214844 65.089844 27.195312 64.960938 27.179688 64.835938 C 27.128906 64.507812 27.617188 64.382812 27.683594 64.714844 C 27.707031 64.820312 27.734375 64.917969 27.761719 65.015625 C 27.820312 65.078125 27.90625 65.160156 28 65.242188 C 28.011719 65.132812 28.027344 65.023438 28.054688 64.914062 C 28.105469 64.691406 28.4375 64.675781 28.53125 64.867188 C 28.570312 64.957031 28.601562 65.046875 28.640625 65.128906 C 28.644531 64.828125 28.65625 64.527344 28.683594 64.226562 C 28.703125 64.074219 28.855469 63.945312 29 63.96875 L 29 63.945312 C 29.042969 63.679688 29.425781 63.632812 29.484375 63.914062 C 29.546875 64.179688 29.542969 64.519531 29.585938 64.847656 C 29.636719 64.96875 29.683594 65.089844 29.730469 65.214844 C 29.734375 65.195312 29.746094 65.171875 29.75 65.15625 C 29.785156 64.707031 29.769531 64.253906 29.761719 63.796875 C 29.761719 63.769531 29.769531 63.746094 29.773438 63.726562 C 29.75 63.53125 29.734375 63.332031 29.71875 63.140625 C 29.691406 62.824219 30.140625 62.707031 30.210938 63.03125 C 30.316406 63.46875 30.375 63.890625 30.375 64.3125 C 30.382812 64.347656 30.386719 64.382812 30.394531 64.421875 C 30.410156 64.492188 30.421875 64.566406 30.4375 64.632812 C 30.453125 64.699219 30.535156 65.054688 30.625 65.34375 C 30.648438 64.894531 30.628906 64.449219 30.625 63.996094 C 30.621094 63.984375 30.621094 63.96875 30.621094 63.957031 C 30.839844 64.703125 31.039062 65.402344 31.207031 66.050781 " fill-opacity="1" fill-rule="nonzero"/><path fill="#a18c82" d="M 32.019531 69.445312 C 31.984375 69.433594 31.964844 69.410156 31.941406 69.382812 C 31.917969 69.355469 31.902344 69.320312 31.886719 69.292969 C 31.824219 69.273438 31.769531 69.238281 31.738281 69.183594 C 31.6875 69.113281 31.660156 69.035156 31.621094 68.957031 C 31.511719 69.21875 31.386719 69.476562 31.234375 69.730469 C 31.15625 69.851562 30.945312 69.859375 30.859375 69.742188 C 30.71875 69.554688 30.636719 69.367188 30.574219 69.171875 C 30.535156 69.316406 30.488281 69.460938 30.414062 69.605469 C 30.371094 69.691406 30.25 69.730469 30.148438 69.707031 L 30.140625 69.726562 C 30.027344 69.890625 29.75 69.820312 29.730469 69.632812 C 29.707031 69.464844 29.679688 69.304688 29.652344 69.152344 C 29.597656 69.328125 29.523438 69.492188 29.425781 69.636719 C 29.492188 69.753906 29.519531 69.886719 29.492188 70.039062 C 29.464844 70.195312 29.308594 70.300781 29.171875 70.253906 C 29.148438 70.480469 29.097656 70.703125 28.992188 70.902344 C 28.917969 71.058594 28.71875 71.128906 28.585938 70.976562 C 28.519531 70.90625 28.464844 70.828125 28.40625 70.75 C 28.351562 71.09375 28.226562 71.414062 27.910156 71.546875 C 27.726562 71.625 27.59375 71.597656 27.496094 71.5 C 27.449219 71.585938 27.402344 71.667969 27.335938 71.75 C 27.257812 71.84375 27.136719 71.851562 27.035156 71.785156 C 26.859375 71.667969 26.484375 71.324219 26.488281 71.09375 C 26.488281 71.082031 26.496094 71.082031 26.496094 71.070312 C 26.378906 71.054688 26.261719 70.960938 26.289062 70.835938 C 26.296875 70.8125 26.296875 70.796875 26.300781 70.773438 C 26.261719 70.769531 26.234375 70.746094 26.195312 70.746094 C 25.925781 70.730469 25.878906 70.28125 26.164062 70.261719 C 26.621094 70.226562 26.960938 69.859375 27.375 69.691406 C 27.457031 69.664062 27.515625 69.742188 27.496094 69.820312 C 27.539062 69.839844 27.585938 69.878906 27.585938 69.949219 C 27.589844 70.039062 27.578125 70.148438 27.617188 70.234375 C 27.632812 70.265625 27.632812 70.304688 27.628906 70.335938 C 27.671875 70.253906 27.710938 70.179688 27.753906 70.09375 L 27.753906 69.980469 C 27.753906 69.863281 27.828125 69.792969 27.914062 69.765625 C 27.925781 69.742188 27.945312 69.714844 27.953125 69.6875 C 28.019531 69.546875 28.242188 69.539062 28.3125 69.664062 C 28.320312 69.648438 28.324219 69.636719 28.335938 69.625 C 28.230469 69.527344 28.136719 69.433594 28.046875 69.371094 C 27.871094 69.25 28.019531 68.976562 28.210938 69.078125 C 28.296875 69.128906 28.398438 69.199219 28.496094 69.261719 C 28.558594 69.105469 28.613281 68.953125 28.667969 68.785156 C 28.734375 68.59375 29.082031 68.625 29.082031 68.84375 L 29.082031 68.980469 C 29.117188 69.003906 29.136719 69.039062 29.15625 69.078125 C 29.1875 69.019531 29.222656 68.957031 29.261719 68.890625 C 29.320312 68.65625 29.375 68.410156 29.421875 68.164062 C 29.453125 67.964844 29.773438 67.859375 29.855469 68.097656 C 29.878906 68.167969 29.902344 68.257812 29.921875 68.34375 C 29.960938 68.378906 29.988281 68.417969 29.996094 68.472656 C 30.007812 68.570312 30.027344 68.664062 30.046875 68.765625 C 30.054688 68.804688 30.078125 68.84375 30.09375 68.886719 C 30.109375 68.847656 30.128906 68.808594 30.144531 68.777344 C 30.210938 68.402344 30.199219 68.015625 30.195312 67.617188 C 30.1875 67.3125 30.609375 67.324219 30.691406 67.578125 C 30.730469 67.703125 30.769531 67.835938 30.808594 67.96875 C 30.867188 68.019531 30.90625 68.085938 30.914062 68.167969 C 30.90625 68.210938 30.914062 68.25 30.914062 68.296875 C 30.929688 68.339844 30.945312 68.378906 30.964844 68.421875 C 31.046875 68.082031 31.007812 67.75 30.992188 67.378906 C 30.980469 67.101562 31.351562 67.085938 31.464844 67.273438 C 31.484375 67.300781 31.5 67.328125 31.515625 67.355469 L 31.515625 67.363281 C 31.550781 67.507812 31.578125 67.644531 31.597656 67.78125 C 31.671875 68.195312 31.816406 68.757812 32.019531 69.445312 " fill-opacity="1" fill-rule="nonzero"/><path fill="#a18c82" d="M 32.703125 71.550781 L 32.703125 71.566406 C 32.6875 71.792969 32.6875 72.027344 32.726562 72.253906 C 32.78125 72.507812 32.46875 72.621094 32.308594 72.460938 C 32.179688 72.335938 32.078125 72.214844 31.980469 72.09375 C 31.957031 72.488281 31.914062 72.886719 31.808594 73.285156 C 31.769531 73.445312 31.609375 73.46875 31.488281 73.40625 C 31.472656 73.792969 31.421875 74.167969 31.265625 74.554688 C 31.183594 74.757812 30.933594 74.746094 30.824219 74.578125 C 30.765625 74.480469 30.714844 74.394531 30.667969 74.300781 C 30.636719 74.445312 30.597656 74.585938 30.542969 74.730469 C 30.464844 74.929688 30.199219 74.933594 30.101562 74.753906 C 30.089844 74.730469 30.082031 74.707031 30.074219 74.6875 C 30.050781 74.800781 30.035156 74.914062 30.011719 75.027344 C 29.957031 75.300781 29.617188 75.320312 29.535156 75.054688 C 29.484375 74.894531 29.4375 74.730469 29.390625 74.566406 C 29.371094 74.714844 29.347656 74.855469 29.328125 75.007812 C 29.4375 75.0625 29.507812 75.199219 29.402344 75.328125 C 29.359375 75.414062 29.316406 75.507812 29.269531 75.597656 C 29.265625 75.695312 29.210938 75.75 29.132812 75.769531 C 29.121094 75.773438 29.109375 75.769531 29.097656 75.773438 C 29.089844 75.773438 29.078125 75.773438 29.066406 75.773438 C 29.050781 75.773438 29.03125 75.769531 29.023438 75.769531 C 29.011719 75.761719 29.003906 75.761719 29 75.761719 C 28.90625 75.734375 28.824219 75.65625 28.824219 75.53125 C 28.824219 75.429688 28.824219 75.332031 28.816406 75.226562 C 28.816406 75.210938 28.8125 75.195312 28.8125 75.171875 C 28.8125 74.945312 28.8125 74.71875 28.8125 74.5 C 28.597656 74.546875 28.386719 74.585938 28.175781 74.570312 C 28.148438 74.644531 28.09375 74.675781 28.027344 74.6875 C 28.015625 74.703125 28.011719 74.71875 28 74.730469 C 27.988281 74.757812 27.972656 74.769531 27.953125 74.785156 C 27.953125 74.796875 27.953125 74.800781 27.949219 74.808594 C 27.90625 74.980469 27.644531 75.015625 27.546875 74.878906 C 27.476562 74.785156 27.414062 74.695312 27.335938 74.625 C 27.28125 74.933594 27.21875 75.226562 27.042969 75.503906 C 26.941406 75.648438 26.703125 75.625 26.636719 75.464844 C 26.554688 75.277344 26.472656 75.082031 26.417969 74.878906 C 26.378906 74.742188 26.472656 74.566406 26.644531 74.605469 C 26.722656 74.621094 26.789062 74.636719 26.855469 74.660156 C 26.882812 74.515625 26.902344 74.371094 26.929688 74.226562 C 26.964844 74.085938 27.097656 73.964844 27.253906 74.03125 C 27.3125 74.050781 27.367188 74.078125 27.417969 74.113281 C 27.417969 74.097656 27.421875 74.085938 27.421875 74.070312 C 27.433594 73.96875 27.511719 73.929688 27.59375 73.933594 C 27.628906 73.835938 27.734375 73.765625 27.832031 73.78125 C 28.066406 73.820312 28.203125 73.742188 28.347656 73.554688 C 28.523438 73.324219 28.878906 73.589844 28.707031 73.824219 C 28.605469 73.957031 28.496094 74.058594 28.367188 74.128906 C 28.519531 74.125 28.664062 74.097656 28.8125 74.101562 L 28.8125 73.542969 C 28.8125 73.429688 28.878906 73.367188 28.964844 73.34375 C 28.972656 73.34375 28.976562 73.34375 28.988281 73.34375 C 28.988281 73.289062 28.988281 73.242188 28.988281 73.1875 C 28.992188 72.894531 29.390625 72.925781 29.464844 73.164062 C 29.542969 73.402344 29.613281 73.636719 29.679688 73.875 C 29.707031 73.527344 29.710938 73.179688 29.710938 72.828125 C 29.71875 72.519531 30.1875 72.554688 30.195312 72.867188 C 30.195312 73.1875 30.210938 73.496094 30.273438 73.792969 C 30.304688 73.488281 30.304688 73.179688 30.289062 72.871094 C 30.265625 72.621094 30.261719 72.363281 30.261719 72.105469 C 30.253906 71.789062 30.730469 71.839844 30.734375 72.140625 C 30.742188 72.359375 30.753906 72.566406 30.757812 72.78125 C 30.785156 73.136719 30.847656 73.46875 30.972656 73.796875 C 31.058594 73.242188 30.996094 72.679688 30.980469 72.105469 C 30.972656 71.820312 31.40625 71.816406 31.460938 72.074219 C 31.464844 72.121094 31.484375 72.164062 31.492188 72.207031 C 31.519531 71.871094 31.519531 71.539062 31.519531 71.199219 C 31.519531 70.960938 31.898438 70.890625 31.980469 71.109375 C 32.046875 71.28125 32.125 71.425781 32.207031 71.5625 C 32.21875 71.445312 32.230469 71.332031 32.246094 71.199219 C 32.261719 71.078125 32.367188 70.960938 32.5 70.976562 L 32.503906 70.976562 L 32.703125 71.550781 " fill-opacity="1" fill-rule="nonzero"/><path fill="#a18c82" d="M 34.640625 76.757812 C 34.546875 76.644531 34.464844 76.523438 34.398438 76.398438 C 34.292969 76.535156 34.207031 76.691406 34.175781 76.839844 C 34.136719 77.019531 33.894531 77.152344 33.753906 76.972656 C 33.738281 76.949219 33.726562 76.925781 33.710938 76.90625 C 33.671875 77.125 33.640625 77.339844 33.628906 77.5625 C 33.621094 77.695312 33.527344 77.753906 33.429688 77.765625 C 33.375 78.019531 33.308594 78.273438 33.242188 78.527344 C 33.175781 78.769531 32.859375 78.664062 32.808594 78.476562 C 32.792969 78.429688 32.789062 78.371094 32.777344 78.324219 C 32.742188 78.390625 32.714844 78.460938 32.675781 78.527344 C 32.582031 78.6875 32.296875 78.6875 32.285156 78.464844 C 32.273438 78.300781 32.25 78.136719 32.222656 77.976562 C 32.167969 78.144531 31.882812 78.144531 31.851562 77.933594 C 31.847656 77.902344 31.851562 77.886719 31.851562 77.867188 C 31.753906 77.921875 31.644531 77.882812 31.59375 77.777344 C 31.464844 77.5 31.417969 77.308594 31.417969 77.003906 C 31.417969 76.789062 31.742188 76.777344 31.75 76.992188 C 31.738281 77.144531 31.769531 77.28125 31.820312 77.414062 C 31.9375 77.292969 32.050781 77.175781 32.167969 77.054688 C 32.257812 76.964844 32.402344 76.980469 32.460938 77.082031 C 32.59375 76.703125 32.695312 76.332031 33.019531 76.066406 C 33.089844 76 33.21875 75.996094 33.296875 76.0625 C 33.308594 76.070312 33.324219 76.078125 33.335938 76.089844 L 33.335938 76.078125 C 33.339844 75.945312 33.453125 75.878906 33.5625 75.867188 C 33.574219 75.703125 33.5625 75.535156 33.554688 75.347656 C 33.550781 75.117188 33.816406 75.078125 33.960938 75.199219 C 33.964844 75.144531 33.972656 75.09375 33.972656 75.039062 L 33.972656 75.015625 L 34.640625 76.757812 " fill-opacity="1" fill-rule="nonzero"/><path fill="#a18c82" d="M 26.542969 27.886719 C 26.496094 27.917969 26.445312 27.914062 26.394531 27.898438 C 26.335938 28.070312 26.261719 28.230469 26.140625 28.378906 C 26.023438 28.527344 25.785156 28.464844 25.753906 28.277344 C 25.746094 28.246094 25.746094 28.210938 25.746094 28.183594 C 25.6875 28.265625 25.621094 28.34375 25.542969 28.417969 C 25.484375 28.472656 25.421875 28.472656 25.359375 28.449219 C 25.253906 28.59375 25.128906 28.71875 24.96875 28.808594 C 24.867188 28.863281 24.699219 28.851562 24.664062 28.714844 C 24.652344 28.671875 24.652344 28.625 24.640625 28.582031 C 24.621094 28.613281 24.601562 28.648438 24.574219 28.679688 C 24.453125 28.828125 24.269531 28.675781 24.289062 28.527344 C 24.316406 28.3125 24.382812 28.125 24.46875 27.925781 C 24.507812 27.851562 24.570312 27.832031 24.628906 27.847656 C 24.703125 27.742188 24.859375 27.730469 24.917969 27.832031 C 25 27.714844 25.113281 27.632812 25.253906 27.625 C 25.285156 27.511719 25.316406 27.402344 25.378906 27.285156 C 25.457031 27.136719 25.664062 27.136719 25.746094 27.242188 C 25.785156 27.148438 25.820312 27.054688 25.851562 26.964844 C 25.914062 26.804688 26.117188 26.808594 26.21875 26.914062 C 26.230469 26.875 26.234375 26.84375 26.246094 26.804688 C 26.269531 26.738281 26.3125 26.695312 26.363281 26.675781 C 26.421875 27.085938 26.488281 27.488281 26.542969 27.886719 " fill-opacity="1" fill-rule="nonzero"/><path fill="#a18c82" d="M 36.007812 80.101562 C 35.960938 80.140625 35.914062 80.152344 35.855469 80.144531 C 35.816406 80.140625 35.785156 80.128906 35.75 80.121094 C 35.667969 80.246094 35.464844 80.273438 35.375 80.144531 C 35.324219 80.074219 35.28125 80 35.238281 79.925781 C 35.25 80.160156 35.238281 80.40625 35.230469 80.648438 C 35.230469 80.816406 34.996094 80.933594 34.863281 80.816406 C 34.558594 80.5625 34.242188 79.957031 34.441406 79.546875 C 34.40625 79.511719 34.390625 79.460938 34.390625 79.398438 C 34.402344 79.15625 34.558594 78.835938 34.855469 78.980469 L 34.867188 78.984375 C 34.839844 78.808594 34.828125 78.632812 34.851562 78.449219 C 34.867188 78.273438 35.117188 78.175781 35.238281 78.316406 C 35.238281 78.300781 35.242188 78.285156 35.242188 78.269531 L 35.242188 78.261719 L 36.007812 80.101562 " fill-opacity="1" fill-rule="nonzero"/><path fill="#dbcdbd" d="M 20.617188 90.929688 C 18.292969 86.382812 15.460938 80.4375 16.140625 73.714844 C 16.296875 72.175781 16.625 67.929688 16.453125 66.335938 C 16.152344 63.53125 14.09375 60.296875 13.359375 56.777344 C 12.621094 53.234375 12.09375 50.234375 11.875 49.210938 C 11.875 49.210938 13.566406 48.171875 14.179688 47.6875 C 14.941406 47.085938 15.886719 46.539062 16.699219 45.824219 C 17.226562 45.363281 17.414062 49.707031 18.042969 54.988281 C 18.785156 61.242188 19.410156 68.796875 18.601562 71.953125 C 16.515625 80.054688 20.097656 88.003906 20.617188 90.929688 " fill-opacity="1" fill-rule="nonzero"/><path fill="#968a7d" d="M 12.386719 59.601562 C 12.140625 59.71875 11.808594 59.21875 11.636719 58.566406 C 11.457031 59.210938 11.722656 59.796875 11.441406 59.800781 C 11.230469 59.800781 11.042969 59.507812 10.9375 59.085938 C 10.960938 59.265625 10.976562 59.386719 10.863281 59.378906 C 10.601562 59.339844 10.414062 58.847656 10.507812 58.183594 C 10.511719 58.15625 10.511719 58.117188 10.519531 58.070312 C 10.785156 58.285156 11.425781 58.726562 12.421875 58.433594 C 12.347656 58.984375 12.492188 59.558594 12.386719 59.601562 " fill-opacity="1" fill-rule="nonzero"/><path fill="#e7dcd6" d="M 12.417969 58.414062 C 12.4375 58.285156 12.464844 58.15625 12.507812 58.039062 C 12.589844 57.820312 12.710938 57.628906 12.851562 57.445312 C 12.710938 57.628906 12.589844 57.820312 12.507812 58.042969 C 12.464844 58.160156 12.4375 58.285156 12.417969 58.414062 M 13.191406 57.007812 C 13.25 56.933594 13.304688 56.859375 13.359375 56.777344 C 13.304688 56.859375 13.25 56.933594 13.191406 57.007812 M 10.558594 56.113281 C 10.554688 55.679688 10.539062 55.210938 10.511719 54.738281 C 10.539062 55.210938 10.554688 55.679688 10.558594 56.113281 M 9.996094 54.949219 C 9.964844 54.492188 10.046875 53.703125 10.289062 52.785156 C 10.289062 52.789062 10.289062 52.789062 10.289062 52.792969 C 10.050781 53.703125 9.964844 54.492188 9.996094 54.949219 " fill-opacity="1" fill-rule="nonzero"/><path fill="#b49a80" d="M 8.570312 59.980469 C 9.1875 58.898438 9.546875 58.53125 9.398438 56.03125 C 9.167969 52.035156 10.09375 49.597656 11.335938 48.261719 C 12.371094 47.148438 15.402344 45.566406 16.539062 45.566406 C 16.867188 45.566406 17.035156 45.699219 16.953125 46.007812 C 16.898438 45.867188 16.839844 45.792969 16.777344 45.792969 C 16.75 45.792969 16.726562 45.800781 16.699219 45.824219 C 15.886719 46.539062 14.941406 47.085938 14.179688 47.6875 C 13.566406 48.171875 11.875 49.210938 11.875 49.210938 C 12.09375 50.234375 12.621094 53.234375 13.359375 56.777344 C 13.304688 56.859375 13.25 56.933594 13.191406 57.007812 C 13.074219 57.15625 12.957031 57.300781 12.851562 57.445312 C 12.710938 57.628906 12.589844 57.820312 12.507812 58.039062 C 12.464844 58.15625 12.4375 58.285156 12.417969 58.414062 C 12.417969 58.417969 12.417969 58.425781 12.417969 58.433594 C 12.183594 58.503906 11.96875 58.53125 11.777344 58.53125 C 11.144531 58.53125 10.722656 58.234375 10.519531 58.070312 C 10.542969 57.75 10.570312 57.007812 10.558594 56.113281 C 10.554688 55.679688 10.539062 55.210938 10.511719 54.738281 C 10.472656 54.0625 10.402344 53.378906 10.292969 52.789062 C 10.292969 52.789062 10.292969 52.789062 10.289062 52.792969 C 10.289062 52.789062 10.289062 52.789062 10.289062 52.785156 C 10.046875 53.703125 9.964844 54.492188 9.996094 54.949219 C 10 55.027344 10.011719 55.09375 10.019531 55.148438 C 10.632812 58.207031 9.523438 59.492188 8.570312 59.980469 " fill-opacity="1" fill-rule="nonzero"/><path fill="#b49a80" d="M 10.507812 58.183594 C 10.507812 58.171875 10.511719 58.15625 10.511719 58.140625 C 10.511719 58.15625 10.511719 58.171875 10.507812 58.183594 " fill-opacity="1" fill-rule="nonzero"/><path fill="#c6b19f" d="M 13.363281 56.777344 C 13.363281 56.777344 13.363281 56.777344 13.359375 56.777344 C 12.621094 53.234375 12.09375 50.234375 11.875 49.210938 C 11.875 49.210938 13.566406 48.171875 14.179688 47.6875 C 14.941406 47.085938 15.886719 46.539062 16.699219 45.824219 C 16.726562 45.800781 16.75 45.792969 16.777344 45.792969 C 16.839844 45.792969 16.898438 45.867188 16.953125 46.007812 C 16.945312 46.039062 16.933594 46.070312 16.921875 46.105469 C 16.6875 46.722656 13.296875 49.492188 12.929688 51.027344 C 12.578125 52.492188 13.371094 56.777344 13.363281 56.777344 " fill-opacity="1" fill-rule="nonzero"/><path fill="#887769" d="M 11.441406 59.800781 C 11.230469 59.800781 11.042969 59.507812 10.9375 59.085938 C 10.945312 59.152344 10.953125 59.210938 10.953125 59.257812 C 10.953125 59.332031 10.9375 59.378906 10.875 59.378906 C 10.871094 59.378906 10.867188 59.378906 10.863281 59.378906 C 10.648438 59.34375 10.484375 59.007812 10.484375 58.519531 C 10.484375 58.414062 10.492188 58.300781 10.507812 58.183594 C 10.511719 58.171875 10.511719 58.15625 10.511719 58.140625 C 10.515625 58.121094 10.515625 58.097656 10.519531 58.070312 C 10.722656 58.234375 11.144531 58.53125 11.777344 58.53125 C 11.96875 58.53125 12.183594 58.503906 12.417969 58.433594 C 12.347656 58.988281 12.488281 59.558594 12.386719 59.601562 C 12.363281 59.613281 12.339844 59.621094 12.3125 59.621094 C 12.085938 59.621094 11.8125 59.191406 11.652344 58.632812 C 11.648438 58.613281 11.640625 58.589844 11.636719 58.566406 C 11.582031 58.761719 11.570312 58.953125 11.570312 59.121094 C 11.570312 59.285156 11.582031 59.425781 11.582031 59.539062 C 11.582031 59.699219 11.558594 59.800781 11.441406 59.800781 " fill-opacity="1" fill-rule="nonzero"/><path fill="#d1bfa9" d="M 7.769531 58.285156 C 7.769531 58.285156 7.765625 58.285156 7.765625 58.285156 C 7.292969 58.195312 5.492188 49.996094 8.210938 46.652344 C 9.328125 45.277344 10.71875 43.246094 12.835938 41.363281 C 13.394531 40.867188 13.757812 40.1875 13.933594 39.472656 C 15.078125 37.738281 15.800781 35.324219 14.941406 31.65625 C 14.585938 30.140625 14.992188 28.632812 15.574219 27.144531 C 16.113281 26.957031 16.667969 26.679688 17.1875 26.324219 C 18.5625 25.382812 19.492188 24.984375 20.101562 24.984375 C 21.871094 24.984375 20.980469 28.328125 20.617188 31.527344 C 20.34375 33.890625 18.703125 38.808594 16.960938 40.425781 C 14.128906 43.042969 11.492188 45.601562 9.894531 47.605469 C 7.25 50.914062 8.132812 58.285156 7.769531 58.285156 " fill-opacity="1" fill-rule="nonzero"/><path fill="#e1d6c7" d="M 13.933594 39.472656 C 14.382812 37.652344 13.625 35.585938 11.78125 35.585938 C 11.660156 35.585938 11.535156 35.59375 11.402344 35.613281 C 11.171875 35.644531 10.957031 35.667969 10.757812 35.679688 C 11.136719 33.125 12.480469 30.03125 13.738281 27.449219 C 13.796875 27.453125 13.859375 27.457031 13.925781 27.457031 C 14.410156 27.457031 14.984375 27.351562 15.574219 27.144531 C 14.992188 28.632812 14.585938 30.140625 14.941406 31.65625 C 15.800781 35.324219 15.078125 37.738281 13.933594 39.472656 " fill-opacity="1" fill-rule="nonzero"/><path fill="#e7dcd6" d="M 29.109375 104.410156 C 29.109375 104.40625 29.113281 104.402344 29.113281 104.398438 C 29.136719 104.34375 29.160156 104.289062 29.1875 104.226562 C 29.160156 104.289062 29.136719 104.34375 29.117188 104.394531 C 29.113281 104.398438 29.109375 104.40625 29.109375 104.410156 M 26.863281 102.304688 C 26.601562 102.304688 26.289062 102.230469 25.992188 102.132812 C 26.285156 102.230469 26.597656 102.304688 26.863281 102.304688 C 26.996094 102.304688 27.113281 102.285156 27.214844 102.242188 C 27.238281 102.230469 27.261719 102.214844 27.28125 102.191406 C 27.261719 102.214844 27.238281 102.234375 27.210938 102.246094 C 27.113281 102.285156 26.996094 102.304688 26.863281 102.304688 M 30.277344 101.773438 C 30.371094 101.511719 30.457031 101.246094 30.527344 100.972656 C 31.09375 98.851562 31.796875 96.4375 31.65625 94.789062 C 31.800781 96.441406 31.09375 98.855469 30.53125 100.972656 C 30.457031 101.246094 30.371094 101.511719 30.277344 101.773438 M 27.820312 98.878906 C 27.886719 98.09375 27.882812 97.269531 27.664062 96.589844 C 27.664062 96.589844 27.664062 96.585938 27.664062 96.585938 C 27.882812 97.265625 27.890625 98.09375 27.820312 98.878906 M 30.675781 91.851562 C 30.179688 90.46875 29.613281 88.664062 29.160156 86.636719 L 29.160156 86.628906 C 29.613281 88.664062 30.179688 90.46875 30.675781 91.851562 " fill-opacity="1" fill-rule="nonzero"/><path fill="#b49a80" d="M 25.222656 104.6875 C 25.476562 103.847656 25.769531 103.160156 25.992188 102.132812 C 26.289062 102.230469 26.601562 102.304688 26.863281 102.304688 C 26.996094 102.304688 27.113281 102.285156 27.210938 102.246094 C 27.238281 102.234375 27.261719 102.214844 27.28125 102.191406 C 27.472656 101.96875 27.503906 101.191406 27.621094 100.421875 C 27.691406 99.972656 27.773438 99.4375 27.820312 98.878906 C 27.890625 98.09375 27.882812 97.265625 27.664062 96.585938 C 27.664062 96.585938 27.664062 96.589844 27.664062 96.589844 C 27.660156 96.589844 27.660156 96.585938 27.660156 96.585938 C 27.839844 95.824219 27.90625 95.171875 28 94.285156 C 28.292969 91.5625 29.105469 88.65625 29.160156 86.644531 L 29.160156 86.636719 C 29.613281 88.664062 30.179688 90.46875 30.675781 91.851562 C 30.976562 92.695312 31.25 93.386719 31.449219 93.875 C 31.558594 94.140625 31.625 94.449219 31.65625 94.789062 C 31.796875 96.4375 31.09375 98.851562 30.527344 100.972656 C 30.457031 101.246094 30.371094 101.511719 30.277344 101.773438 C 29.910156 102.792969 29.433594 103.691406 29.1875 104.226562 C 29.160156 104.289062 29.136719 104.34375 29.113281 104.398438 C 29.113281 104.402344 29.109375 104.40625 29.109375 104.410156 C 29 104.601562 28.453125 104.632812 27.914062 104.632812 C 27.765625 104.632812 27.617188 104.632812 27.480469 104.628906 C 27.34375 104.625 27.214844 104.625 27.101562 104.625 C 27.042969 104.625 26.984375 104.625 26.9375 104.625 C 26.394531 104.648438 25.792969 104.683594 25.222656 104.6875 " fill-opacity="1" fill-rule="nonzero"/><path fill="#e7dcd6" d="M 44.574219 102.671875 C 43.480469 101.597656 42.359375 100.273438 41.269531 98.792969 C 40.90625 98.296875 40.539062 97.789062 40.1875 97.265625 C 38.320312 94.519531 36.328125 91.113281 33.910156 86.851562 C 36.328125 91.113281 38.320312 94.523438 40.191406 97.265625 C 41.613281 99.355469 43.117188 101.238281 44.574219 102.671875 M 29.164062 86.253906 C 29.164062 86.25 29.164062 86.242188 29.167969 86.238281 C 29.8125 83.234375 30.042969 82.074219 30.242188 81.457031 C 30.042969 82.074219 29.8125 83.246094 29.164062 86.253906 M 32.929688 85.082031 C 32.101562 83.472656 30.960938 80.917969 30.539062 80.917969 C 30.53125 80.917969 30.523438 80.917969 30.515625 80.921875 C 30.523438 80.917969 30.53125 80.917969 30.539062 80.917969 C 30.960938 80.917969 32.101562 83.476562 32.929688 85.082031 " fill-opacity="1" fill-rule="nonzero"/><path fill="#b49a80" d="M 45.953125 103.894531 C 45.503906 103.535156 45.042969 103.125 44.574219 102.671875 C 43.117188 101.238281 41.613281 99.355469 40.191406 97.265625 C 38.320312 94.523438 36.328125 91.113281 33.910156 86.851562 C 33.699219 86.476562 33.484375 86.09375 33.261719 85.707031 C 33.160156 85.527344 33.046875 85.316406 32.929688 85.082031 C 32.101562 83.476562 30.960938 80.917969 30.539062 80.917969 C 30.53125 80.917969 30.523438 80.917969 30.515625 80.921875 C 30.488281 80.929688 30.460938 80.949219 30.441406 80.984375 C 30.371094 81.113281 30.308594 81.253906 30.242188 81.457031 C 30.042969 82.074219 29.8125 83.234375 29.167969 86.238281 C 29.230469 82.335938 28.558594 80.359375 29.617188 79.453125 C 29.699219 79.386719 29.789062 79.351562 29.882812 79.351562 C 31.015625 79.351562 33.082031 84.113281 36.1875 89.636719 C 39.113281 94.84375 43.136719 100.738281 45.953125 103.894531 " fill-opacity="1" fill-rule="nonzero"/><path fill="#e7dcd6" d="M 16.355469 21.644531 C 16.5625 20.726562 16.816406 19.707031 16.269531 18.992188 C 16.816406 19.707031 16.566406 20.726562 16.355469 21.644531 " fill-opacity="1" fill-rule="nonzero"/><path fill="#b49a80" d="M 17.316406 22.5625 C 17.699219 20.921875 17.59375 19.4375 16.539062 18.585938 C 16.640625 18.574219 16.742188 18.5625 16.84375 18.546875 C 21.492188 17.976562 23.023438 15.84375 23.433594 15.84375 C 23.527344 15.84375 23.5625 15.957031 23.5625 16.234375 C 23.5625 17.675781 20.878906 21.554688 17.316406 22.5625 M 16.226562 22.289062 C 16.257812 22.085938 16.304688 21.867188 16.355469 21.644531 C 16.566406 20.726562 16.816406 19.707031 16.269531 18.992188 C 16.175781 18.871094 16.0625 18.757812 15.921875 18.660156 C 15.921875 18.660156 15.921875 18.65625 15.925781 18.65625 C 17.105469 19.503906 16.421875 21.101562 16.226562 22.289062 " fill-opacity="1" fill-rule="nonzero"/><path fill="#c6b19f" d="M 16.058594 22.785156 C 16.148438 22.566406 16.207031 22.402344 16.226562 22.289062 C 16.421875 21.101562 17.105469 19.503906 15.925781 18.65625 C 16.128906 18.636719 16.332031 18.613281 16.539062 18.585938 C 17.59375 19.4375 17.699219 20.921875 17.316406 22.5625 C 17.246094 22.585938 17.171875 22.601562 17.097656 22.621094 C 16.75 22.703125 16.402344 22.757812 16.058594 22.785156 " fill-opacity="1" fill-rule="nonzero"/><path fill="#968a7d" d="M 8.570312 61.238281 C 8.316406 61.347656 7.996094 60.84375 7.832031 60.1875 C 7.644531 60.839844 7.902344 61.425781 7.621094 61.425781 C 7.410156 61.425781 7.226562 61.132812 7.128906 60.703125 C 7.144531 60.890625 7.160156 61.011719 7.046875 60.996094 C 6.785156 60.957031 6.601562 60.457031 6.703125 59.796875 C 6.71875 59.679688 6.746094 59.570312 6.78125 59.464844 C 6.933594 59.742188 7.273438 60.035156 8.175781 60.042969 C 8.328125 60.042969 8.457031 60.011719 8.570312 59.984375 C 8.460938 60.65625 8.695312 61.183594 8.570312 61.238281 " fill-opacity="1" fill-rule="nonzero"/><g clip-path="url(#id3)"><path fill="#968a7d" d="M 12.414062 17.625 C 12.332031 17.621094 12.226562 17.605469 12.113281 17.582031 C 9.972656 17.257812 8.125 17.207031 7.582031 16.578125 C 7.328125 16.285156 7.367188 16.097656 7.4375 15.980469 C 7.5 15.878906 7.585938 15.832031 7.492188 15.832031 C 6.941406 15.832031 5.910156 15.5 5.609375 15.414062 C 5.480469 15.375 5.320312 15.320312 5.148438 15.253906 C 5.078125 15.226562 5.003906 15.191406 4.933594 15.164062 C 4.40625 14.929688 4.09375 14.644531 4.09375 14.308594 C 4.09375 14.167969 6.875 13.550781 7.734375 13.261719 C 13.886719 11.203125 14.222656 14.761719 14.175781 15.96875 C 14.117188 17.460938 13.519531 17.738281 12.414062 17.625 " fill-opacity="1" fill-rule="nonzero"/></g><g clip-path="url(#id4)"><path fill="#aa9588" d="M 5.625 13.730469 C 5.984375 13.894531 5.042969 14.449219 4.332031 14.449219 C 4.253906 14.449219 4.179688 14.441406 4.109375 14.429688 C 4.097656 14.390625 4.09375 14.355469 4.09375 14.308594 C 4.09375 14.261719 4.09375 14.214844 4.105469 14.171875 C 4.109375 14.078125 4.125 13.988281 4.152344 13.90625 C 4.175781 13.851562 4.199219 13.796875 4.226562 13.742188 C 4.351562 13.488281 4.5625 13.273438 4.84375 13.078125 C 4.90625 13.457031 5.253906 13.558594 5.625 13.730469 " fill-opacity="1" fill-rule="nonzero"/></g><path fill="#968a7d" d="M 25.621094 13.050781 C 25.621094 14.429688 24.609375 16.007812 24.289062 15.742188 C 23.21875 14.859375 21.886719 13.261719 22.25 12.347656 C 22.796875 10.964844 23.976562 10.644531 25.011719 10.644531 C 26.042969 10.644531 25.621094 11.675781 25.621094 13.050781 " fill-opacity="1" fill-rule="nonzero"/><path fill="#48403b" d="M 26.652344 13.363281 C 26.164062 14.9375 23.957031 16.710938 23.929688 15.648438 C 23.890625 14.140625 21.695312 12.558594 22.96875 12.230469 C 24.074219 11.949219 24.597656 10.292969 25.621094 10.59375 C 26.304688 10.796875 27.136719 11.789062 26.652344 13.363281 " fill-opacity="1" fill-rule="nonzero"/><path fill="#48403b" d="M 19.824219 9.875 C 18.707031 10.015625 18.023438 9.660156 15.890625 9.304688 C 14.015625 8.996094 11.398438 13.492188 12.5 12.886719 C 13.546875 12.3125 14.980469 13.003906 16.84375 12.648438 C 18.710938 12.289062 21.515625 9.660156 19.824219 9.875 " fill-opacity="1" fill-rule="nonzero"/><path fill="#24201e" d="M 17.632812 10.640625 C 17.320312 10.113281 16.71875 9.558594 15.769531 9.675781 C 14.816406 9.789062 14.527344 10.425781 14.335938 11.171875 C 14.273438 11.410156 15.097656 12.136719 16.050781 12.023438 C 17.003906 11.910156 17.828125 10.964844 17.632812 10.640625 " fill-opacity="1" fill-rule="nonzero"/><path fill="#d2c1ad" d="M 17.09375 10.722656 C 17.027344 10.175781 16.433594 9.796875 15.769531 9.878906 C 15.101562 9.957031 14.617188 10.464844 14.683594 11.011719 C 14.75 11.558594 15.398438 12.035156 16.0625 11.957031 C 16.726562 11.875 17.160156 11.265625 17.09375 10.722656 " fill-opacity="1" fill-rule="nonzero"/><path fill="#1f1a14" d="M 16.839844 10.734375 C 16.773438 10.199219 16.277344 9.816406 15.730469 9.882812 C 15.179688 9.949219 14.722656 10.492188 14.789062 11.027344 C 14.851562 11.566406 15.417969 11.894531 15.964844 11.828125 C 16.511719 11.765625 16.902344 11.273438 16.839844 10.734375 " fill-opacity="1" fill-rule="nonzero"/><path fill="#ffffff" d="M 15.78125 10.609375 C 15.757812 10.429688 15.597656 10.304688 15.421875 10.324219 C 15.246094 10.34375 15.121094 10.507812 15.144531 10.683594 C 15.164062 10.859375 15.324219 10.988281 15.5 10.96875 C 15.675781 10.945312 15.800781 10.785156 15.78125 10.609375 " fill-opacity="1" fill-rule="nonzero"/><path fill="#ffffff" d="M 15.410156 11.183594 C 15.394531 11.070312 15.292969 10.992188 15.183594 11.003906 C 15.070312 11.019531 14.992188 11.121094 15.003906 11.234375 C 15.019531 11.347656 15.121094 11.425781 15.230469 11.414062 C 15.34375 11.398438 15.421875 11.296875 15.410156 11.183594 " fill-opacity="1" fill-rule="nonzero"/><g clip-path="url(#id5)"><path fill="#d1d0c6" d="M 5.617188 13.953125 C 5.515625 13.800781 5.296875 14.203125 4.972656 14.421875 C 4.648438 14.636719 4.34375 14.585938 4.445312 14.742188 C 4.550781 14.894531 4.894531 14.84375 5.222656 14.625 C 5.542969 14.410156 5.722656 14.105469 5.617188 13.953125 " fill-opacity="1" fill-rule="nonzero"/></g><g clip-path="url(#id6)"><path fill="#48403b" d="M 8.445312 15.519531 C 7.347656 15.574219 6.171875 15.410156 5.4375 15.234375 C 5.339844 15.210938 5.167969 15.15625 5.03125 15.09375 C 4.75 14.960938 4.6875 14.726562 4.753906 14.699219 C 5.261719 14.480469 5.71875 13.929688 5.71875 13.808594 C 5.71875 13.703125 5.183594 14.199219 4.695312 14.34375 C 4.460938 14.410156 4.238281 14.363281 4.105469 14.171875 C 4.09375 14.214844 4.09375 14.261719 4.09375 14.308594 C 4.09375 14.644531 4.40625 14.929688 4.933594 15.164062 C 5.011719 15.199219 5.085938 15.226562 5.164062 15.253906 L 5.148438 15.253906 C 5.320312 15.320312 5.480469 15.375 5.609375 15.414062 C 5.910156 15.5 6.941406 15.832031 7.492188 15.832031 C 7.585938 15.832031 7.5 15.878906 7.4375 15.980469 C 8.050781 16.070312 8.683594 16.148438 9.195312 16.179688 C 10.785156 16.292969 11.851562 16.234375 11.839844 15.976562 C 11.828125 15.722656 10.039062 15.445312 8.445312 15.519531 " fill-opacity="1" fill-rule="nonzero"/></g><path fill="#d1bfa9" d="M 18.816406 16.683594 C 18.144531 16.683594 17.324219 16.546875 16.292969 16.234375 C 15.726562 16.066406 14.984375 15.71875 14.160156 15.375 C 14.101562 14.75 13.894531 13.953125 13.269531 13.382812 C 15.1875 13.34375 17.34375 13.15625 18.84375 12.410156 C 19.53125 12.070312 20.074219 11.925781 20.496094 11.925781 C 22.375 11.925781 21.925781 14.730469 21.355469 15.472656 C 20.789062 16.207031 20.066406 16.683594 18.816406 16.683594 " fill-opacity="1" fill-rule="nonzero"/><path fill="#a99e91" d="M 14.160156 15.375 C 13.367188 15.046875 12.496094 14.722656 11.640625 14.5625 C 9.324219 14.136719 7.746094 14.445312 7.769531 14.066406 C 7.800781 13.457031 8.457031 13.339844 9.53125 13.339844 C 10.164062 13.339844 10.945312 13.382812 11.828125 13.386719 C 11.996094 13.390625 12.167969 13.390625 12.34375 13.390625 C 12.640625 13.390625 12.953125 13.386719 13.269531 13.382812 C 13.894531 13.953125 14.101562 14.75 14.160156 15.375 " fill-opacity="1" fill-rule="nonzero"/><g clip-path="url(#id7)"><path fill="#2d2c28" d="M 8.15625 11.640625 C 8.84375 11.359375 9.558594 11.027344 10.246094 10.605469 C 12.394531 9.300781 12.453125 8.421875 13.546875 7.476562 C 12.457031 8.421875 12.394531 9.300781 10.25 10.609375 C 9.558594 11.027344 8.84375 11.359375 8.15625 11.640625 M 25.394531 6.722656 C 25.082031 6.503906 24.742188 6.316406 24.371094 6.15625 C 24.738281 6.316406 25.082031 6.503906 25.394531 6.722656 M 18.546875 5.46875 C 19.019531 5.402344 19.476562 5.367188 19.890625 5.367188 C 19.929688 5.367188 19.964844 5.367188 20.003906 5.371094 C 20.355469 5.375 20.703125 5.390625 21.035156 5.417969 C 20.699219 5.390625 20.355469 5.375 20 5.371094 C 19.960938 5.371094 19.921875 5.371094 19.878906 5.371094 C 19.46875 5.371094 19.015625 5.40625 18.546875 5.46875 " fill-opacity="1" fill-rule="nonzero"/></g><g clip-path="url(#id8)"><path fill="#d1bfa9" d="M 6.738281 12.757812 C 6.347656 12.757812 6.046875 12.6875 5.878906 12.539062 C 6.535156 12.253906 7.324219 11.980469 8.15625 11.640625 C 8.84375 11.359375 9.558594 11.027344 10.25 10.609375 C 12.394531 9.300781 12.457031 8.421875 13.546875 7.476562 C 13.917969 7.15625 14.410156 6.828125 15.140625 6.472656 C 16.152344 5.980469 17.402344 5.632812 18.546875 5.46875 C 19.015625 5.40625 19.46875 5.371094 19.878906 5.371094 C 19.921875 5.371094 19.960938 5.371094 20 5.371094 C 20.355469 5.375 20.699219 5.390625 21.035156 5.417969 C 22.3125 5.511719 23.429688 5.746094 24.371094 6.15625 C 24.742188 6.316406 25.082031 6.503906 25.394531 6.722656 C 26.492188 7.777344 24.828125 9.300781 23.3125 9.300781 C 23.25 9.300781 23.1875 9.296875 23.125 9.292969 C 22.089844 9.203125 21.0625 8.890625 16.84375 8.539062 C 16.726562 8.53125 16.613281 8.527344 16.503906 8.527344 C 14.230469 8.527344 13.179688 10.472656 11.28125 11.414062 C 9.710938 12.195312 7.855469 12.757812 6.738281 12.757812 " fill-opacity="1" fill-rule="nonzero"/></g><path fill="#68615a" d="M 24.367188 14.5625 C 23.933594 14.5625 24.863281 13.992188 24.863281 13.078125 C 24.863281 12.167969 24.199219 11.621094 24.40625 11.621094 C 24.839844 11.621094 25.707031 12.105469 25.707031 13.019531 C 25.707031 13.929688 24.800781 14.5625 24.367188 14.5625 " fill-opacity="1" fill-rule="nonzero"/><g fill="#ffffff" fill-opacity="1"><g transform="translate(45.5473, 69.961266)"><g><path d="M 5.78125 9.964844 L 5.78125 -2.988281 C 5.898438 -2.75 6.097656 -2.550781 6.257812 -2.390625 C 7.933594 -0.519531 9.964844 0.398438 12.394531 0.398438 C 14.789062 0.398438 16.820312 -0.519531 18.492188 -2.390625 C 20.089844 -4.183594 20.925781 -6.296875 20.925781 -8.769531 C 20.925781 -11.199219 20.089844 -13.3125 18.492188 -15.144531 C 16.820312 -16.980469 14.789062 -17.9375 12.394531 -17.9375 C 9.964844 -17.9375 7.933594 -16.980469 6.257812 -15.144531 C 6.097656 -14.945312 5.898438 -14.746094 5.78125 -14.507812 L 5.78125 -17.539062 L 2.988281 -17.539062 L 2.988281 9.964844 Z M 18.136719 -8.769531 C 18.136719 -7.054688 17.539062 -5.539062 16.339844 -4.304688 C 15.144531 -3.027344 13.671875 -2.390625 11.957031 -2.390625 C 10.203125 -2.390625 8.730469 -3.027344 7.53125 -4.304688 C 6.335938 -5.539062 5.78125 -7.054688 5.78125 -8.769531 C 5.78125 -10.441406 6.335938 -11.957031 7.53125 -13.234375 C 8.730469 -14.507812 10.203125 -15.144531 11.957031 -15.144531 C 13.671875 -15.144531 15.144531 -14.507812 16.339844 -13.234375 C 17.539062 -11.957031 18.136719 -10.441406 18.136719 -8.769531 Z M 18.136719 -8.769531 "/></g></g></g><g fill="#ffffff" fill-opacity="1"><g transform="translate(68.264149, 69.961266)"><g><path d="M 16.941406 -8.769531 C 16.941406 -7.054688 16.339844 -5.539062 15.144531 -4.304688 C 13.949219 -3.027344 12.476562 -2.390625 10.761719 -2.390625 C 9.007812 -2.390625 7.53125 -3.027344 6.335938 -4.304688 C 5.140625 -5.539062 4.582031 -7.054688 4.582031 -8.769531 C 4.582031 -10.441406 5.140625 -11.957031 6.335938 -13.234375 C 7.53125 -14.507812 9.007812 -15.144531 10.761719 -15.144531 C 12.476562 -15.144531 13.949219 -14.507812 15.144531 -13.234375 C 16.339844 -11.957031 16.941406 -10.441406 16.941406 -8.769531 Z M 19.730469 0 L 19.730469 -17.539062 L 16.941406 -17.539062 L 16.941406 -14.507812 C 16.78125 -14.746094 16.582031 -14.945312 16.421875 -15.144531 C 14.746094 -16.980469 12.714844 -17.9375 10.324219 -17.9375 C 7.890625 -17.9375 5.859375 -16.980469 4.183594 -15.144531 C 2.589844 -13.3125 1.792969 -11.199219 1.792969 -8.769531 C 1.792969 -6.296875 2.589844 -4.183594 4.183594 -2.390625 C 5.859375 -0.519531 7.890625 0.398438 10.324219 0.398438 C 12.714844 0.398438 14.746094 -0.519531 16.421875 -2.390625 C 16.582031 -2.550781 16.78125 -2.75 16.941406 -2.988281 L 16.941406 0 Z M 19.730469 0 "/></g></g></g><g fill="#ffffff" fill-opacity="1"><g transform="translate(90.980997, 69.961266)"><g><path d="M 0.796875 -14.945312 L 5.179688 -14.945312 L 5.179688 0 L 7.972656 0 L 7.972656 -14.945312 L 12.316406 -14.945312 L 12.316406 -17.539062 L 7.972656 -17.539062 L 7.972656 -24.351562 L 5.179688 -24.351562 L 5.179688 -17.539062 L 0.796875 -17.539062 Z M 0.796875 -14.945312 "/></g></g></g><g fill="#ffffff" fill-opacity="1"><g transform="translate(104.093005, 69.961266)"><g><path d="M 11.996094 -13.910156 L 11.996094 -17.539062 C 11.4375 -17.777344 10.839844 -17.894531 10.242188 -17.894531 C 8.25 -17.894531 6.816406 -16.78125 5.898438 -14.628906 L 5.78125 -13.910156 L 5.78125 -17.539062 L 2.988281 -17.539062 L 2.988281 0 L 5.78125 0 L 5.78125 -8.769531 C 5.78125 -10.203125 6.097656 -11.480469 6.777344 -12.636719 C 7.09375 -13.234375 7.53125 -13.75 8.050781 -14.148438 C 8.570312 -14.546875 9.207031 -14.789062 9.925781 -14.789062 C 10.640625 -14.789062 11.320312 -14.46875 11.996094 -13.910156 Z M 11.996094 -13.910156 "/></g></g></g><g fill="#ffffff" fill-opacity="1"><g transform="translate(116.487635, 69.961266)"><g><path d="M 5.820312 -23.597656 C 5.460938 -23.914062 5.023438 -24.113281 4.542969 -24.113281 C 4.066406 -24.113281 3.628906 -23.914062 3.308594 -23.597656 C 2.949219 -23.238281 2.789062 -22.796875 2.789062 -22.320312 C 2.789062 -21.84375 2.949219 -21.402344 3.308594 -21.085938 C 3.628906 -20.726562 4.066406 -20.566406 4.542969 -20.566406 C 5.023438 -20.566406 5.460938 -20.726562 5.820312 -21.085938 C 6.136719 -21.402344 6.335938 -21.84375 6.335938 -22.320312 C 6.335938 -22.796875 6.136719 -23.238281 5.820312 -23.597656 Z M 5.980469 0 L 5.980469 -17.539062 L 3.1875 -17.539062 L 3.1875 0 Z M 5.980469 0 "/></g></g></g><g fill="#ffffff" fill-opacity="1"><g transform="translate(125.614225, 69.961266)"><g><path d="M 19.371094 -11.238281 C 18.8125 -13.191406 17.738281 -14.789062 16.183594 -16.023438 C 14.546875 -17.257812 12.753906 -17.894531 10.761719 -17.894531 C 8.25 -17.894531 6.097656 -16.980469 4.382812 -15.1875 C 2.628906 -13.390625 1.792969 -11.238281 1.792969 -8.769531 C 1.792969 -6.257812 2.628906 -4.144531 4.382812 -2.3125 C 5.179688 -1.476562 6.097656 -0.796875 7.214844 -0.320312 C 8.289062 0.160156 9.40625 0.398438 10.523438 0.398438 C 11.636719 0.398438 12.636719 0.277344 13.511719 -0.0390625 C 16.300781 -1.035156 18.214844 -2.910156 19.210938 -5.738281 L 16.0625 -5.738281 C 15.503906 -4.742188 14.789062 -3.945312 13.832031 -3.386719 C 12.875 -2.789062 11.878906 -2.511719 10.761719 -2.511719 C 9.046875 -2.511719 7.613281 -3.109375 6.417969 -4.34375 C 5.222656 -5.582031 4.664062 -7.054688 4.664062 -8.769531 C 4.664062 -10.402344 5.222656 -11.878906 6.417969 -13.113281 C 6.976562 -13.671875 7.613281 -14.148438 8.371094 -14.46875 C 9.085938 -14.789062 10.003906 -14.988281 11.039062 -14.988281 C 12.078125 -14.988281 13.074219 -14.628906 14.109375 -13.949219 C 15.105469 -13.234375 15.863281 -12.355469 16.339844 -11.238281 Z M 19.371094 -11.238281 "/></g></g></g><g fill="#ffffff" fill-opacity="1"><g transform="translate(146.378224, 69.961266)"><g><path d="M 5.78125 0 L 5.78125 -8.410156 L 12.675781 0 L 16.382812 0 L 8.6875 -9.046875 L 15.902344 -17.578125 L 12.195312 -17.578125 L 5.78125 -9.644531 L 5.78125 -29.894531 L 2.988281 -29.894531 L 2.988281 0 Z M 5.78125 0 "/></g></g></g><g fill="#ffffff" fill-opacity="1"><g transform="translate(163.156804, 69.961266)"><g><path d="M 5.78125 0 L 5.78125 -29.894531 L 2.988281 -29.894531 L 2.988281 0 Z M 5.78125 0 "/></g></g></g><g fill="#ffffff" fill-opacity="1"><g transform="translate(171.924716, 69.961266)"><g><path d="M 20.128906 -9.167969 C 20.128906 -11.558594 19.171875 -13.632812 17.339844 -15.425781 C 15.542969 -17.140625 13.390625 -18.015625 10.960938 -18.015625 C 8.410156 -18.015625 6.257812 -17.097656 4.464844 -15.304688 C 2.671875 -13.511719 1.792969 -11.359375 1.792969 -8.847656 C 1.792969 -6.296875 2.671875 -4.144531 4.464844 -2.390625 C 5.300781 -1.554688 6.257812 -0.917969 7.375 -0.4375 C 8.488281 0.0390625 9.804688 0.277344 11.359375 0.277344 C 12.914062 0.277344 14.429688 -0.199219 15.941406 -1.15625 C 17.457031 -2.113281 18.574219 -3.46875 19.332031 -5.140625 L 16.140625 -5.140625 C 15.503906 -4.304688 14.746094 -3.667969 13.832031 -3.1875 C 12.914062 -2.710938 11.957031 -2.511719 10.960938 -2.511719 C 9.445312 -2.511719 8.089844 -2.988281 6.894531 -3.984375 C 5.699219 -4.941406 4.941406 -6.179688 4.703125 -7.691406 L 20.128906 -7.691406 Z M 17.179688 -10.085938 L 4.742188 -10.085938 C 4.902344 -10.800781 5.179688 -11.480469 5.582031 -12.117188 C 6.855469 -14.1875 8.648438 -15.226562 10.960938 -15.226562 C 12.4375 -15.226562 13.75 -14.746094 14.90625 -13.789062 C 16.101562 -12.792969 16.820312 -11.558594 17.179688 -10.085938 Z M 17.179688 -10.085938 "/></g></g></g><g fill="#ffffff" fill-opacity="1"><g transform="translate(193.645207, 69.961266)"><g><path d="M 25.230469 -0.078125 L 28.019531 -0.078125 L 28.019531 -11.039062 C 28.019531 -12.992188 27.5 -14.628906 26.546875 -15.902344 C 26.066406 -16.539062 25.429688 -17.019531 24.710938 -17.417969 C 23.953125 -17.816406 22.957031 -18.015625 21.761719 -18.015625 C 20.527344 -18.015625 19.449219 -17.65625 18.535156 -17.019531 C 17.695312 -16.382812 17.019531 -15.625 16.460938 -14.667969 C 16.261719 -15.105469 16.023438 -15.503906 15.742188 -15.902344 C 15.265625 -16.539062 14.628906 -17.019531 13.910156 -17.417969 C 13.152344 -17.816406 12.15625 -18.015625 10.960938 -18.015625 C 9.726562 -18.015625 8.648438 -17.65625 7.734375 -17.019531 C 6.933594 -16.421875 6.296875 -15.703125 5.78125 -14.789062 L 5.78125 -17.617188 L 2.988281 -17.617188 L 2.988281 -0.078125 L 5.78125 -0.078125 L 5.78125 -9.046875 C 5.898438 -10.441406 6.257812 -11.679688 6.855469 -12.675781 C 7.253906 -13.390625 7.851562 -14.03125 8.570312 -14.507812 C 9.285156 -14.988281 10.042969 -15.226562 10.882812 -15.226562 C 11.679688 -15.226562 12.316406 -15.066406 12.714844 -14.828125 C 13.832031 -14.109375 14.429688 -12.835938 14.429688 -11.039062 L 14.429688 -0.078125 L 17.21875 -0.078125 L 17.21875 -11.039062 C 17.21875 -11.238281 17.179688 -11.480469 17.179688 -11.679688 C 17.296875 -12.035156 17.457031 -12.355469 17.65625 -12.675781 C 18.054688 -13.390625 18.652344 -14.03125 19.371094 -14.507812 C 20.089844 -14.988281 20.84375 -15.226562 21.683594 -15.226562 C 22.480469 -15.226562 23.117188 -15.066406 23.515625 -14.828125 C 24.632812 -14.109375 25.230469 -12.835938 25.230469 -11.039062 Z M 25.230469 -0.078125 "/></g></g></g><g fill="#ffffff" fill-opacity="1"><g transform="translate(224.053901, 69.961266)"><g><path d="M 25.230469 -0.078125 L 28.019531 -0.078125 L 28.019531 -11.039062 C 28.019531 -12.992188 27.5 -14.628906 26.546875 -15.902344 C 26.066406 -16.539062 25.429688 -17.019531 24.710938 -17.417969 C 23.953125 -17.816406 22.957031 -18.015625 21.761719 -18.015625 C 20.527344 -18.015625 19.449219 -17.65625 18.535156 -17.019531 C 17.695312 -16.382812 17.019531 -15.625 16.460938 -14.667969 C 16.261719 -15.105469 16.023438 -15.503906 15.742188 -15.902344 C 15.265625 -16.539062 14.628906 -17.019531 13.910156 -17.417969 C 13.152344 -17.816406 12.15625 -18.015625 10.960938 -18.015625 C 9.726562 -18.015625 8.648438 -17.65625 7.734375 -17.019531 C 6.933594 -16.421875 6.296875 -15.703125 5.78125 -14.789062 L 5.78125 -17.617188 L 2.988281 -17.617188 L 2.988281 -0.078125 L 5.78125 -0.078125 L 5.78125 -9.046875 C 5.898438 -10.441406 6.257812 -11.679688 6.855469 -12.675781 C 7.253906 -13.390625 7.851562 -14.03125 8.570312 -14.507812 C 9.285156 -14.988281 10.042969 -15.226562 10.882812 -15.226562 C 11.679688 -15.226562 12.316406 -15.066406 12.714844 -14.828125 C 13.832031 -14.109375 14.429688 -12.835938 14.429688 -11.039062 L 14.429688 -0.078125 L 17.21875 -0.078125 L 17.21875 -11.039062 C 17.21875 -11.238281 17.179688 -11.480469 17.179688 -11.679688 C 17.296875 -12.035156 17.457031 -12.355469 17.65625 -12.675781 C 18.054688 -13.390625 18.652344 -14.03125 19.371094 -14.507812 C 20.089844 -14.988281 20.84375 -15.226562 21.683594 -15.226562 C 22.480469 -15.226562 23.117188 -15.066406 23.515625 -14.828125 C 24.632812 -14.109375 25.230469 -12.835938 25.230469 -11.039062 Z M 25.230469 -0.078125 "/></g></g></g><g fill="#ffffff" fill-opacity="1"><g transform="translate(254.462584, 69.961266)"><g><path d="M 20.128906 -9.167969 C 20.128906 -11.558594 19.171875 -13.632812 17.339844 -15.425781 C 15.542969 -17.140625 13.390625 -18.015625 10.960938 -18.015625 C 8.410156 -18.015625 6.257812 -17.097656 4.464844 -15.304688 C 2.671875 -13.511719 1.792969 -11.359375 1.792969 -8.847656 C 1.792969 -6.296875 2.671875 -4.144531 4.464844 -2.390625 C 5.300781 -1.554688 6.257812 -0.917969 7.375 -0.4375 C 8.488281 0.0390625 9.804688 0.277344 11.359375 0.277344 C 12.914062 0.277344 14.429688 -0.199219 15.941406 -1.15625 C 17.457031 -2.113281 18.574219 -3.46875 19.332031 -5.140625 L 16.140625 -5.140625 C 15.503906 -4.304688 14.746094 -3.667969 13.832031 -3.1875 C 12.914062 -2.710938 11.957031 -2.511719 10.960938 -2.511719 C 9.445312 -2.511719 8.089844 -2.988281 6.894531 -3.984375 C 5.699219 -4.941406 4.941406 -6.179688 4.703125 -7.691406 L 20.128906 -7.691406 Z M 17.179688 -10.085938 L 4.742188 -10.085938 C 4.902344 -10.800781 5.179688 -11.480469 5.582031 -12.117188 C 6.855469 -14.1875 8.648438 -15.226562 10.960938 -15.226562 C 12.4375 -15.226562 13.75 -14.746094 14.90625 -13.789062 C 16.101562 -12.792969 16.820312 -11.558594 17.179688 -10.085938 Z M 17.179688 -10.085938 "/></g></g></g><g fill="#ffffff" fill-opacity="1"><g transform="translate(276.183063, 69.961266)"><g><path d="M 11.996094 -13.910156 L 11.996094 -17.539062 C 11.4375 -17.777344 10.839844 -17.894531 10.242188 -17.894531 C 8.25 -17.894531 6.816406 -16.78125 5.898438 -14.628906 L 5.78125 -13.910156 L 5.78125 -17.539062 L 2.988281 -17.539062 L 2.988281 0 L 5.78125 0 L 5.78125 -8.769531 C 5.78125 -10.203125 6.097656 -11.480469 6.777344 -12.636719 C 7.09375 -13.234375 7.53125 -13.75 8.050781 -14.148438 C 8.570312 -14.546875 9.207031 -14.789062 9.925781 -14.789062 C 10.640625 -14.789062 11.320312 -14.46875 11.996094 -13.910156 Z M 11.996094 -13.910156 "/></g></g></g><g fill="#ffffff" fill-opacity="1"><g transform="translate(288.577682, 69.961266)"><g><path d="M 5.300781 0.398438 C 5.898438 0.398438 6.457031 0.199219 6.933594 -0.238281 C 7.414062 -0.675781 7.652344 -1.195312 7.652344 -1.832031 C 7.652344 -2.472656 7.414062 -2.988281 6.933594 -3.429688 C 6.457031 -3.867188 5.9375 -4.105469 5.300781 -4.105469 C 4.664062 -4.105469 4.105469 -3.867188 3.667969 -3.429688 C 3.1875 -2.949219 2.988281 -2.429688 2.988281 -1.832031 C 2.988281 -1.195312 3.1875 -0.675781 3.667969 -0.238281 C 4.144531 0.199219 4.664062 0.398438 5.300781 0.398438 Z M 5.300781 0.398438 "/></g></g></g><g fill="#ffffff" fill-opacity="1"><g transform="translate(299.218735, 69.961266)"><g><path d="M 19.371094 -11.238281 C 18.8125 -13.191406 17.738281 -14.789062 16.183594 -16.023438 C 14.546875 -17.257812 12.753906 -17.894531 10.761719 -17.894531 C 8.25 -17.894531 6.097656 -16.980469 4.382812 -15.1875 C 2.628906 -13.390625 1.792969 -11.238281 1.792969 -8.769531 C 1.792969 -6.257812 2.628906 -4.144531 4.382812 -2.3125 C 5.179688 -1.476562 6.097656 -0.796875 7.214844 -0.320312 C 8.289062 0.160156 9.40625 0.398438 10.523438 0.398438 C 11.636719 0.398438 12.636719 0.277344 13.511719 -0.0390625 C 16.300781 -1.035156 18.214844 -2.910156 19.210938 -5.738281 L 16.0625 -5.738281 C 15.503906 -4.742188 14.789062 -3.945312 13.832031 -3.386719 C 12.875 -2.789062 11.878906 -2.511719 10.761719 -2.511719 C 9.046875 -2.511719 7.613281 -3.109375 6.417969 -4.34375 C 5.222656 -5.582031 4.664062 -7.054688 4.664062 -8.769531 C 4.664062 -10.402344 5.222656 -11.878906 6.417969 -13.113281 C 6.976562 -13.671875 7.613281 -14.148438 8.371094 -14.46875 C 9.085938 -14.789062 10.003906 -14.988281 11.039062 -14.988281 C 12.078125 -14.988281 13.074219 -14.628906 14.109375 -13.949219 C 15.105469 -13.234375 15.863281 -12.355469 16.339844 -11.238281 Z M 19.371094 -11.238281 "/></g></g></g><g fill="#ffffff" fill-opacity="1"><g transform="translate(319.982734, 69.961266)"><g><path d="M 17.339844 -8.847656 C 17.339844 -7.09375 16.699219 -5.621094 15.464844 -4.382812 C 14.1875 -3.109375 12.714844 -2.511719 10.960938 -2.511719 C 9.207031 -2.511719 7.691406 -3.109375 6.457031 -4.382812 C 5.179688 -5.621094 4.582031 -7.09375 4.582031 -8.847656 C 4.582031 -10.601562 5.179688 -12.078125 6.457031 -13.351562 C 7.691406 -14.589844 9.207031 -15.226562 10.960938 -15.226562 C 12.714844 -15.226562 14.1875 -14.589844 15.464844 -13.351562 C 16.699219 -12.078125 17.339844 -10.601562 17.339844 -8.847656 Z M 20.128906 -8.847656 C 20.128906 -11.359375 19.210938 -13.511719 17.417969 -15.304688 C 15.625 -17.097656 13.472656 -18.015625 10.960938 -18.015625 C 8.410156 -18.015625 6.257812 -17.097656 4.464844 -15.304688 C 2.671875 -13.511719 1.792969 -11.359375 1.792969 -8.847656 C 1.792969 -6.296875 2.671875 -4.144531 4.464844 -2.390625 C 6.257812 -0.597656 8.449219 0.277344 10.960938 0.277344 C 13.433594 0.277344 15.625 -0.597656 17.417969 -2.390625 C 19.210938 -4.144531 20.128906 -6.296875 20.128906 -8.847656 Z M 20.128906 -8.847656 "/></g></g></g><g fill="#ffffff" fill-opacity="1"><g transform="translate(341.902508, 69.961266)"><g><path d="M 25.230469 -0.078125 L 28.019531 -0.078125 L 28.019531 -11.039062 C 28.019531 -12.992188 27.5 -14.628906 26.546875 -15.902344 C 26.066406 -16.539062 25.429688 -17.019531 24.710938 -17.417969 C 23.953125 -17.816406 22.957031 -18.015625 21.761719 -18.015625 C 20.527344 -18.015625 19.449219 -17.65625 18.535156 -17.019531 C 17.695312 -16.382812 17.019531 -15.625 16.460938 -14.667969 C 16.261719 -15.105469 16.023438 -15.503906 15.742188 -15.902344 C 15.265625 -16.539062 14.628906 -17.019531 13.910156 -17.417969 C 13.152344 -17.816406 12.15625 -18.015625 10.960938 -18.015625 C 9.726562 -18.015625 8.648438 -17.65625 7.734375 -17.019531 C 6.933594 -16.421875 6.296875 -15.703125 5.78125 -14.789062 L 5.78125 -17.617188 L 2.988281 -17.617188 L 2.988281 -0.078125 L 5.78125 -0.078125 L 5.78125 -9.046875 C 5.898438 -10.441406 6.257812 -11.679688 6.855469 -12.675781 C 7.253906 -13.390625 7.851562 -14.03125 8.570312 -14.507812 C 9.285156 -14.988281 10.042969 -15.226562 10.882812 -15.226562 C 11.679688 -15.226562 12.316406 -15.066406 12.714844 -14.828125 C 13.832031 -14.109375 14.429688 -12.835938 14.429688 -11.039062 L 14.429688 -0.078125 L 17.21875 -0.078125 L 17.21875 -11.039062 C 17.21875 -11.238281 17.179688 -11.480469 17.179688 -11.679688 C 17.296875 -12.035156 17.457031 -12.355469 17.65625 -12.675781 C 18.054688 -13.390625 18.652344 -14.03125 19.371094 -14.507812 C 20.089844 -14.988281 20.84375 -15.226562 21.683594 -15.226562 C 22.480469 -15.226562 23.117188 -15.066406 23.515625 -14.828125 C 24.632812 -14.109375 25.230469 -12.835938 25.230469 -11.039062 Z M 25.230469 -0.078125 "/></g></g></g></svg>