<svg xmlns="http://www.w3.org/2000/svg" xmlns:xlink="http://www.w3.org/1999/xlink" width="600px" height="150px" zoomAndPan="magnify" viewBox="0 0 375 112.499997" preserveAspectRatio="xMidYMid meet" version="1.0"><defs><g/><clipPath id="id1"><path d="M 41.007812 74.015625 L 54.300781 74.015625 L 54.300781 88.03125 L 41.007812 88.03125 Z M 41.007812 74.015625 " clip-rule="nonzero"/></clipPath><clipPath id="id2"><path d="M 28.160156 74.015625 L 41.449219 74.015625 L 41.449219 88.03125 L 28.160156 88.03125 Z M 28.160156 74.015625 " clip-rule="nonzero"/></clipPath><clipPath id="id3"><path d="M 28.160156 85.363281 L 54.300781 85.363281 L 54.300781 88.03125 L 28.160156 88.03125 Z M 28.160156 85.363281 " clip-rule="nonzero"/></clipPath><clipPath id="id4"><path d="M 4.269531 20.832031 L 78.191406 20.832031 L 78.191406 76 L 4.269531 76 Z M 4.269531 20.832031 " clip-rule="nonzero"/></clipPath><clipPath id="id5"><path d="M 4.269531 22 L 78.191406 22 L 78.191406 70 L 4.269531 70 Z M 4.269531 22 " clip-rule="nonzero"/></clipPath><clipPath id="id6"><path d="M 4.269531 20.832031 L 70 20.832031 L 70 76 L 4.269531 76 Z M 4.269531 20.832031 " clip-rule="nonzero"/></clipPath><clipPath id="id7"><path d="M 4.269531 22 L 68 22 L 68 70 L 4.269531 70 Z M 4.269531 22 " clip-rule="nonzero"/></clipPath><clipPath id="id8"><path d="M 34 20.832031 L 78.191406 20.832031 L 78.191406 76 L 34 76 Z M 34 20.832031 " clip-rule="nonzero"/></clipPath><clipPath id="id9"><path d="M 38 22 L 78.191406 22 L 78.191406 70 L 38 70 Z M 38 22 " clip-rule="nonzero"/></clipPath></defs><g clip-path="url(#id1)"><path fill="#aaacaa" d="M 48.949219 80.421875 L 48.949219 75.457031 C 48.949219 74.964844 49.019531 74.484375 49.152344 74.035156 L 41.0625 74.035156 L 41.0625 88.03125 L 54.277344 88.03125 L 54.277344 85.410156 L 53.917969 85.410156 C 51.171875 85.410156 48.949219 83.175781 48.949219 80.421875 " fill-opacity="1" fill-rule="nonzero"/></g><g clip-path="url(#id2)"><path fill="#aaacaa" d="M 33.511719 80.421875 L 33.511719 75.457031 C 33.511719 74.964844 33.441406 74.484375 33.304688 74.035156 L 41.398438 74.035156 L 41.398438 88.03125 L 28.183594 88.03125 L 28.183594 85.410156 L 28.542969 85.410156 C 31.289062 85.410156 33.511719 83.175781 33.511719 80.421875 " fill-opacity="1" fill-rule="nonzero"/></g><g clip-path="url(#id3)"><path fill="#c8c7c4" d="M 54.277344 88.03125 L 28.183594 88.03125 L 28.183594 85.410156 L 54.277344 85.410156 L 54.277344 88.03125 " fill-opacity="1" fill-rule="nonzero"/></g><g clip-path="url(#id4)"><path fill="#c8c7c4" d="M 78.152344 73.589844 C 78.152344 74.511719 77.40625 75.261719 76.484375 75.261719 L 5.976562 75.261719 C 5.054688 75.261719 4.308594 74.511719 4.308594 73.589844 L 4.308594 22.503906 C 4.308594 21.582031 5.054688 20.832031 5.976562 20.832031 L 76.484375 20.832031 C 77.40625 20.832031 78.152344 21.582031 78.152344 22.503906 L 78.152344 73.589844 " fill-opacity="1" fill-rule="nonzero"/></g><g clip-path="url(#id5)"><path fill="#3c4242" d="M 4.308594 69.460938 L 78.152344 69.460938 L 78.152344 22.617188 L 4.308594 22.617188 Z M 4.308594 69.460938 " fill-opacity="1" fill-rule="nonzero"/></g><path fill="#cdccca" d="M 6.585938 67.230469 L 75.878906 67.230469 L 75.878906 24.847656 L 6.585938 24.847656 Z M 6.585938 67.230469 " fill-opacity="1" fill-rule="nonzero"/><path fill="#4a4145" d="M 6.769531 67.394531 L 75.527344 67.394531 L 75.527344 29.195312 L 6.769531 29.195312 Z M 6.769531 67.394531 " fill-opacity="1" fill-rule="nonzero"/><path fill="#3f373a" d="M 6.769531 29.195312 L 76.054688 29.195312 L 76.054688 24.863281 L 6.769531 24.863281 Z M 6.769531 29.195312 " fill-opacity="1" fill-rule="nonzero"/><path fill="#e2e1df" d="M 67.527344 26.835938 C 67.527344 27.394531 67.078125 27.84375 66.523438 27.84375 C 65.972656 27.84375 65.523438 27.394531 65.523438 26.835938 C 65.523438 26.28125 65.972656 25.828125 66.523438 25.828125 C 67.078125 25.828125 67.527344 26.28125 67.527344 26.835938 " fill-opacity="1" fill-rule="nonzero"/><path fill="#e2e1df" d="M 70.613281 26.835938 C 70.613281 27.394531 70.164062 27.84375 69.613281 27.84375 C 69.058594 27.84375 68.609375 27.394531 68.609375 26.835938 C 68.609375 26.28125 69.058594 25.828125 69.613281 25.828125 C 70.164062 25.828125 70.613281 26.28125 70.613281 26.835938 " fill-opacity="1" fill-rule="nonzero"/><path fill="#db5e63" d="M 73.742188 26.835938 C 73.742188 27.394531 73.292969 27.84375 72.738281 27.84375 C 72.183594 27.84375 71.734375 27.394531 71.734375 26.835938 C 71.734375 26.28125 72.183594 25.828125 72.738281 25.828125 C 73.292969 25.828125 73.742188 26.28125 73.742188 26.835938 " fill-opacity="1" fill-rule="nonzero"/><path fill="#3f373a" d="M 6.769531 67.394531 L 8.746094 67.394531 L 8.746094 29.195312 L 6.769531 29.195312 Z M 6.769531 67.394531 " fill-opacity="1" fill-rule="nonzero"/><path fill="#e2e1df" d="M 15.800781 31.25 L 10.027344 31.25 L 10.027344 30.179688 L 15.800781 30.179688 L 15.800781 31.25 " fill-opacity="1" fill-rule="nonzero"/><path fill="#93c8d4" d="M 16.230469 34.152344 L 12.300781 34.152344 L 12.300781 33.078125 L 16.230469 33.078125 L 16.230469 34.152344 " fill-opacity="1" fill-rule="nonzero"/><path fill="#e2e1df" d="M 25.234375 34.152344 L 16.976562 34.152344 L 16.976562 33.078125 L 25.234375 33.078125 L 25.234375 34.152344 " fill-opacity="1" fill-rule="nonzero"/><path fill="#e2e1df" d="M 22.695312 37.050781 L 15.1875 37.050781 L 15.1875 35.976562 L 22.695312 35.976562 L 22.695312 37.050781 " fill-opacity="1" fill-rule="nonzero"/><path fill="#22333e" d="M 23.765625 37.050781 L 33.011719 37.050781 L 33.011719 35.976562 L 23.765625 35.976562 Z M 23.765625 37.050781 " fill-opacity="1" fill-rule="nonzero"/><path fill="#22333e" d="M 34.207031 37.050781 L 43.453125 37.050781 L 43.453125 35.976562 L 34.207031 35.976562 Z M 34.207031 37.050781 " fill-opacity="1" fill-rule="nonzero"/><path fill="#22333e" d="M 44.644531 37.050781 L 53.894531 37.050781 L 53.894531 35.976562 L 44.644531 35.976562 Z M 44.644531 37.050781 " fill-opacity="1" fill-rule="nonzero"/><path fill="#22333e" d="M 20.085938 39.628906 L 15.1875 39.628906 L 15.1875 38.554688 L 20.085938 38.554688 L 20.085938 39.628906 " fill-opacity="1" fill-rule="nonzero"/><path fill="#e2e1df" d="M 20.78125 39.628906 L 26.8125 39.628906 L 26.8125 38.554688 L 20.78125 38.554688 Z M 20.78125 39.628906 " fill-opacity="1" fill-rule="nonzero"/><path fill="#dcea45" d="M 27.730469 39.628906 L 33.761719 39.628906 L 33.761719 38.554688 L 27.730469 38.554688 Z M 27.730469 39.628906 " fill-opacity="1" fill-rule="nonzero"/><path fill="#e2e1df" d="M 15.1875 41.773438 L 21.953125 41.773438 L 21.953125 40.699219 L 15.1875 40.699219 Z M 15.1875 41.773438 " fill-opacity="1" fill-rule="nonzero"/><path fill="#e2e1df" d="M 15.1875 44.671875 L 20.78125 44.671875 L 20.78125 43.601562 L 15.1875 43.601562 Z M 15.1875 44.671875 " fill-opacity="1" fill-rule="nonzero"/><path fill="#db5e63" d="M 21.839844 44.671875 L 27.4375 44.671875 L 27.4375 43.601562 L 21.839844 43.601562 Z M 21.839844 44.671875 " fill-opacity="1" fill-rule="nonzero"/><path fill="#db5e63" d="M 28.449219 44.671875 L 34.042969 44.671875 L 34.042969 43.601562 L 28.449219 43.601562 Z M 28.449219 44.671875 " fill-opacity="1" fill-rule="nonzero"/><path fill="#e2e2e0" d="M 34.75 44.671875 L 40.34375 44.671875 L 40.34375 43.601562 L 34.75 43.601562 Z M 34.75 44.671875 " fill-opacity="1" fill-rule="nonzero"/><path fill="#93c8d4" d="M 12.28125 47.789062 L 16.230469 47.789062 L 16.230469 46.714844 L 12.28125 46.714844 Z M 12.28125 47.789062 " fill-opacity="1" fill-rule="nonzero"/><path fill="#e2e2e0" d="M 12.28125 54.011719 L 16.230469 54.011719 L 16.230469 52.941406 L 12.28125 52.941406 Z M 12.28125 54.011719 " fill-opacity="1" fill-rule="nonzero"/><path fill="#dcea45" d="M 14.773438 56.296875 L 18.726562 56.296875 L 18.726562 55.222656 L 14.773438 55.222656 Z M 14.773438 56.296875 " fill-opacity="1" fill-rule="nonzero"/><path fill="#e2e2e0" d="M 14.785156 58.335938 L 22.355469 58.335938 L 22.355469 57.261719 L 14.785156 57.261719 Z M 14.785156 58.335938 " fill-opacity="1" fill-rule="nonzero"/><path fill="#dcea45" d="M 29.976562 58.335938 L 37.546875 58.335938 L 37.546875 57.261719 L 29.976562 57.261719 Z M 29.976562 58.335938 " fill-opacity="1" fill-rule="nonzero"/><path fill="#db5e63" d="M 23.296875 58.335938 L 28.726562 58.335938 L 28.726562 57.261719 L 23.296875 57.261719 Z M 23.296875 58.335938 " fill-opacity="1" fill-rule="nonzero"/><path fill="#e2e1df" d="M 38.449219 58.335938 L 43.878906 58.335938 L 43.878906 57.261719 L 38.449219 57.261719 Z M 38.449219 58.335938 " fill-opacity="1" fill-rule="nonzero"/><path fill="#e2e2e0" d="M 14.785156 61.074219 L 22.355469 61.074219 L 22.355469 60.003906 L 14.785156 60.003906 Z M 14.785156 61.074219 " fill-opacity="1" fill-rule="nonzero"/><path fill="#e2e2e0" d="M 12.332031 63.539062 L 16.230469 63.539062 L 16.230469 62.464844 L 12.332031 62.464844 Z M 12.332031 63.539062 " fill-opacity="1" fill-rule="nonzero"/><path fill="#22333e" d="M 23.296875 61.074219 L 30.867188 61.074219 L 30.867188 60.003906 L 23.296875 60.003906 Z M 23.296875 61.074219 " fill-opacity="1" fill-rule="nonzero"/><path fill="#db5e63" d="M 32.113281 61.074219 L 36.300781 61.074219 L 36.300781 60.003906 L 32.113281 60.003906 Z M 32.113281 61.074219 " fill-opacity="1" fill-rule="nonzero"/><path fill="#22333e" d="M 22.917969 41.773438 L 31.246094 41.773438 L 31.246094 40.699219 L 22.917969 40.699219 Z M 22.917969 41.773438 " fill-opacity="1" fill-rule="nonzero"/><path fill="#dcea45" d="M 32.511719 41.773438 L 40.839844 41.773438 L 40.839844 40.699219 L 32.511719 40.699219 Z M 32.511719 41.773438 " fill-opacity="1" fill-rule="nonzero"/><path fill="#e2e2e0" d="M 41.761719 41.773438 L 50.09375 41.773438 L 50.09375 40.699219 L 41.761719 40.699219 Z M 41.761719 41.773438 " fill-opacity="1" fill-rule="nonzero"/><path fill="#584c53" d="M 66.28125 67.394531 L 76.109375 67.394531 L 76.109375 29.195312 L 66.28125 29.195312 Z M 66.28125 67.394531 " fill-opacity="1" fill-rule="nonzero"/><path fill="#3f373a" d="M 56.855469 33.921875 L 62.15625 33.921875 L 62.15625 29.542969 L 56.855469 29.542969 Z M 56.855469 33.921875 " fill-opacity="1" fill-rule="nonzero"/><path fill="#e2e1df" d="M 68.863281 30.308594 L 68.164062 30.308594 L 68.164062 30.179688 L 68.863281 30.179688 L 68.863281 30.308594 " fill-opacity="1" fill-rule="nonzero"/><path fill="#93c8d4" d="M 68.914062 30.660156 L 68.441406 30.660156 L 68.441406 30.53125 L 68.914062 30.53125 L 68.914062 30.660156 " fill-opacity="1" fill-rule="nonzero"/><path fill="#e2e1df" d="M 69.007812 30.660156 L 70.007812 30.660156 L 70.007812 30.53125 L 69.007812 30.53125 Z M 69.007812 30.660156 " fill-opacity="1" fill-rule="nonzero"/><path fill="#e2e1df" d="M 68.789062 31.011719 L 69.699219 31.011719 L 69.699219 30.882812 L 68.789062 30.882812 Z M 68.789062 31.011719 " fill-opacity="1" fill-rule="nonzero"/><path fill="#22333e" d="M 69.828125 31.011719 L 70.949219 31.011719 L 70.949219 30.882812 L 69.828125 30.882812 Z M 69.828125 31.011719 " fill-opacity="1" fill-rule="nonzero"/><path fill="#22333e" d="M 71.09375 31.011719 L 72.214844 31.011719 L 72.214844 30.882812 L 71.09375 30.882812 Z M 71.09375 31.011719 " fill-opacity="1" fill-rule="nonzero"/><path fill="#22333e" d="M 72.359375 31.011719 L 73.480469 31.011719 L 73.480469 30.882812 L 72.359375 30.882812 Z M 72.359375 31.011719 " fill-opacity="1" fill-rule="nonzero"/><path fill="#22333e" d="M 68.789062 31.324219 L 69.382812 31.324219 L 69.382812 31.195312 L 68.789062 31.195312 Z M 68.789062 31.324219 " fill-opacity="1" fill-rule="nonzero"/><path fill="#e2e1df" d="M 69.464844 31.324219 L 70.199219 31.324219 L 70.199219 31.195312 L 69.464844 31.195312 Z M 69.464844 31.324219 " fill-opacity="1" fill-rule="nonzero"/><path fill="#dcea45" d="M 70.308594 31.324219 L 71.039062 31.324219 L 71.039062 31.195312 L 70.308594 31.195312 Z M 70.308594 31.324219 " fill-opacity="1" fill-rule="nonzero"/><path fill="#e2e1df" d="M 68.789062 31.585938 L 69.609375 31.585938 L 69.609375 31.453125 L 68.789062 31.453125 Z M 68.789062 31.585938 " fill-opacity="1" fill-rule="nonzero"/><path fill="#e2e1df" d="M 68.789062 31.9375 L 69.464844 31.9375 L 69.464844 31.808594 L 68.789062 31.808594 Z M 68.789062 31.9375 " fill-opacity="1" fill-rule="nonzero"/><path fill="#db5e63" d="M 69.59375 31.9375 L 70.273438 31.9375 L 70.273438 31.808594 L 69.59375 31.808594 Z M 69.59375 31.9375 " fill-opacity="1" fill-rule="nonzero"/><path fill="#db5e63" d="M 70.394531 31.9375 L 71.074219 31.9375 L 71.074219 31.808594 L 70.394531 31.808594 Z M 70.394531 31.9375 " fill-opacity="1" fill-rule="nonzero"/><path fill="#e2e2e0" d="M 71.160156 31.9375 L 71.835938 31.9375 L 71.835938 31.808594 L 71.160156 31.808594 Z M 71.160156 31.9375 " fill-opacity="1" fill-rule="nonzero"/><path fill="#93c8d4" d="M 68.4375 32.3125 L 68.914062 32.3125 L 68.914062 32.183594 L 68.4375 32.183594 Z M 68.4375 32.3125 " fill-opacity="1" fill-rule="nonzero"/><path fill="#e2e2e0" d="M 68.4375 33.066406 L 68.914062 33.066406 L 68.914062 32.9375 L 68.4375 32.9375 Z M 68.4375 33.066406 " fill-opacity="1" fill-rule="nonzero"/><path fill="#dcea45" d="M 68.738281 33.34375 L 69.21875 33.34375 L 69.21875 33.214844 L 68.738281 33.214844 Z M 68.738281 33.34375 " fill-opacity="1" fill-rule="nonzero"/><path fill="#e2e2e0" d="M 68.738281 33.59375 L 69.65625 33.59375 L 69.65625 33.460938 L 68.738281 33.460938 Z M 68.738281 33.59375 " fill-opacity="1" fill-rule="nonzero"/><path fill="#dcea45" d="M 71.5 33.59375 L 70.578125 33.59375 L 70.578125 33.460938 L 71.5 33.460938 L 71.5 33.59375 " fill-opacity="1" fill-rule="nonzero"/><path fill="#db5e63" d="M 69.773438 33.59375 L 70.429688 33.59375 L 70.429688 33.460938 L 69.773438 33.460938 Z M 69.773438 33.59375 " fill-opacity="1" fill-rule="nonzero"/><path fill="#e2e1df" d="M 72.265625 33.59375 L 71.605469 33.59375 L 71.605469 33.460938 L 72.265625 33.460938 L 72.265625 33.59375 " fill-opacity="1" fill-rule="nonzero"/><path fill="#e2e2e0" d="M 68.738281 33.921875 L 69.65625 33.921875 L 69.65625 33.792969 L 68.738281 33.792969 Z M 68.738281 33.921875 " fill-opacity="1" fill-rule="nonzero"/><path fill="#e2e2e0" d="M 68.441406 34.222656 L 68.914062 34.222656 L 68.914062 34.09375 L 68.441406 34.09375 Z M 68.441406 34.222656 " fill-opacity="1" fill-rule="nonzero"/><path fill="#22333e" d="M 69.773438 33.921875 L 70.6875 33.921875 L 70.6875 33.792969 L 69.773438 33.792969 Z M 69.773438 33.921875 " fill-opacity="1" fill-rule="nonzero"/><path fill="#db5e63" d="M 71.347656 33.921875 L 70.839844 33.921875 L 70.839844 33.792969 L 71.347656 33.792969 L 71.347656 33.921875 " fill-opacity="1" fill-rule="nonzero"/><path fill="#22333e" d="M 69.726562 31.585938 L 70.734375 31.585938 L 70.734375 31.453125 L 69.726562 31.453125 Z M 69.726562 31.585938 " fill-opacity="1" fill-rule="nonzero"/><path fill="#dcea45" d="M 70.890625 31.585938 L 71.898438 31.585938 L 71.898438 31.453125 L 70.890625 31.453125 Z M 70.890625 31.585938 " fill-opacity="1" fill-rule="nonzero"/><path fill="#e2e2e0" d="M 73.019531 31.585938 L 72.007812 31.585938 L 72.007812 31.453125 L 73.019531 31.453125 L 73.019531 31.585938 " fill-opacity="1" fill-rule="nonzero"/><path fill="#9a9598" d="M 68.863281 35.769531 L 68.460938 35.769531 L 68.566406 35.636719 L 68.863281 35.636719 L 68.863281 35.769531 " fill-opacity="1" fill-rule="nonzero"/><path fill="#728a95" d="M 68.441406 36.121094 L 68.914062 36.121094 L 68.914062 35.988281 L 68.441406 35.988281 Z M 68.441406 36.121094 " fill-opacity="1" fill-rule="nonzero"/><path fill="#9a9598" d="M 69.007812 36.121094 L 70.007812 36.121094 L 70.007812 35.988281 L 69.007812 35.988281 Z M 69.007812 36.121094 " fill-opacity="1" fill-rule="nonzero"/><path fill="#9a9598" d="M 68.789062 36.46875 L 69.699219 36.46875 L 69.699219 36.339844 L 68.789062 36.339844 Z M 68.789062 36.46875 " fill-opacity="1" fill-rule="nonzero"/><path fill="#3a3f49" d="M 69.828125 36.46875 L 70.949219 36.46875 L 70.949219 36.339844 L 69.828125 36.339844 Z M 69.828125 36.46875 " fill-opacity="1" fill-rule="nonzero"/><path fill="#3a3f49" d="M 71.09375 36.46875 L 72.214844 36.46875 L 72.214844 36.339844 L 71.09375 36.339844 Z M 71.09375 36.46875 " fill-opacity="1" fill-rule="nonzero"/><path fill="#3a3f49" d="M 72.359375 36.46875 L 73.480469 36.46875 L 73.480469 36.339844 L 72.359375 36.339844 Z M 72.359375 36.46875 " fill-opacity="1" fill-rule="nonzero"/><path fill="#3a3f49" d="M 68.789062 36.785156 L 69.382812 36.785156 L 69.382812 36.652344 L 68.789062 36.652344 Z M 68.789062 36.785156 " fill-opacity="1" fill-rule="nonzero"/><path fill="#9a9598" d="M 69.464844 36.785156 L 70.199219 36.785156 L 70.199219 36.652344 L 69.464844 36.652344 Z M 69.464844 36.785156 " fill-opacity="1" fill-rule="nonzero"/><path fill="#999e4c" d="M 70.308594 36.785156 L 71.039062 36.785156 L 71.039062 36.652344 L 70.308594 36.652344 Z M 70.308594 36.785156 " fill-opacity="1" fill-rule="nonzero"/><path fill="#9a9598" d="M 68.789062 37.042969 L 69.609375 37.042969 L 69.609375 36.914062 L 68.789062 36.914062 Z M 68.789062 37.042969 " fill-opacity="1" fill-rule="nonzero"/><path fill="#9a9598" d="M 68.789062 37.394531 L 69.464844 37.394531 L 69.464844 37.261719 L 68.789062 37.261719 Z M 68.789062 37.394531 " fill-opacity="1" fill-rule="nonzero"/><path fill="#9a575b" d="M 69.59375 37.394531 L 70.273438 37.394531 L 70.273438 37.261719 L 69.59375 37.261719 Z M 69.59375 37.394531 " fill-opacity="1" fill-rule="nonzero"/><path fill="#9a575b" d="M 70.394531 37.394531 L 71.074219 37.394531 L 71.074219 37.261719 L 70.394531 37.261719 Z M 70.394531 37.394531 " fill-opacity="1" fill-rule="nonzero"/><path fill="#9a9798" d="M 71.160156 37.394531 L 71.835938 37.394531 L 71.835938 37.261719 L 71.160156 37.261719 Z M 71.160156 37.394531 " fill-opacity="1" fill-rule="nonzero"/><path fill="#728a95" d="M 68.914062 37.769531 L 68.4375 37.769531 L 68.4375 37.660156 L 68.863281 37.660156 L 68.863281 37.640625 L 68.914062 37.640625 L 68.914062 37.769531 " fill-opacity="1" fill-rule="nonzero"/><path fill="#9a9798" d="M 68.4375 38.523438 L 68.914062 38.523438 L 68.914062 38.398438 L 68.4375 38.398438 Z M 68.4375 38.523438 " fill-opacity="1" fill-rule="nonzero"/><path fill="#999e4c" d="M 69.21875 38.804688 L 68.738281 38.804688 L 68.738281 38.671875 L 69.21875 38.671875 L 69.21875 38.804688 " fill-opacity="1" fill-rule="nonzero"/><path fill="#9a9798" d="M 69.65625 39.050781 L 68.738281 39.050781 L 68.738281 38.921875 L 68.789062 38.921875 L 68.789062 38.933594 L 69.609375 38.933594 L 69.609375 38.921875 L 69.65625 38.921875 L 69.65625 39.050781 " fill-opacity="1" fill-rule="nonzero"/><path fill="#999e4c" d="M 71.5 39.050781 L 70.578125 39.050781 L 70.578125 38.933594 L 70.734375 38.933594 L 70.734375 38.921875 L 70.890625 38.921875 L 70.890625 38.933594 L 71.5 38.933594 L 71.5 39.050781 " fill-opacity="1" fill-rule="nonzero"/><path fill="#9a575b" d="M 69.773438 39.050781 L 70.429688 39.050781 L 70.429688 38.933594 L 69.773438 38.933594 Z M 69.773438 39.050781 " fill-opacity="1" fill-rule="nonzero"/><path fill="#9a9598" d="M 72.265625 39.050781 L 71.605469 39.050781 L 71.605469 38.933594 L 71.898438 38.933594 L 71.898438 38.921875 L 72.007812 38.921875 L 72.007812 38.933594 L 72.265625 38.933594 L 72.265625 39.050781 " fill-opacity="1" fill-rule="nonzero"/><path fill="#9a9798" d="M 69.65625 39.382812 L 68.738281 39.382812 L 68.738281 39.253906 L 68.789062 39.253906 L 68.789062 39.285156 L 69.464844 39.285156 L 69.464844 39.253906 L 69.59375 39.253906 L 69.59375 39.285156 L 69.65625 39.285156 L 69.65625 39.382812 " fill-opacity="1" fill-rule="nonzero"/><path fill="#9a9798" d="M 68.441406 39.679688 L 68.914062 39.679688 L 68.914062 39.664062 L 68.441406 39.664062 Z M 68.441406 39.679688 " fill-opacity="1" fill-rule="nonzero"/><path fill="#3a3f49" d="M 70.6875 39.382812 L 69.773438 39.382812 L 69.773438 39.285156 L 70.273438 39.285156 L 70.273438 39.253906 L 70.394531 39.253906 L 70.394531 39.285156 L 70.6875 39.285156 L 70.6875 39.382812 " fill-opacity="1" fill-rule="nonzero"/><path fill="#9a575b" d="M 71.347656 39.382812 L 70.839844 39.382812 L 70.839844 39.285156 L 71.074219 39.285156 L 71.074219 39.253906 L 71.160156 39.253906 L 71.160156 39.285156 L 71.347656 39.285156 L 71.347656 39.382812 " fill-opacity="1" fill-rule="nonzero"/><path fill="#3a3f49" d="M 69.726562 37.042969 L 70.734375 37.042969 L 70.734375 36.914062 L 69.726562 36.914062 Z M 69.726562 37.042969 " fill-opacity="1" fill-rule="nonzero"/><path fill="#999e4c" d="M 70.890625 37.042969 L 71.898438 37.042969 L 71.898438 36.914062 L 70.890625 36.914062 Z M 70.890625 37.042969 " fill-opacity="1" fill-rule="nonzero"/><path fill="#9a9798" d="M 72.007812 37.042969 L 73.019531 37.042969 L 73.019531 36.914062 L 72.007812 36.914062 Z M 72.007812 37.042969 " fill-opacity="1" fill-rule="nonzero"/><path fill="#9a9598" d="M 68.4375 37.660156 L 68.164062 37.660156 L 68.164062 37.53125 L 68.863281 37.53125 L 68.863281 37.640625 L 68.4375 37.640625 L 68.4375 37.660156 " fill-opacity="1" fill-rule="nonzero"/><path fill="#aab5b9" d="M 68.4375 37.660156 L 68.863281 37.660156 L 68.863281 37.640625 L 68.4375 37.640625 Z M 68.4375 37.660156 " fill-opacity="1" fill-rule="nonzero"/><path fill="#728a95" d="M 68.441406 38.011719 L 68.914062 38.011719 L 68.914062 37.878906 L 68.441406 37.878906 Z M 68.441406 38.011719 " fill-opacity="1" fill-rule="nonzero"/><path fill="#9a9598" d="M 69.007812 38.011719 L 70.007812 38.011719 L 70.007812 37.878906 L 69.007812 37.878906 Z M 69.007812 38.011719 " fill-opacity="1" fill-rule="nonzero"/><path fill="#9a9598" d="M 68.789062 38.359375 L 69.699219 38.359375 L 69.699219 38.230469 L 68.789062 38.230469 Z M 68.789062 38.359375 " fill-opacity="1" fill-rule="nonzero"/><path fill="#3a3f49" d="M 69.828125 38.359375 L 70.949219 38.359375 L 70.949219 38.230469 L 69.828125 38.230469 Z M 69.828125 38.359375 " fill-opacity="1" fill-rule="nonzero"/><path fill="#3a3f49" d="M 71.09375 38.359375 L 72.214844 38.359375 L 72.214844 38.230469 L 71.09375 38.230469 Z M 71.09375 38.359375 " fill-opacity="1" fill-rule="nonzero"/><path fill="#3a3f49" d="M 72.359375 38.359375 L 73.480469 38.359375 L 73.480469 38.230469 L 72.359375 38.230469 Z M 72.359375 38.359375 " fill-opacity="1" fill-rule="nonzero"/><path fill="#3a3f49" d="M 69.382812 38.671875 L 68.789062 38.671875 L 68.789062 38.542969 L 69.382812 38.542969 L 69.382812 38.671875 " fill-opacity="1" fill-rule="nonzero"/><path fill="#9a9598" d="M 69.464844 38.671875 L 70.199219 38.671875 L 70.199219 38.542969 L 69.464844 38.542969 Z M 69.464844 38.671875 " fill-opacity="1" fill-rule="nonzero"/><path fill="#999e4c" d="M 70.308594 38.671875 L 71.039062 38.671875 L 71.039062 38.542969 L 70.308594 38.542969 Z M 70.308594 38.671875 " fill-opacity="1" fill-rule="nonzero"/><path fill="#9a9598" d="M 68.789062 38.921875 L 69.609375 38.921875 L 69.609375 38.804688 L 68.789062 38.804688 Z M 68.789062 38.921875 " fill-opacity="1" fill-rule="nonzero"/><path fill="#bebbbb" d="M 68.789062 38.933594 L 69.609375 38.933594 L 69.609375 38.921875 L 68.789062 38.921875 Z M 68.789062 38.933594 " fill-opacity="1" fill-rule="nonzero"/><path fill="#9a9598" d="M 68.789062 39.253906 L 69.464844 39.253906 L 69.464844 39.15625 L 68.789062 39.15625 Z M 68.789062 39.253906 " fill-opacity="1" fill-rule="nonzero"/><path fill="#bebbbb" d="M 68.789062 39.285156 L 69.464844 39.285156 L 69.464844 39.253906 L 68.789062 39.253906 Z M 68.789062 39.285156 " fill-opacity="1" fill-rule="nonzero"/><path fill="#9a575b" d="M 69.773438 39.285156 L 69.65625 39.285156 L 69.65625 39.253906 L 69.59375 39.253906 L 69.59375 39.15625 L 70.273438 39.15625 L 70.273438 39.253906 L 69.773438 39.253906 L 69.773438 39.285156 " fill-opacity="1" fill-rule="nonzero"/><path fill="#bb7c7e" d="M 69.59375 39.285156 L 69.65625 39.285156 L 69.65625 39.253906 L 69.59375 39.253906 Z M 69.59375 39.285156 " fill-opacity="1" fill-rule="nonzero"/><path fill="#885156" d="M 69.773438 39.285156 L 70.273438 39.285156 L 70.273438 39.253906 L 69.773438 39.253906 Z M 69.773438 39.285156 " fill-opacity="1" fill-rule="nonzero"/><path fill="#9a575b" d="M 70.839844 39.285156 L 70.6875 39.285156 L 70.6875 39.253906 L 70.394531 39.253906 L 70.394531 39.15625 L 71.074219 39.15625 L 71.074219 39.253906 L 70.839844 39.253906 L 70.839844 39.285156 " fill-opacity="1" fill-rule="nonzero"/><path fill="#885156" d="M 70.394531 39.285156 L 70.6875 39.285156 L 70.6875 39.253906 L 70.394531 39.253906 Z M 70.394531 39.285156 " fill-opacity="1" fill-rule="nonzero"/><path fill="#bb5b60" d="M 70.839844 39.285156 L 71.074219 39.285156 L 71.074219 39.253906 L 70.839844 39.253906 Z M 70.839844 39.285156 " fill-opacity="1" fill-rule="nonzero"/><path fill="#9a9798" d="M 71.835938 39.285156 L 71.347656 39.285156 L 71.347656 39.253906 L 71.160156 39.253906 L 71.160156 39.15625 L 71.835938 39.15625 L 71.835938 39.285156 " fill-opacity="1" fill-rule="nonzero"/><path fill="#bc9c9c" d="M 71.160156 39.285156 L 71.347656 39.285156 L 71.347656 39.253906 L 71.160156 39.253906 Z M 71.160156 39.285156 " fill-opacity="1" fill-rule="nonzero"/><path fill="#728a95" d="M 68.914062 39.664062 L 68.914062 39.550781 L 68.441406 39.550781 L 68.441406 39.664062 L 68.4375 39.664062 L 68.4375 39.53125 L 68.914062 39.53125 L 68.914062 39.664062 " fill-opacity="1" fill-rule="nonzero"/><path fill="#96afb7" d="M 68.441406 39.664062 L 68.914062 39.664062 L 68.914062 39.550781 L 68.441406 39.550781 Z M 68.441406 39.664062 " fill-opacity="1" fill-rule="nonzero"/><path fill="#9a9798" d="M 68.4375 40.417969 L 68.914062 40.417969 L 68.914062 40.289062 L 68.4375 40.289062 Z M 68.4375 40.417969 " fill-opacity="1" fill-rule="nonzero"/><path fill="#999e4c" d="M 68.738281 40.691406 L 69.21875 40.691406 L 69.21875 40.566406 L 68.738281 40.566406 Z M 68.738281 40.691406 " fill-opacity="1" fill-rule="nonzero"/><path fill="#9a9798" d="M 68.738281 40.941406 L 69.65625 40.941406 L 69.65625 40.8125 L 68.738281 40.8125 Z M 68.738281 40.941406 " fill-opacity="1" fill-rule="nonzero"/><path fill="#999e4c" d="M 70.578125 40.941406 L 71.5 40.941406 L 71.5 40.8125 L 70.578125 40.8125 Z M 70.578125 40.941406 " fill-opacity="1" fill-rule="nonzero"/><path fill="#9a575b" d="M 69.773438 40.941406 L 70.429688 40.941406 L 70.429688 40.8125 L 69.773438 40.8125 Z M 69.773438 40.941406 " fill-opacity="1" fill-rule="nonzero"/><path fill="#9a9598" d="M 71.605469 40.941406 L 72.265625 40.941406 L 72.265625 40.8125 L 71.605469 40.8125 Z M 71.605469 40.941406 " fill-opacity="1" fill-rule="nonzero"/><path fill="#9a9798" d="M 68.738281 41.273438 L 69.65625 41.273438 L 69.65625 41.144531 L 68.738281 41.144531 Z M 68.738281 41.273438 " fill-opacity="1" fill-rule="nonzero"/><path fill="#9a9798" d="M 68.441406 41.570312 L 68.914062 41.570312 L 68.914062 41.441406 L 68.441406 41.441406 Z M 68.441406 41.570312 " fill-opacity="1" fill-rule="nonzero"/><path fill="#3a3f49" d="M 69.773438 41.273438 L 70.6875 41.273438 L 70.6875 41.144531 L 69.773438 41.144531 Z M 69.773438 41.273438 " fill-opacity="1" fill-rule="nonzero"/><path fill="#9a575b" d="M 70.839844 41.273438 L 71.347656 41.273438 L 71.347656 41.144531 L 70.839844 41.144531 Z M 70.839844 41.273438 " fill-opacity="1" fill-rule="nonzero"/><path fill="#3a3f49" d="M 70.578125 38.933594 L 70.429688 38.933594 L 70.429688 38.921875 L 69.773438 38.921875 L 69.773438 38.933594 L 69.726562 38.933594 L 69.726562 38.804688 L 70.734375 38.804688 L 70.734375 38.921875 L 70.578125 38.921875 L 70.578125 38.933594 " fill-opacity="1" fill-rule="nonzero"/><path fill="#576748" d="M 70.578125 38.933594 L 70.734375 38.933594 L 70.734375 38.921875 L 70.578125 38.921875 Z M 70.578125 38.933594 " fill-opacity="1" fill-rule="nonzero"/><path fill="#56454c" d="M 69.773438 38.933594 L 70.429688 38.933594 L 70.429688 38.921875 L 69.773438 38.921875 Z M 69.773438 38.933594 " fill-opacity="1" fill-rule="nonzero"/><path fill="#999e4c" d="M 71.605469 38.933594 L 71.5 38.933594 L 71.5 38.921875 L 70.890625 38.921875 L 70.890625 38.804688 L 71.898438 38.804688 L 71.898438 38.921875 L 71.605469 38.921875 L 71.605469 38.933594 " fill-opacity="1" fill-rule="nonzero"/><path fill="#bac447" d="M 70.890625 38.933594 L 71.5 38.933594 L 71.5 38.921875 L 70.890625 38.921875 Z M 70.890625 38.933594 " fill-opacity="1" fill-rule="nonzero"/><path fill="#bbc169" d="M 71.605469 38.933594 L 71.898438 38.933594 L 71.898438 38.921875 L 71.605469 38.921875 Z M 71.605469 38.933594 " fill-opacity="1" fill-rule="nonzero"/><path fill="#9a9798" d="M 73.019531 38.933594 L 72.265625 38.933594 L 72.265625 38.921875 L 72.007812 38.921875 L 72.007812 38.804688 L 73.019531 38.804688 L 73.019531 38.933594 " fill-opacity="1" fill-rule="nonzero"/><path fill="#bebbbb" d="M 72.007812 38.933594 L 72.265625 38.933594 L 72.265625 38.921875 L 72.007812 38.921875 Z M 72.007812 38.933594 " fill-opacity="1" fill-rule="nonzero"/><path fill="#9a9598" d="M 68.164062 42.027344 L 68.863281 42.027344 L 68.863281 41.898438 L 68.164062 41.898438 Z M 68.164062 42.027344 " fill-opacity="1" fill-rule="nonzero"/><path fill="#728a95" d="M 68.441406 42.378906 L 68.914062 42.378906 L 68.914062 42.25 L 68.441406 42.25 Z M 68.441406 42.378906 " fill-opacity="1" fill-rule="nonzero"/><path fill="#9a9598" d="M 69.007812 42.378906 L 70.007812 42.378906 L 70.007812 42.25 L 69.007812 42.25 Z M 69.007812 42.378906 " fill-opacity="1" fill-rule="nonzero"/><path fill="#9a9598" d="M 68.789062 42.730469 L 69.699219 42.730469 L 69.699219 42.601562 L 68.789062 42.601562 Z M 68.789062 42.730469 " fill-opacity="1" fill-rule="nonzero"/><path fill="#3a3f49" d="M 69.828125 42.730469 L 70.949219 42.730469 L 70.949219 42.601562 L 69.828125 42.601562 Z M 69.828125 42.730469 " fill-opacity="1" fill-rule="nonzero"/><path fill="#3a3f49" d="M 71.09375 42.730469 L 72.214844 42.730469 L 72.214844 42.601562 L 71.09375 42.601562 Z M 71.09375 42.730469 " fill-opacity="1" fill-rule="nonzero"/><path fill="#3a3f49" d="M 72.359375 42.730469 L 73.480469 42.730469 L 73.480469 42.601562 L 72.359375 42.601562 Z M 72.359375 42.730469 " fill-opacity="1" fill-rule="nonzero"/><path fill="#3a3f49" d="M 68.789062 43.042969 L 69.382812 43.042969 L 69.382812 42.914062 L 68.789062 42.914062 Z M 68.789062 43.042969 " fill-opacity="1" fill-rule="nonzero"/><path fill="#9a9598" d="M 69.464844 43.042969 L 70.199219 43.042969 L 70.199219 42.914062 L 69.464844 42.914062 Z M 69.464844 43.042969 " fill-opacity="1" fill-rule="nonzero"/><path fill="#999e4c" d="M 70.308594 43.042969 L 71.039062 43.042969 L 71.039062 42.914062 L 70.308594 42.914062 Z M 70.308594 43.042969 " fill-opacity="1" fill-rule="nonzero"/><path fill="#9a9598" d="M 68.789062 43.304688 L 69.609375 43.304688 L 69.609375 43.171875 L 68.789062 43.171875 Z M 68.789062 43.304688 " fill-opacity="1" fill-rule="nonzero"/><path fill="#9a9598" d="M 68.789062 43.65625 L 69.464844 43.65625 L 69.464844 43.523438 L 68.789062 43.523438 Z M 68.789062 43.65625 " fill-opacity="1" fill-rule="nonzero"/><path fill="#9a575b" d="M 69.59375 43.65625 L 70.273438 43.65625 L 70.273438 43.523438 L 69.59375 43.523438 Z M 69.59375 43.65625 " fill-opacity="1" fill-rule="nonzero"/><path fill="#9a575b" d="M 70.394531 43.65625 L 71.074219 43.65625 L 71.074219 43.523438 L 70.394531 43.523438 Z M 70.394531 43.65625 " fill-opacity="1" fill-rule="nonzero"/><path fill="#9a9798" d="M 71.160156 43.65625 L 71.835938 43.65625 L 71.835938 43.523438 L 71.160156 43.523438 Z M 71.160156 43.65625 " fill-opacity="1" fill-rule="nonzero"/><path fill="#728a95" d="M 68.914062 44.03125 L 68.4375 44.03125 L 68.4375 43.917969 L 68.863281 43.917969 L 68.863281 43.902344 L 68.914062 43.902344 L 68.914062 44.03125 " fill-opacity="1" fill-rule="nonzero"/><path fill="#9a9798" d="M 68.4375 44.785156 L 68.914062 44.785156 L 68.914062 44.65625 L 68.4375 44.65625 Z M 68.4375 44.785156 " fill-opacity="1" fill-rule="nonzero"/><path fill="#999e4c" d="M 69.21875 45.0625 L 68.738281 45.0625 L 68.738281 44.933594 L 69.21875 44.933594 L 69.21875 45.0625 " fill-opacity="1" fill-rule="nonzero"/><path fill="#9a9798" d="M 69.65625 45.308594 L 68.738281 45.308594 L 68.738281 45.179688 L 68.789062 45.179688 L 68.789062 45.195312 L 69.609375 45.195312 L 69.609375 45.179688 L 69.65625 45.179688 L 69.65625 45.308594 " fill-opacity="1" fill-rule="nonzero"/><path fill="#999e4c" d="M 71.5 45.308594 L 70.578125 45.308594 L 70.578125 45.195312 L 70.734375 45.195312 L 70.734375 45.179688 L 70.890625 45.179688 L 70.890625 45.195312 L 71.5 45.195312 L 71.5 45.308594 " fill-opacity="1" fill-rule="nonzero"/><path fill="#9a575b" d="M 69.773438 45.308594 L 70.429688 45.308594 L 70.429688 45.195312 L 69.773438 45.195312 Z M 69.773438 45.308594 " fill-opacity="1" fill-rule="nonzero"/><path fill="#9a9598" d="M 72.265625 45.308594 L 71.605469 45.308594 L 71.605469 45.195312 L 71.898438 45.195312 L 71.898438 45.179688 L 72.007812 45.179688 L 72.007812 45.195312 L 72.265625 45.195312 L 72.265625 45.308594 " fill-opacity="1" fill-rule="nonzero"/><path fill="#9a9798" d="M 69.65625 45.640625 L 68.738281 45.640625 L 68.738281 45.511719 L 68.789062 45.511719 L 68.789062 45.546875 L 69.464844 45.546875 L 69.464844 45.511719 L 69.59375 45.511719 L 69.59375 45.546875 L 69.65625 45.546875 L 69.65625 45.640625 " fill-opacity="1" fill-rule="nonzero"/><path fill="#9a9798" d="M 68.441406 45.941406 L 68.914062 45.941406 L 68.914062 45.921875 L 68.441406 45.921875 Z M 68.441406 45.941406 " fill-opacity="1" fill-rule="nonzero"/><path fill="#3a3f49" d="M 70.6875 45.640625 L 69.773438 45.640625 L 69.773438 45.546875 L 70.273438 45.546875 L 70.273438 45.511719 L 70.394531 45.511719 L 70.394531 45.546875 L 70.6875 45.546875 L 70.6875 45.640625 " fill-opacity="1" fill-rule="nonzero"/><path fill="#9a575b" d="M 71.347656 45.640625 L 70.839844 45.640625 L 70.839844 45.546875 L 71.074219 45.546875 L 71.074219 45.511719 L 71.160156 45.511719 L 71.160156 45.546875 L 71.347656 45.546875 L 71.347656 45.640625 " fill-opacity="1" fill-rule="nonzero"/><path fill="#3a3f49" d="M 69.726562 43.304688 L 70.734375 43.304688 L 70.734375 43.171875 L 69.726562 43.171875 Z M 69.726562 43.304688 " fill-opacity="1" fill-rule="nonzero"/><path fill="#999e4c" d="M 70.890625 43.304688 L 71.898438 43.304688 L 71.898438 43.171875 L 70.890625 43.171875 Z M 70.890625 43.304688 " fill-opacity="1" fill-rule="nonzero"/><path fill="#9a9798" d="M 72.007812 43.304688 L 73.019531 43.304688 L 73.019531 43.171875 L 72.007812 43.171875 Z M 72.007812 43.304688 " fill-opacity="1" fill-rule="nonzero"/><path fill="#9a9598" d="M 68.4375 43.917969 L 68.164062 43.917969 L 68.164062 43.789062 L 68.863281 43.789062 L 68.863281 43.902344 L 68.4375 43.902344 L 68.4375 43.917969 " fill-opacity="1" fill-rule="nonzero"/><path fill="#aab5b9" d="M 68.4375 43.917969 L 68.863281 43.917969 L 68.863281 43.902344 L 68.4375 43.902344 Z M 68.4375 43.917969 " fill-opacity="1" fill-rule="nonzero"/><path fill="#728a95" d="M 68.441406 44.269531 L 68.914062 44.269531 L 68.914062 44.140625 L 68.441406 44.140625 Z M 68.441406 44.269531 " fill-opacity="1" fill-rule="nonzero"/><path fill="#9a9598" d="M 69.007812 44.269531 L 70.007812 44.269531 L 70.007812 44.140625 L 69.007812 44.140625 Z M 69.007812 44.269531 " fill-opacity="1" fill-rule="nonzero"/><path fill="#9a9598" d="M 68.789062 44.621094 L 69.699219 44.621094 L 69.699219 44.492188 L 68.789062 44.492188 Z M 68.789062 44.621094 " fill-opacity="1" fill-rule="nonzero"/><path fill="#3a3f49" d="M 69.828125 44.621094 L 70.949219 44.621094 L 70.949219 44.492188 L 69.828125 44.492188 Z M 69.828125 44.621094 " fill-opacity="1" fill-rule="nonzero"/><path fill="#3a3f49" d="M 71.09375 44.621094 L 72.214844 44.621094 L 72.214844 44.492188 L 71.09375 44.492188 Z M 71.09375 44.621094 " fill-opacity="1" fill-rule="nonzero"/><path fill="#3a3f49" d="M 72.359375 44.621094 L 73.480469 44.621094 L 73.480469 44.492188 L 72.359375 44.492188 Z M 72.359375 44.621094 " fill-opacity="1" fill-rule="nonzero"/><path fill="#3a3f49" d="M 69.382812 44.933594 L 68.789062 44.933594 L 68.789062 44.804688 L 69.382812 44.804688 L 69.382812 44.933594 " fill-opacity="1" fill-rule="nonzero"/><path fill="#9a9598" d="M 69.464844 44.933594 L 70.199219 44.933594 L 70.199219 44.804688 L 69.464844 44.804688 Z M 69.464844 44.933594 " fill-opacity="1" fill-rule="nonzero"/><path fill="#999e4c" d="M 70.308594 44.933594 L 71.039062 44.933594 L 71.039062 44.804688 L 70.308594 44.804688 Z M 70.308594 44.933594 " fill-opacity="1" fill-rule="nonzero"/><path fill="#9a9598" d="M 68.789062 45.179688 L 69.609375 45.179688 L 69.609375 45.066406 L 68.789062 45.066406 Z M 68.789062 45.179688 " fill-opacity="1" fill-rule="nonzero"/><path fill="#bebbbb" d="M 68.789062 45.195312 L 69.609375 45.195312 L 69.609375 45.179688 L 68.789062 45.179688 Z M 68.789062 45.195312 " fill-opacity="1" fill-rule="nonzero"/><path fill="#9a9598" d="M 68.789062 45.511719 L 69.464844 45.511719 L 69.464844 45.417969 L 68.789062 45.417969 Z M 68.789062 45.511719 " fill-opacity="1" fill-rule="nonzero"/><path fill="#bebbbb" d="M 68.789062 45.546875 L 69.464844 45.546875 L 69.464844 45.511719 L 68.789062 45.511719 Z M 68.789062 45.546875 " fill-opacity="1" fill-rule="nonzero"/><path fill="#9a575b" d="M 69.773438 45.546875 L 69.65625 45.546875 L 69.65625 45.511719 L 69.59375 45.511719 L 69.59375 45.417969 L 70.273438 45.417969 L 70.273438 45.511719 L 69.773438 45.511719 L 69.773438 45.546875 " fill-opacity="1" fill-rule="nonzero"/><path fill="#bb7c7e" d="M 69.59375 45.546875 L 69.65625 45.546875 L 69.65625 45.511719 L 69.59375 45.511719 Z M 69.59375 45.546875 " fill-opacity="1" fill-rule="nonzero"/><path fill="#885156" d="M 69.773438 45.546875 L 70.273438 45.546875 L 70.273438 45.511719 L 69.773438 45.511719 Z M 69.773438 45.546875 " fill-opacity="1" fill-rule="nonzero"/><path fill="#9a575b" d="M 70.839844 45.546875 L 70.6875 45.546875 L 70.6875 45.511719 L 70.394531 45.511719 L 70.394531 45.417969 L 71.074219 45.417969 L 71.074219 45.511719 L 70.839844 45.511719 L 70.839844 45.546875 " fill-opacity="1" fill-rule="nonzero"/><path fill="#885156" d="M 70.394531 45.546875 L 70.6875 45.546875 L 70.6875 45.511719 L 70.394531 45.511719 Z M 70.394531 45.546875 " fill-opacity="1" fill-rule="nonzero"/><path fill="#bb5b60" d="M 70.839844 45.546875 L 71.074219 45.546875 L 71.074219 45.511719 L 70.839844 45.511719 Z M 70.839844 45.546875 " fill-opacity="1" fill-rule="nonzero"/><path fill="#9a9798" d="M 71.835938 45.546875 L 71.347656 45.546875 L 71.347656 45.511719 L 71.160156 45.511719 L 71.160156 45.417969 L 71.835938 45.417969 L 71.835938 45.546875 " fill-opacity="1" fill-rule="nonzero"/><path fill="#bc9c9c" d="M 71.160156 45.546875 L 71.347656 45.546875 L 71.347656 45.511719 L 71.160156 45.511719 Z M 71.160156 45.546875 " fill-opacity="1" fill-rule="nonzero"/><path fill="#728a95" d="M 68.914062 45.921875 L 68.914062 45.8125 L 68.441406 45.8125 L 68.441406 45.921875 L 68.4375 45.921875 L 68.4375 45.792969 L 68.914062 45.792969 L 68.914062 45.921875 " fill-opacity="1" fill-rule="nonzero"/><path fill="#96afb7" d="M 68.441406 45.921875 L 68.914062 45.921875 L 68.914062 45.8125 L 68.441406 45.8125 Z M 68.441406 45.921875 " fill-opacity="1" fill-rule="nonzero"/><path fill="#9a9798" d="M 68.4375 46.679688 L 68.914062 46.679688 L 68.914062 46.546875 L 68.4375 46.546875 Z M 68.4375 46.679688 " fill-opacity="1" fill-rule="nonzero"/><path fill="#999e4c" d="M 68.738281 46.953125 L 69.21875 46.953125 L 69.21875 46.824219 L 68.738281 46.824219 Z M 68.738281 46.953125 " fill-opacity="1" fill-rule="nonzero"/><path fill="#9a9798" d="M 68.738281 47.199219 L 69.65625 47.199219 L 69.65625 47.070312 L 68.738281 47.070312 Z M 68.738281 47.199219 " fill-opacity="1" fill-rule="nonzero"/><path fill="#999e4c" d="M 70.578125 47.199219 L 71.5 47.199219 L 71.5 47.070312 L 70.578125 47.070312 Z M 70.578125 47.199219 " fill-opacity="1" fill-rule="nonzero"/><path fill="#9a575b" d="M 69.773438 47.199219 L 70.429688 47.199219 L 70.429688 47.070312 L 69.773438 47.070312 Z M 69.773438 47.199219 " fill-opacity="1" fill-rule="nonzero"/><path fill="#9a9598" d="M 71.605469 47.199219 L 72.265625 47.199219 L 72.265625 47.070312 L 71.605469 47.070312 Z M 71.605469 47.199219 " fill-opacity="1" fill-rule="nonzero"/><path fill="#9a9798" d="M 68.738281 47.53125 L 69.65625 47.53125 L 69.65625 47.402344 L 68.738281 47.402344 Z M 68.738281 47.53125 " fill-opacity="1" fill-rule="nonzero"/><path fill="#9a9798" d="M 68.441406 47.832031 L 68.914062 47.832031 L 68.914062 47.703125 L 68.441406 47.703125 Z M 68.441406 47.832031 " fill-opacity="1" fill-rule="nonzero"/><path fill="#3a3f49" d="M 69.773438 47.53125 L 70.6875 47.53125 L 70.6875 47.402344 L 69.773438 47.402344 Z M 69.773438 47.53125 " fill-opacity="1" fill-rule="nonzero"/><path fill="#9a575b" d="M 70.839844 47.53125 L 71.347656 47.53125 L 71.347656 47.402344 L 70.839844 47.402344 Z M 70.839844 47.53125 " fill-opacity="1" fill-rule="nonzero"/><path fill="#3a3f49" d="M 70.578125 45.195312 L 70.429688 45.195312 L 70.429688 45.179688 L 69.773438 45.179688 L 69.773438 45.195312 L 69.726562 45.195312 L 69.726562 45.066406 L 70.734375 45.066406 L 70.734375 45.179688 L 70.578125 45.179688 L 70.578125 45.195312 " fill-opacity="1" fill-rule="nonzero"/><path fill="#576748" d="M 70.578125 45.195312 L 70.734375 45.195312 L 70.734375 45.179688 L 70.578125 45.179688 Z M 70.578125 45.195312 " fill-opacity="1" fill-rule="nonzero"/><path fill="#56454c" d="M 69.773438 45.195312 L 70.429688 45.195312 L 70.429688 45.179688 L 69.773438 45.179688 Z M 69.773438 45.195312 " fill-opacity="1" fill-rule="nonzero"/><path fill="#999e4c" d="M 71.605469 45.195312 L 71.5 45.195312 L 71.5 45.179688 L 70.890625 45.179688 L 70.890625 45.066406 L 71.898438 45.066406 L 71.898438 45.179688 L 71.605469 45.179688 L 71.605469 45.195312 " fill-opacity="1" fill-rule="nonzero"/><path fill="#bac447" d="M 70.890625 45.195312 L 71.5 45.195312 L 71.5 45.179688 L 70.890625 45.179688 Z M 70.890625 45.195312 " fill-opacity="1" fill-rule="nonzero"/><path fill="#bbc169" d="M 71.605469 45.195312 L 71.898438 45.195312 L 71.898438 45.179688 L 71.605469 45.179688 Z M 71.605469 45.195312 " fill-opacity="1" fill-rule="nonzero"/><path fill="#9a9798" d="M 73.019531 45.195312 L 72.265625 45.195312 L 72.265625 45.179688 L 72.007812 45.179688 L 72.007812 45.066406 L 73.019531 45.066406 L 73.019531 45.195312 " fill-opacity="1" fill-rule="nonzero"/><path fill="#bebbbb" d="M 72.007812 45.195312 L 72.265625 45.195312 L 72.265625 45.179688 L 72.007812 45.179688 Z M 72.007812 45.195312 " fill-opacity="1" fill-rule="nonzero"/><path fill="#9a9598" d="M 68.164062 48.289062 L 68.863281 48.289062 L 68.863281 48.160156 L 68.164062 48.160156 Z M 68.164062 48.289062 " fill-opacity="1" fill-rule="nonzero"/><path fill="#728a95" d="M 68.441406 48.640625 L 68.914062 48.640625 L 68.914062 48.511719 L 68.441406 48.511719 Z M 68.441406 48.640625 " fill-opacity="1" fill-rule="nonzero"/><path fill="#9a9598" d="M 69.007812 48.640625 L 70.007812 48.640625 L 70.007812 48.511719 L 69.007812 48.511719 Z M 69.007812 48.640625 " fill-opacity="1" fill-rule="nonzero"/><path fill="#9a9598" d="M 68.789062 48.992188 L 69.699219 48.992188 L 69.699219 48.863281 L 68.789062 48.863281 Z M 68.789062 48.992188 " fill-opacity="1" fill-rule="nonzero"/><path fill="#3a3f49" d="M 69.828125 48.992188 L 70.949219 48.992188 L 70.949219 48.863281 L 69.828125 48.863281 Z M 69.828125 48.992188 " fill-opacity="1" fill-rule="nonzero"/><path fill="#3a3f49" d="M 71.09375 48.992188 L 72.214844 48.992188 L 72.214844 48.863281 L 71.09375 48.863281 Z M 71.09375 48.992188 " fill-opacity="1" fill-rule="nonzero"/><path fill="#3a3f49" d="M 72.359375 48.992188 L 73.480469 48.992188 L 73.480469 48.863281 L 72.359375 48.863281 Z M 72.359375 48.992188 " fill-opacity="1" fill-rule="nonzero"/><path fill="#3a3f49" d="M 68.789062 49.304688 L 69.382812 49.304688 L 69.382812 49.175781 L 68.789062 49.175781 Z M 68.789062 49.304688 " fill-opacity="1" fill-rule="nonzero"/><path fill="#9a9598" d="M 69.464844 49.304688 L 70.199219 49.304688 L 70.199219 49.175781 L 69.464844 49.175781 Z M 69.464844 49.304688 " fill-opacity="1" fill-rule="nonzero"/><path fill="#999e4c" d="M 70.308594 49.304688 L 71.039062 49.304688 L 71.039062 49.175781 L 70.308594 49.175781 Z M 70.308594 49.304688 " fill-opacity="1" fill-rule="nonzero"/><path fill="#9a9598" d="M 68.789062 49.566406 L 69.609375 49.566406 L 69.609375 49.433594 L 68.789062 49.433594 Z M 68.789062 49.566406 " fill-opacity="1" fill-rule="nonzero"/><path fill="#9a9598" d="M 68.789062 49.917969 L 69.464844 49.917969 L 69.464844 49.785156 L 68.789062 49.785156 Z M 68.789062 49.917969 " fill-opacity="1" fill-rule="nonzero"/><path fill="#9a575b" d="M 69.59375 49.917969 L 70.273438 49.917969 L 70.273438 49.785156 L 69.59375 49.785156 Z M 69.59375 49.917969 " fill-opacity="1" fill-rule="nonzero"/><path fill="#9a575b" d="M 70.394531 49.917969 L 71.074219 49.917969 L 71.074219 49.785156 L 70.394531 49.785156 Z M 70.394531 49.917969 " fill-opacity="1" fill-rule="nonzero"/><path fill="#9a9798" d="M 71.160156 49.917969 L 71.835938 49.917969 L 71.835938 49.785156 L 71.160156 49.785156 Z M 71.160156 49.917969 " fill-opacity="1" fill-rule="nonzero"/><path fill="#728a95" d="M 68.914062 50.292969 L 68.4375 50.292969 L 68.4375 50.179688 L 68.863281 50.179688 L 68.863281 50.164062 L 68.914062 50.164062 L 68.914062 50.292969 " fill-opacity="1" fill-rule="nonzero"/><path fill="#9a9798" d="M 68.4375 51.046875 L 68.914062 51.046875 L 68.914062 50.917969 L 68.4375 50.917969 Z M 68.4375 51.046875 " fill-opacity="1" fill-rule="nonzero"/><path fill="#999e4c" d="M 69.21875 51.324219 L 68.738281 51.324219 L 68.738281 51.195312 L 69.21875 51.195312 L 69.21875 51.324219 " fill-opacity="1" fill-rule="nonzero"/><path fill="#9a9798" d="M 69.65625 51.570312 L 68.738281 51.570312 L 68.738281 51.441406 L 68.789062 51.441406 L 68.789062 51.457031 L 69.609375 51.457031 L 69.609375 51.441406 L 69.65625 51.441406 L 69.65625 51.570312 " fill-opacity="1" fill-rule="nonzero"/><path fill="#999e4c" d="M 71.5 51.570312 L 70.578125 51.570312 L 70.578125 51.457031 L 70.734375 51.457031 L 70.734375 51.441406 L 70.890625 51.441406 L 70.890625 51.457031 L 71.5 51.457031 L 71.5 51.570312 " fill-opacity="1" fill-rule="nonzero"/><path fill="#9a575b" d="M 69.773438 51.570312 L 70.429688 51.570312 L 70.429688 51.457031 L 69.773438 51.457031 Z M 69.773438 51.570312 " fill-opacity="1" fill-rule="nonzero"/><path fill="#9a9598" d="M 72.265625 51.570312 L 71.605469 51.570312 L 71.605469 51.457031 L 71.898438 51.457031 L 71.898438 51.441406 L 72.007812 51.441406 L 72.007812 51.457031 L 72.265625 51.457031 L 72.265625 51.570312 " fill-opacity="1" fill-rule="nonzero"/><path fill="#9a9798" d="M 69.65625 51.902344 L 68.738281 51.902344 L 68.738281 51.773438 L 68.789062 51.773438 L 68.789062 51.808594 L 69.464844 51.808594 L 69.464844 51.773438 L 69.59375 51.773438 L 69.59375 51.808594 L 69.65625 51.808594 L 69.65625 51.902344 " fill-opacity="1" fill-rule="nonzero"/><path fill="#9a9798" d="M 68.441406 52.203125 L 68.914062 52.203125 L 68.914062 52.183594 L 68.441406 52.183594 Z M 68.441406 52.203125 " fill-opacity="1" fill-rule="nonzero"/><path fill="#3a3f49" d="M 70.6875 51.902344 L 69.773438 51.902344 L 69.773438 51.808594 L 70.273438 51.808594 L 70.273438 51.773438 L 70.394531 51.773438 L 70.394531 51.808594 L 70.6875 51.808594 L 70.6875 51.902344 " fill-opacity="1" fill-rule="nonzero"/><path fill="#9a575b" d="M 71.347656 51.902344 L 70.839844 51.902344 L 70.839844 51.808594 L 71.074219 51.808594 L 71.074219 51.773438 L 71.160156 51.773438 L 71.160156 51.808594 L 71.347656 51.808594 L 71.347656 51.902344 " fill-opacity="1" fill-rule="nonzero"/><path fill="#3a3f49" d="M 69.726562 49.566406 L 70.734375 49.566406 L 70.734375 49.433594 L 69.726562 49.433594 Z M 69.726562 49.566406 " fill-opacity="1" fill-rule="nonzero"/><path fill="#999e4c" d="M 70.890625 49.566406 L 71.898438 49.566406 L 71.898438 49.433594 L 70.890625 49.433594 Z M 70.890625 49.566406 " fill-opacity="1" fill-rule="nonzero"/><path fill="#9a9798" d="M 72.007812 49.566406 L 73.019531 49.566406 L 73.019531 49.433594 L 72.007812 49.433594 Z M 72.007812 49.566406 " fill-opacity="1" fill-rule="nonzero"/><path fill="#9a9598" d="M 68.4375 50.179688 L 68.164062 50.179688 L 68.164062 50.050781 L 68.863281 50.050781 L 68.863281 50.164062 L 68.4375 50.164062 L 68.4375 50.179688 " fill-opacity="1" fill-rule="nonzero"/><path fill="#aab5b9" d="M 68.4375 50.179688 L 68.863281 50.179688 L 68.863281 50.164062 L 68.4375 50.164062 Z M 68.4375 50.179688 " fill-opacity="1" fill-rule="nonzero"/><path fill="#728a95" d="M 68.441406 50.53125 L 68.914062 50.53125 L 68.914062 50.402344 L 68.441406 50.402344 Z M 68.441406 50.53125 " fill-opacity="1" fill-rule="nonzero"/><path fill="#9a9598" d="M 69.007812 50.53125 L 70.007812 50.53125 L 70.007812 50.402344 L 69.007812 50.402344 Z M 69.007812 50.53125 " fill-opacity="1" fill-rule="nonzero"/><path fill="#9a9598" d="M 68.789062 50.882812 L 69.699219 50.882812 L 69.699219 50.753906 L 68.789062 50.753906 Z M 68.789062 50.882812 " fill-opacity="1" fill-rule="nonzero"/><path fill="#3a3f49" d="M 69.828125 50.882812 L 70.949219 50.882812 L 70.949219 50.753906 L 69.828125 50.753906 Z M 69.828125 50.882812 " fill-opacity="1" fill-rule="nonzero"/><path fill="#3a3f49" d="M 71.09375 50.882812 L 72.214844 50.882812 L 72.214844 50.753906 L 71.09375 50.753906 Z M 71.09375 50.882812 " fill-opacity="1" fill-rule="nonzero"/><path fill="#3a3f49" d="M 72.359375 50.882812 L 73.480469 50.882812 L 73.480469 50.753906 L 72.359375 50.753906 Z M 72.359375 50.882812 " fill-opacity="1" fill-rule="nonzero"/><path fill="#3a3f49" d="M 69.382812 51.195312 L 68.789062 51.195312 L 68.789062 51.066406 L 69.382812 51.066406 L 69.382812 51.195312 " fill-opacity="1" fill-rule="nonzero"/><path fill="#9a9598" d="M 69.464844 51.195312 L 70.199219 51.195312 L 70.199219 51.066406 L 69.464844 51.066406 Z M 69.464844 51.195312 " fill-opacity="1" fill-rule="nonzero"/><path fill="#999e4c" d="M 70.308594 51.195312 L 71.039062 51.195312 L 71.039062 51.066406 L 70.308594 51.066406 Z M 70.308594 51.195312 " fill-opacity="1" fill-rule="nonzero"/><path fill="#9a9598" d="M 68.789062 51.441406 L 69.609375 51.441406 L 69.609375 51.324219 L 68.789062 51.324219 Z M 68.789062 51.441406 " fill-opacity="1" fill-rule="nonzero"/><path fill="#bebbbb" d="M 68.789062 51.457031 L 69.609375 51.457031 L 69.609375 51.441406 L 68.789062 51.441406 Z M 68.789062 51.457031 " fill-opacity="1" fill-rule="nonzero"/><path fill="#9a9598" d="M 68.789062 51.773438 L 69.464844 51.773438 L 69.464844 51.675781 L 68.789062 51.675781 Z M 68.789062 51.773438 " fill-opacity="1" fill-rule="nonzero"/><path fill="#bebbbb" d="M 68.789062 51.808594 L 69.464844 51.808594 L 69.464844 51.773438 L 68.789062 51.773438 Z M 68.789062 51.808594 " fill-opacity="1" fill-rule="nonzero"/><path fill="#9a575b" d="M 69.773438 51.808594 L 69.65625 51.808594 L 69.65625 51.773438 L 69.59375 51.773438 L 69.59375 51.675781 L 70.273438 51.675781 L 70.273438 51.773438 L 69.773438 51.773438 L 69.773438 51.808594 " fill-opacity="1" fill-rule="nonzero"/><path fill="#bb7c7e" d="M 69.59375 51.808594 L 69.65625 51.808594 L 69.65625 51.773438 L 69.59375 51.773438 Z M 69.59375 51.808594 " fill-opacity="1" fill-rule="nonzero"/><path fill="#885156" d="M 69.773438 51.808594 L 70.273438 51.808594 L 70.273438 51.773438 L 69.773438 51.773438 Z M 69.773438 51.808594 " fill-opacity="1" fill-rule="nonzero"/><path fill="#9a575b" d="M 70.839844 51.808594 L 70.6875 51.808594 L 70.6875 51.773438 L 70.394531 51.773438 L 70.394531 51.675781 L 71.074219 51.675781 L 71.074219 51.773438 L 70.839844 51.773438 L 70.839844 51.808594 " fill-opacity="1" fill-rule="nonzero"/><path fill="#885156" d="M 70.394531 51.808594 L 70.6875 51.808594 L 70.6875 51.773438 L 70.394531 51.773438 Z M 70.394531 51.808594 " fill-opacity="1" fill-rule="nonzero"/><path fill="#bb5b60" d="M 70.839844 51.808594 L 71.074219 51.808594 L 71.074219 51.773438 L 70.839844 51.773438 Z M 70.839844 51.808594 " fill-opacity="1" fill-rule="nonzero"/><path fill="#9a9798" d="M 71.835938 51.808594 L 71.347656 51.808594 L 71.347656 51.773438 L 71.160156 51.773438 L 71.160156 51.675781 L 71.835938 51.675781 L 71.835938 51.808594 " fill-opacity="1" fill-rule="nonzero"/><path fill="#bc9c9c" d="M 71.160156 51.808594 L 71.347656 51.808594 L 71.347656 51.773438 L 71.160156 51.773438 Z M 71.160156 51.808594 " fill-opacity="1" fill-rule="nonzero"/><path fill="#728a95" d="M 68.914062 52.183594 L 68.914062 52.070312 L 68.441406 52.070312 L 68.441406 52.183594 L 68.4375 52.183594 L 68.4375 52.054688 L 68.914062 52.054688 L 68.914062 52.183594 " fill-opacity="1" fill-rule="nonzero"/><path fill="#96afb7" d="M 68.441406 52.183594 L 68.914062 52.183594 L 68.914062 52.070312 L 68.441406 52.070312 Z M 68.441406 52.183594 " fill-opacity="1" fill-rule="nonzero"/><path fill="#9a9798" d="M 68.4375 52.9375 L 68.914062 52.9375 L 68.914062 52.808594 L 68.4375 52.808594 Z M 68.4375 52.9375 " fill-opacity="1" fill-rule="nonzero"/><path fill="#999e4c" d="M 68.738281 53.214844 L 69.21875 53.214844 L 69.21875 53.085938 L 68.738281 53.085938 Z M 68.738281 53.214844 " fill-opacity="1" fill-rule="nonzero"/><path fill="#9a9798" d="M 68.738281 53.464844 L 69.65625 53.464844 L 69.65625 53.332031 L 68.738281 53.332031 Z M 68.738281 53.464844 " fill-opacity="1" fill-rule="nonzero"/><path fill="#999e4c" d="M 70.578125 53.464844 L 71.5 53.464844 L 71.5 53.332031 L 70.578125 53.332031 Z M 70.578125 53.464844 " fill-opacity="1" fill-rule="nonzero"/><path fill="#9a575b" d="M 69.773438 53.464844 L 70.429688 53.464844 L 70.429688 53.332031 L 69.773438 53.332031 Z M 69.773438 53.464844 " fill-opacity="1" fill-rule="nonzero"/><path fill="#9a9598" d="M 71.605469 53.464844 L 72.265625 53.464844 L 72.265625 53.332031 L 71.605469 53.332031 Z M 71.605469 53.464844 " fill-opacity="1" fill-rule="nonzero"/><path fill="#9a9798" d="M 68.738281 53.792969 L 69.65625 53.792969 L 69.65625 53.664062 L 68.738281 53.664062 Z M 68.738281 53.792969 " fill-opacity="1" fill-rule="nonzero"/><path fill="#9a9798" d="M 68.441406 54.09375 L 68.914062 54.09375 L 68.914062 53.964844 L 68.441406 53.964844 Z M 68.441406 54.09375 " fill-opacity="1" fill-rule="nonzero"/><path fill="#3a3f49" d="M 69.773438 53.792969 L 70.6875 53.792969 L 70.6875 53.664062 L 69.773438 53.664062 Z M 69.773438 53.792969 " fill-opacity="1" fill-rule="nonzero"/><path fill="#9a575b" d="M 70.839844 53.792969 L 71.347656 53.792969 L 71.347656 53.664062 L 70.839844 53.664062 Z M 70.839844 53.792969 " fill-opacity="1" fill-rule="nonzero"/><path fill="#3a3f49" d="M 70.578125 51.457031 L 70.429688 51.457031 L 70.429688 51.441406 L 69.773438 51.441406 L 69.773438 51.457031 L 69.726562 51.457031 L 69.726562 51.324219 L 70.734375 51.324219 L 70.734375 51.441406 L 70.578125 51.441406 L 70.578125 51.457031 " fill-opacity="1" fill-rule="nonzero"/><path fill="#576748" d="M 70.578125 51.457031 L 70.734375 51.457031 L 70.734375 51.441406 L 70.578125 51.441406 Z M 70.578125 51.457031 " fill-opacity="1" fill-rule="nonzero"/><path fill="#56454c" d="M 69.773438 51.457031 L 70.429688 51.457031 L 70.429688 51.441406 L 69.773438 51.441406 Z M 69.773438 51.457031 " fill-opacity="1" fill-rule="nonzero"/><path fill="#999e4c" d="M 71.605469 51.457031 L 71.5 51.457031 L 71.5 51.441406 L 70.890625 51.441406 L 70.890625 51.324219 L 71.898438 51.324219 L 71.898438 51.441406 L 71.605469 51.441406 L 71.605469 51.457031 " fill-opacity="1" fill-rule="nonzero"/><path fill="#bac447" d="M 70.890625 51.457031 L 71.5 51.457031 L 71.5 51.441406 L 70.890625 51.441406 Z M 70.890625 51.457031 " fill-opacity="1" fill-rule="nonzero"/><path fill="#bbc169" d="M 71.605469 51.457031 L 71.898438 51.457031 L 71.898438 51.441406 L 71.605469 51.441406 Z M 71.605469 51.457031 " fill-opacity="1" fill-rule="nonzero"/><path fill="#9a9798" d="M 73.019531 51.457031 L 72.265625 51.457031 L 72.265625 51.441406 L 72.007812 51.441406 L 72.007812 51.324219 L 73.019531 51.324219 L 73.019531 51.457031 " fill-opacity="1" fill-rule="nonzero"/><path fill="#bebbbb" d="M 72.007812 51.457031 L 72.265625 51.457031 L 72.265625 51.441406 L 72.007812 51.441406 Z M 72.007812 51.457031 " fill-opacity="1" fill-rule="nonzero"/><g clip-path="url(#id6)"><path fill="#cbcac7" d="M 25.992188 75.261719 L 5.976562 75.261719 C 5.054688 75.261719 4.308594 74.511719 4.308594 73.589844 L 4.308594 69.460938 L 30.617188 69.460938 L 25.992188 75.261719 M 67.964844 22.617188 L 42.617188 22.617188 L 44.667969 20.832031 L 69.390625 20.832031 L 67.964844 22.617188 " fill-opacity="1" fill-rule="nonzero"/></g><g clip-path="url(#id7)"><path fill="#494e4f" d="M 30.617188 69.460938 L 4.308594 69.460938 L 4.308594 55.953125 L 6.585938 53.96875 L 6.585938 67.230469 L 6.769531 67.230469 L 6.769531 67.394531 L 32.265625 67.394531 L 30.617188 69.460938 M 66.1875 24.847656 L 40.054688 24.847656 L 42.617188 22.617188 L 67.964844 22.617188 L 66.1875 24.847656 " fill-opacity="1" fill-rule="nonzero"/></g><path fill="#d0d0ce" d="M 6.769531 67.230469 L 6.585938 67.230469 L 6.585938 53.96875 L 6.769531 53.808594 L 6.769531 67.230469 M 66.175781 24.863281 L 40.035156 24.863281 L 40.054688 24.847656 L 66.1875 24.847656 L 66.175781 24.863281 " fill-opacity="1" fill-rule="nonzero"/><path fill="#564e53" d="M 32.265625 67.394531 L 8.746094 67.394531 L 8.746094 52.089844 L 13.6875 47.789062 L 16.230469 47.789062 L 16.230469 46.714844 L 14.925781 46.714844 L 17.269531 44.671875 L 20.78125 44.671875 L 20.78125 43.601562 L 18.5 43.601562 L 20.597656 41.773438 L 21.953125 41.773438 L 21.953125 40.699219 L 21.835938 40.699219 L 23.066406 39.628906 L 26.8125 39.628906 L 26.8125 38.554688 L 24.300781 38.554688 L 26.027344 37.050781 L 33.011719 37.050781 L 33.011719 35.976562 L 27.265625 35.976562 L 35.058594 29.195312 L 62.722656 29.195312 L 62.15625 29.902344 L 62.15625 29.542969 L 56.855469 29.542969 L 56.855469 33.921875 L 58.953125 33.921875 L 40.34375 57.261719 L 38.449219 57.261719 L 38.449219 58.335938 L 39.488281 58.335938 L 32.265625 67.394531 M 12.332031 62.464844 L 12.332031 63.539062 L 16.230469 63.539062 L 16.230469 62.464844 L 12.332031 62.464844 M 32.113281 60.003906 L 32.113281 61.074219 L 36.300781 61.074219 L 36.300781 60.003906 L 32.113281 60.003906 M 23.296875 60.003906 L 23.296875 61.074219 L 30.867188 61.074219 L 30.867188 60.003906 L 23.296875 60.003906 M 14.785156 60.003906 L 14.785156 61.074219 L 22.355469 61.074219 L 22.355469 60.003906 L 14.785156 60.003906 M 29.976562 57.261719 L 29.976562 58.335938 L 37.546875 58.335938 L 37.546875 57.261719 L 29.976562 57.261719 M 23.296875 57.261719 L 23.296875 58.335938 L 28.726562 58.335938 L 28.726562 57.261719 L 23.296875 57.261719 M 14.785156 57.261719 L 14.785156 58.335938 L 22.355469 58.335938 L 22.355469 57.261719 L 14.785156 57.261719 M 14.773438 55.222656 L 14.773438 56.296875 L 18.726562 56.296875 L 18.726562 55.222656 L 14.773438 55.222656 M 12.28125 52.941406 L 12.28125 54.011719 L 16.230469 54.011719 L 16.230469 52.941406 L 12.28125 52.941406 M 34.75 43.601562 L 34.75 44.671875 L 40.34375 44.671875 L 40.34375 43.601562 L 34.75 43.601562 M 28.449219 43.601562 L 28.449219 44.671875 L 34.042969 44.671875 L 34.042969 43.601562 L 28.449219 43.601562 M 21.839844 43.601562 L 21.839844 44.671875 L 27.4375 44.671875 L 27.4375 43.601562 L 21.839844 43.601562 M 41.761719 40.699219 L 41.761719 41.773438 L 50.09375 41.773438 L 50.09375 40.699219 L 41.761719 40.699219 M 32.511719 40.699219 L 32.511719 41.773438 L 40.839844 41.773438 L 40.839844 40.699219 L 32.511719 40.699219 M 22.917969 40.699219 L 22.917969 41.773438 L 31.246094 41.773438 L 31.246094 40.699219 L 22.917969 40.699219 M 27.730469 38.554688 L 27.730469 39.628906 L 33.761719 39.628906 L 33.761719 38.554688 L 27.730469 38.554688 M 44.644531 35.976562 L 44.644531 37.050781 L 53.894531 37.050781 L 53.894531 35.976562 L 44.644531 35.976562 M 34.207031 35.976562 L 34.207031 37.050781 L 43.453125 37.050781 L 43.453125 35.976562 L 34.207031 35.976562 " fill-opacity="1" fill-rule="nonzero"/><path fill="#4b4448" d="M 62.722656 29.195312 L 35.058594 29.195312 L 40.035156 24.863281 L 66.175781 24.863281 L 62.722656 29.195312 " fill-opacity="1" fill-rule="nonzero"/><path fill="#4b4448" d="M 8.746094 67.394531 L 6.769531 67.394531 L 6.769531 53.808594 L 8.746094 52.089844 L 8.746094 67.394531 " fill-opacity="1" fill-rule="nonzero"/><path fill="#2e414d" d="M 33.011719 37.050781 L 26.027344 37.050781 L 27.265625 35.976562 L 33.011719 35.976562 L 33.011719 37.050781 " fill-opacity="1" fill-rule="nonzero"/><path fill="#2e414d" d="M 34.207031 37.050781 L 43.453125 37.050781 L 43.453125 35.976562 L 34.207031 35.976562 Z M 34.207031 37.050781 " fill-opacity="1" fill-rule="nonzero"/><path fill="#2e414d" d="M 44.644531 37.050781 L 53.894531 37.050781 L 53.894531 35.976562 L 44.644531 35.976562 Z M 44.644531 37.050781 " fill-opacity="1" fill-rule="nonzero"/><path fill="#e3e3e2" d="M 26.8125 39.628906 L 23.066406 39.628906 L 24.300781 38.554688 L 26.8125 38.554688 L 26.8125 39.628906 " fill-opacity="1" fill-rule="nonzero"/><path fill="#ddeb50" d="M 27.730469 39.628906 L 33.761719 39.628906 L 33.761719 38.554688 L 27.730469 38.554688 Z M 27.730469 39.628906 " fill-opacity="1" fill-rule="nonzero"/><path fill="#e3e3e2" d="M 21.953125 41.773438 L 20.597656 41.773438 L 21.835938 40.699219 L 21.953125 40.699219 L 21.953125 41.773438 " fill-opacity="1" fill-rule="nonzero"/><path fill="#e3e3e2" d="M 20.78125 44.671875 L 17.269531 44.671875 L 18.5 43.601562 L 20.78125 43.601562 L 20.78125 44.671875 " fill-opacity="1" fill-rule="nonzero"/><path fill="#dd696e" d="M 21.839844 44.671875 L 27.4375 44.671875 L 27.4375 43.601562 L 21.839844 43.601562 Z M 21.839844 44.671875 " fill-opacity="1" fill-rule="nonzero"/><path fill="#dd696e" d="M 28.449219 44.671875 L 34.042969 44.671875 L 34.042969 43.601562 L 28.449219 43.601562 Z M 28.449219 44.671875 " fill-opacity="1" fill-rule="nonzero"/><path fill="#e3e3e2" d="M 34.75 44.671875 L 40.34375 44.671875 L 40.34375 43.601562 L 34.75 43.601562 Z M 34.75 44.671875 " fill-opacity="1" fill-rule="nonzero"/><path fill="#9bccd7" d="M 16.230469 47.789062 L 13.6875 47.789062 L 14.925781 46.714844 L 16.230469 46.714844 L 16.230469 47.789062 " fill-opacity="1" fill-rule="nonzero"/><path fill="#e3e3e2" d="M 12.28125 54.011719 L 16.230469 54.011719 L 16.230469 52.941406 L 12.28125 52.941406 Z M 12.28125 54.011719 " fill-opacity="1" fill-rule="nonzero"/><path fill="#ddeb50" d="M 14.773438 56.296875 L 18.726562 56.296875 L 18.726562 55.222656 L 14.773438 55.222656 Z M 14.773438 56.296875 " fill-opacity="1" fill-rule="nonzero"/><path fill="#e3e3e2" d="M 14.785156 58.335938 L 22.355469 58.335938 L 22.355469 57.261719 L 14.785156 57.261719 Z M 14.785156 58.335938 " fill-opacity="1" fill-rule="nonzero"/><path fill="#ddeb50" d="M 29.976562 58.335938 L 37.546875 58.335938 L 37.546875 57.261719 L 29.976562 57.261719 Z M 29.976562 58.335938 " fill-opacity="1" fill-rule="nonzero"/><path fill="#dd696e" d="M 23.296875 58.335938 L 28.726562 58.335938 L 28.726562 57.261719 L 23.296875 57.261719 Z M 23.296875 58.335938 " fill-opacity="1" fill-rule="nonzero"/><path fill="#e3e3e2" d="M 39.488281 58.335938 L 38.449219 58.335938 L 38.449219 57.261719 L 40.34375 57.261719 L 39.488281 58.335938 " fill-opacity="1" fill-rule="nonzero"/><path fill="#e3e3e2" d="M 14.785156 61.074219 L 22.355469 61.074219 L 22.355469 60.003906 L 14.785156 60.003906 Z M 14.785156 61.074219 " fill-opacity="1" fill-rule="nonzero"/><path fill="#e3e3e2" d="M 12.332031 63.539062 L 16.230469 63.539062 L 16.230469 62.464844 L 12.332031 62.464844 Z M 12.332031 63.539062 " fill-opacity="1" fill-rule="nonzero"/><path fill="#2e414d" d="M 23.296875 61.074219 L 30.867188 61.074219 L 30.867188 60.003906 L 23.296875 60.003906 Z M 23.296875 61.074219 " fill-opacity="1" fill-rule="nonzero"/><path fill="#dd696e" d="M 32.113281 61.074219 L 36.300781 61.074219 L 36.300781 60.003906 L 32.113281 60.003906 Z M 32.113281 61.074219 " fill-opacity="1" fill-rule="nonzero"/><path fill="#2e414d" d="M 22.917969 41.773438 L 31.246094 41.773438 L 31.246094 40.699219 L 22.917969 40.699219 Z M 22.917969 41.773438 " fill-opacity="1" fill-rule="nonzero"/><path fill="#ddeb50" d="M 32.511719 41.773438 L 40.839844 41.773438 L 40.839844 40.699219 L 32.511719 40.699219 Z M 32.511719 41.773438 " fill-opacity="1" fill-rule="nonzero"/><path fill="#e3e3e2" d="M 41.761719 41.773438 L 50.09375 41.773438 L 50.09375 40.699219 L 41.761719 40.699219 Z M 41.761719 41.773438 " fill-opacity="1" fill-rule="nonzero"/><path fill="#4b4448" d="M 58.953125 33.921875 L 56.855469 33.921875 L 56.855469 29.542969 L 62.15625 29.542969 L 62.15625 29.902344 L 58.953125 33.921875 " fill-opacity="1" fill-rule="nonzero"/><g clip-path="url(#id8)"><path fill="#cbcac7" d="M 36.902344 75.261719 L 34.140625 75.261719 L 38.703125 69.460938 L 41.535156 69.460938 L 36.902344 75.261719 M 78.152344 22.617188 L 75.554688 22.617188 L 76.910156 20.894531 C 77.609375 21.078125 78.128906 21.703125 78.152344 22.457031 C 78.152344 22.457031 78.152344 22.457031 78.152344 22.460938 C 78.152344 22.464844 78.152344 22.464844 78.152344 22.464844 C 78.152344 22.464844 78.152344 22.464844 78.152344 22.46875 C 78.152344 22.46875 78.152344 22.472656 78.152344 22.472656 C 78.152344 22.472656 78.152344 22.472656 78.152344 22.476562 C 78.152344 22.476562 78.152344 22.476562 78.152344 22.480469 C 78.152344 22.484375 78.152344 22.484375 78.152344 22.484375 C 78.152344 22.484375 78.152344 22.484375 78.152344 22.488281 C 78.152344 22.488281 78.152344 22.492188 78.152344 22.492188 C 78.152344 22.496094 78.152344 22.496094 78.152344 22.496094 C 78.152344 22.496094 78.152344 22.5 78.152344 22.5 C 78.152344 22.5 78.152344 22.503906 78.152344 22.503906 L 78.152344 22.617188 " fill-opacity="1" fill-rule="nonzero"/></g><g clip-path="url(#id9)"><path fill="#494e4f" d="M 41.535156 69.460938 L 38.703125 69.460938 L 40.328125 67.394531 L 43.1875 67.394531 L 41.535156 69.460938 M 76.054688 26.265625 L 76.054688 24.863281 L 75.878906 24.863281 L 75.878906 24.847656 L 73.800781 24.847656 L 75.554688 22.617188 L 78.152344 22.617188 L 78.152344 23.640625 L 76.054688 26.265625 " fill-opacity="1" fill-rule="nonzero"/></g><path fill="#d0d0ce" d="M 75.878906 24.863281 L 73.785156 24.863281 L 73.800781 24.847656 L 75.878906 24.847656 L 75.878906 24.863281 " fill-opacity="1" fill-rule="nonzero"/><path fill="#564e53" d="M 43.1875 67.394531 L 40.328125 67.394531 L 66.28125 34.402344 L 66.28125 38.496094 L 43.1875 67.394531 " fill-opacity="1" fill-rule="nonzero"/><path fill="#4b4448" d="M 73.714844 29.195312 L 70.378906 29.195312 L 71.855469 27.316406 C 72.027344 27.628906 72.355469 27.84375 72.738281 27.84375 C 73.292969 27.84375 73.742188 27.394531 73.742188 26.835938 C 73.742188 26.371094 73.425781 25.980469 73 25.863281 L 73.785156 24.863281 L 76.054688 24.863281 L 76.054688 26.265625 L 73.714844 29.195312 " fill-opacity="1" fill-rule="nonzero"/><path fill="#dd696e" d="M 72.738281 27.84375 C 72.355469 27.84375 72.027344 27.628906 71.855469 27.316406 L 73 25.863281 C 73.425781 25.980469 73.742188 26.371094 73.742188 26.835938 C 73.742188 27.394531 73.292969 27.84375 72.738281 27.84375 " fill-opacity="1" fill-rule="nonzero"/><path fill="#63595f" d="M 66.28125 38.496094 L 66.28125 34.402344 L 68.789062 31.214844 L 68.789062 31.324219 L 69.382812 31.324219 L 69.382812 31.195312 L 68.804688 31.195312 L 68.949219 31.011719 L 69.699219 31.011719 L 69.699219 30.882812 L 69.050781 30.882812 L 69.226562 30.660156 L 70.007812 30.660156 L 70.007812 30.53125 L 69.328125 30.53125 L 70.378906 29.195312 L 73.714844 29.195312 L 72.363281 30.882812 L 72.359375 30.882812 L 72.359375 30.890625 L 71.898438 31.46875 L 71.898438 31.453125 L 70.890625 31.453125 L 70.890625 31.585938 L 71.804688 31.585938 L 71.625 31.808594 L 71.160156 31.808594 L 71.160156 31.9375 L 71.523438 31.9375 L 70.304688 33.460938 L 69.773438 33.460938 L 69.773438 33.59375 L 70.199219 33.59375 L 70.039062 33.792969 L 69.773438 33.792969 L 69.773438 33.921875 L 69.9375 33.921875 L 68.566406 35.636719 L 68.164062 35.636719 L 68.164062 35.769531 L 68.460938 35.769531 L 66.28125 38.496094 M 68.441406 34.09375 L 68.441406 34.222656 L 68.914062 34.222656 L 68.914062 34.09375 L 68.441406 34.09375 M 68.738281 33.792969 L 68.738281 33.921875 L 69.65625 33.921875 L 69.65625 33.792969 L 68.738281 33.792969 M 68.738281 33.460938 L 68.738281 33.59375 L 69.65625 33.59375 L 69.65625 33.460938 L 68.738281 33.460938 M 68.738281 33.214844 L 68.738281 33.34375 L 69.21875 33.34375 L 69.21875 33.214844 L 68.738281 33.214844 M 68.4375 32.9375 L 68.4375 33.066406 L 68.914062 33.066406 L 68.914062 32.9375 L 68.4375 32.9375 M 68.4375 32.183594 L 68.4375 32.3125 L 68.914062 32.3125 L 68.914062 32.183594 L 68.4375 32.183594 M 70.394531 31.808594 L 70.394531 31.9375 L 71.074219 31.9375 L 71.074219 31.808594 L 70.394531 31.808594 M 69.59375 31.808594 L 69.59375 31.9375 L 70.273438 31.9375 L 70.273438 31.808594 L 69.59375 31.808594 M 68.789062 31.808594 L 68.789062 31.9375 L 69.464844 31.9375 L 69.464844 31.808594 L 68.789062 31.808594 M 69.726562 31.453125 L 69.726562 31.585938 L 70.734375 31.585938 L 70.734375 31.453125 L 69.726562 31.453125 M 68.789062 31.453125 L 68.789062 31.585938 L 69.609375 31.585938 L 69.609375 31.453125 L 68.789062 31.453125 M 70.308594 31.195312 L 70.308594 31.324219 L 71.039062 31.324219 L 71.039062 31.195312 L 70.308594 31.195312 M 69.464844 31.195312 L 69.464844 31.324219 L 70.199219 31.324219 L 70.199219 31.195312 L 69.464844 31.195312 M 71.09375 30.882812 L 71.09375 31.011719 L 72.214844 31.011719 L 72.214844 30.882812 L 71.09375 30.882812 M 69.828125 30.882812 L 69.828125 31.011719 L 70.949219 31.011719 L 70.949219 30.882812 L 69.828125 30.882812 " fill-opacity="1" fill-rule="nonzero"/><path fill="#e3e3e2" d="M 70.007812 30.660156 L 69.226562 30.660156 L 69.328125 30.53125 L 70.007812 30.53125 L 70.007812 30.660156 " fill-opacity="1" fill-rule="nonzero"/><path fill="#e3e3e2" d="M 69.699219 31.011719 L 68.949219 31.011719 L 69.050781 30.882812 L 69.699219 30.882812 L 69.699219 31.011719 " fill-opacity="1" fill-rule="nonzero"/><path fill="#2e414d" d="M 69.828125 31.011719 L 70.949219 31.011719 L 70.949219 30.882812 L 69.828125 30.882812 Z M 69.828125 31.011719 " fill-opacity="1" fill-rule="nonzero"/><path fill="#2e414d" d="M 71.09375 31.011719 L 72.214844 31.011719 L 72.214844 30.882812 L 71.09375 30.882812 Z M 71.09375 31.011719 " fill-opacity="1" fill-rule="nonzero"/><path fill="#2e414d" d="M 72.359375 30.890625 L 72.359375 30.882812 L 72.363281 30.882812 L 72.359375 30.890625 " fill-opacity="1" fill-rule="nonzero"/><path fill="#2e414d" d="M 69.382812 31.324219 L 68.789062 31.324219 L 68.789062 31.214844 L 68.804688 31.195312 L 69.382812 31.195312 L 69.382812 31.324219 " fill-opacity="1" fill-rule="nonzero"/><path fill="#e3e3e2" d="M 69.464844 31.324219 L 70.199219 31.324219 L 70.199219 31.195312 L 69.464844 31.195312 Z M 69.464844 31.324219 " fill-opacity="1" fill-rule="nonzero"/><path fill="#ddeb50" d="M 70.308594 31.324219 L 71.039062 31.324219 L 71.039062 31.195312 L 70.308594 31.195312 Z M 70.308594 31.324219 " fill-opacity="1" fill-rule="nonzero"/><path fill="#e3e3e2" d="M 68.789062 31.585938 L 69.609375 31.585938 L 69.609375 31.453125 L 68.789062 31.453125 Z M 68.789062 31.585938 " fill-opacity="1" fill-rule="nonzero"/><path fill="#e3e3e2" d="M 68.789062 31.9375 L 69.464844 31.9375 L 69.464844 31.808594 L 68.789062 31.808594 Z M 68.789062 31.9375 " fill-opacity="1" fill-rule="nonzero"/><path fill="#dd696e" d="M 69.59375 31.9375 L 70.273438 31.9375 L 70.273438 31.808594 L 69.59375 31.808594 Z M 69.59375 31.9375 " fill-opacity="1" fill-rule="nonzero"/><path fill="#dd696e" d="M 70.394531 31.9375 L 71.074219 31.9375 L 71.074219 31.808594 L 70.394531 31.808594 Z M 70.394531 31.9375 " fill-opacity="1" fill-rule="nonzero"/><path fill="#e3e3e2" d="M 71.523438 31.9375 L 71.160156 31.9375 L 71.160156 31.808594 L 71.625 31.808594 L 71.523438 31.9375 " fill-opacity="1" fill-rule="nonzero"/><path fill="#9bccd7" d="M 68.4375 32.3125 L 68.914062 32.3125 L 68.914062 32.183594 L 68.4375 32.183594 Z M 68.4375 32.3125 " fill-opacity="1" fill-rule="nonzero"/><path fill="#e3e3e2" d="M 68.4375 33.066406 L 68.914062 33.066406 L 68.914062 32.9375 L 68.4375 32.9375 Z M 68.4375 33.066406 " fill-opacity="1" fill-rule="nonzero"/><path fill="#ddeb50" d="M 68.738281 33.34375 L 69.21875 33.34375 L 69.21875 33.214844 L 68.738281 33.214844 Z M 68.738281 33.34375 " fill-opacity="1" fill-rule="nonzero"/><path fill="#e3e3e2" d="M 68.738281 33.59375 L 69.65625 33.59375 L 69.65625 33.460938 L 68.738281 33.460938 Z M 68.738281 33.59375 " fill-opacity="1" fill-rule="nonzero"/><path fill="#dd696e" d="M 70.199219 33.59375 L 69.773438 33.59375 L 69.773438 33.460938 L 70.304688 33.460938 L 70.199219 33.59375 " fill-opacity="1" fill-rule="nonzero"/><path fill="#e3e3e2" d="M 68.738281 33.921875 L 69.65625 33.921875 L 69.65625 33.792969 L 68.738281 33.792969 Z M 68.738281 33.921875 " fill-opacity="1" fill-rule="nonzero"/><path fill="#e3e3e2" d="M 68.441406 34.222656 L 68.914062 34.222656 L 68.914062 34.09375 L 68.441406 34.09375 Z M 68.441406 34.222656 " fill-opacity="1" fill-rule="nonzero"/><path fill="#2e414d" d="M 69.9375 33.921875 L 69.773438 33.921875 L 69.773438 33.792969 L 70.039062 33.792969 L 69.9375 33.921875 " fill-opacity="1" fill-rule="nonzero"/><path fill="#2e414d" d="M 69.726562 31.585938 L 70.734375 31.585938 L 70.734375 31.453125 L 69.726562 31.453125 Z M 69.726562 31.585938 " fill-opacity="1" fill-rule="nonzero"/><path fill="#ddeb50" d="M 71.804688 31.585938 L 70.890625 31.585938 L 70.890625 31.453125 L 71.898438 31.453125 L 71.898438 31.46875 L 71.804688 31.585938 " fill-opacity="1" fill-rule="nonzero"/><path fill="#a19c9f" d="M 68.460938 35.769531 L 68.164062 35.769531 L 68.164062 35.636719 L 68.566406 35.636719 L 68.460938 35.769531 " fill-opacity="1" fill-rule="nonzero"/><g fill="#ffffff" fill-opacity="1"><g transform="translate(84.39357, 65.02075)"><g><path d="M 10.828125 -18.328125 C 12.328125 -18.328125 13.601562 -17.945312 14.65625 -17.1875 C 15.71875 -16.4375 16.519531 -15.375 17.0625 -14 C 17.601562 -12.625 17.875 -11.019531 17.875 -9.1875 L 17.875 -8.828125 C 17.875 -7.066406 17.597656 -5.492188 17.046875 -4.109375 C 16.503906 -2.722656 15.707031 -1.632812 14.65625 -0.84375 C 13.601562 -0.0625 12.34375 0.328125 10.875 0.328125 C 8.945312 0.328125 7.382812 -0.316406 6.1875 -1.609375 L 6.1875 6.921875 L 2.046875 6.921875 L 2.046875 -18 L 5.859375 -18 L 6.015625 -16.1875 C 7.203125 -17.613281 8.804688 -18.328125 10.828125 -18.328125 Z M 13.734375 -9.1875 C 13.734375 -10.894531 13.394531 -12.28125 12.71875 -13.34375 C 12.050781 -14.414062 11.039062 -14.953125 9.6875 -14.953125 C 8.0625 -14.953125 6.894531 -14.28125 6.1875 -12.9375 L 6.1875 -5.0625 C 6.894531 -3.6875 8.070312 -3 9.71875 -3 C 11.070312 -3 12.078125 -3.539062 12.734375 -4.625 C 13.398438 -5.707031 13.734375 -7.109375 13.734375 -8.828125 Z M 13.734375 -9.1875 "/></g></g></g><g fill="#ffffff" fill-opacity="1"><g transform="translate(103.566519, 65.02075)"><g><path d="M 16.296875 -4.1875 C 16.296875 -2.550781 16.523438 -1.25 16.984375 -0.28125 L 16.984375 0 L 12.75 0 C 12.5625 -0.40625 12.414062 -0.96875 12.3125 -1.6875 C 11.726562 -1.070312 11.039062 -0.582031 10.25 -0.21875 C 9.457031 0.144531 8.566406 0.328125 7.578125 0.328125 C 6.410156 0.328125 5.359375 0.0976562 4.421875 -0.359375 C 3.492188 -0.828125 2.769531 -1.472656 2.25 -2.296875 C 1.726562 -3.117188 1.46875 -4.039062 1.46875 -5.0625 C 1.46875 -6.976562 2.175781 -8.445312 3.59375 -9.46875 C 5.019531 -10.488281 7.039062 -11 9.65625 -11 L 12.15625 -11 L 12.15625 -12.15625 C 12.15625 -13.113281 11.894531 -13.859375 11.375 -14.390625 C 10.851562 -14.929688 10.082031 -15.203125 9.0625 -15.203125 C 8.457031 -15.203125 7.921875 -15.09375 7.453125 -14.875 C 6.984375 -14.664062 6.617188 -14.378906 6.359375 -14.015625 C 6.109375 -13.648438 5.984375 -13.242188 5.984375 -12.796875 L 1.84375 -12.796875 C 1.84375 -13.753906 2.148438 -14.65625 2.765625 -15.5 C 3.378906 -16.351562 4.253906 -17.035156 5.390625 -17.546875 C 6.535156 -18.066406 7.835938 -18.328125 9.296875 -18.328125 C 10.671875 -18.328125 11.882812 -18.09375 12.9375 -17.625 C 13.988281 -17.164062 14.8125 -16.46875 15.40625 -15.53125 C 16 -14.601562 16.296875 -13.46875 16.296875 -12.125 Z M 8.375 -2.984375 C 9.25 -2.984375 10.019531 -3.1875 10.6875 -3.59375 C 11.363281 -4 11.851562 -4.492188 12.15625 -5.078125 L 12.15625 -8.4375 L 10 -8.4375 C 8.550781 -8.4375 7.457031 -8.175781 6.71875 -7.65625 C 5.976562 -7.132812 5.609375 -6.398438 5.609375 -5.453125 C 5.609375 -4.722656 5.847656 -4.128906 6.328125 -3.671875 C 6.816406 -3.210938 7.5 -2.984375 8.375 -2.984375 Z M 8.375 -2.984375 "/></g></g></g><g fill="#ffffff" fill-opacity="1"><g transform="translate(121.974546, 65.02075)"><g><path d="M 9.0625 -3.09375 C 9.507812 -3.09375 9.984375 -3.148438 10.484375 -3.265625 L 10.484375 -0.0625 C 9.679688 0.195312 8.78125 0.328125 7.78125 0.328125 C 6.320312 0.328125 5.171875 -0.0703125 4.328125 -0.875 C 3.484375 -1.6875 3.0625 -2.976562 3.0625 -4.75 L 3.0625 -14.9375 L 0.140625 -14.9375 L 0.140625 -18 L 3.0625 -18 L 3.0625 -22.390625 L 7.203125 -22.390625 L 7.203125 -18 L 10.359375 -18 L 10.359375 -14.9375 L 7.203125 -14.9375 L 7.203125 -5.046875 C 7.203125 -4.285156 7.359375 -3.769531 7.671875 -3.5 C 7.984375 -3.226562 8.445312 -3.09375 9.0625 -3.09375 Z M 9.0625 -3.09375 "/></g></g></g><g fill="#ffffff" fill-opacity="1"><g transform="translate(133.331985, 65.02075)"><g><path d="M 10.140625 -18.328125 C 10.378906 -18.328125 10.644531 -18.304688 10.9375 -18.265625 C 11.226562 -18.222656 11.445312 -18.171875 11.59375 -18.109375 L 11.5625 -14.203125 C 11.007812 -14.296875 10.457031 -14.34375 9.90625 -14.34375 C 8.976562 -14.34375 8.203125 -14.160156 7.578125 -13.796875 C 6.960938 -13.441406 6.5 -12.9375 6.1875 -12.28125 L 6.1875 0 L 2.046875 0 L 2.046875 -18 L 5.984375 -18 L 6.109375 -15.96875 C 6.554688 -16.71875 7.117188 -17.296875 7.796875 -17.703125 C 8.472656 -18.117188 9.253906 -18.328125 10.140625 -18.328125 Z M 10.140625 -18.328125 "/></g></g></g><g fill="#ffffff" fill-opacity="1"><g transform="translate(145.371196, 65.02075)"><g><path d="M 4.390625 -24.875 C 5.109375 -24.875 5.675781 -24.664062 6.09375 -24.25 C 6.519531 -23.84375 6.734375 -23.316406 6.734375 -22.671875 C 6.734375 -22.035156 6.519531 -21.507812 6.09375 -21.09375 C 5.675781 -20.6875 5.109375 -20.484375 4.390625 -20.484375 C 3.671875 -20.484375 3.097656 -20.6875 2.671875 -21.09375 C 2.253906 -21.5 2.046875 -22.023438 2.046875 -22.671875 C 2.046875 -23.316406 2.253906 -23.84375 2.671875 -24.25 C 3.097656 -24.664062 3.671875 -24.875 4.390625 -24.875 Z M 2.3125 0 L 2.3125 -18 L 6.453125 -18 L 6.453125 0 Z M 2.3125 0 "/></g></g></g><g fill="#ffffff" fill-opacity="1"><g transform="translate(154.117916, 65.02075)"><g><path d="M 16.859375 -5.984375 C 16.828125 -4.835938 16.476562 -3.78125 15.8125 -2.8125 C 15.144531 -1.84375 14.257812 -1.078125 13.15625 -0.515625 C 12.050781 0.046875 10.835938 0.328125 9.515625 0.328125 C 7.722656 0.328125 6.207031 -0.0664062 4.96875 -0.859375 C 3.738281 -1.660156 2.816406 -2.742188 2.203125 -4.109375 C 1.597656 -5.484375 1.296875 -7.019531 1.296875 -8.71875 L 1.296875 -9.28125 C 1.296875 -10.976562 1.601562 -12.507812 2.21875 -13.875 C 2.832031 -15.25 3.753906 -16.332031 4.984375 -17.125 C 6.210938 -17.925781 7.71875 -18.328125 9.5 -18.328125 C 10.925781 -18.328125 12.191406 -18.039062 13.296875 -17.46875 C 14.398438 -16.894531 15.257812 -16.09375 15.875 -15.0625 C 16.5 -14.03125 16.828125 -12.851562 16.859375 -11.53125 L 12.953125 -11.53125 C 12.921875 -12.164062 12.757812 -12.75 12.46875 -13.28125 C 12.1875 -13.8125 11.785156 -14.226562 11.265625 -14.53125 C 10.753906 -14.84375 10.148438 -15 9.453125 -15 C 7.972656 -15 6.929688 -14.460938 6.328125 -13.390625 C 5.734375 -12.316406 5.4375 -10.945312 5.4375 -9.28125 L 5.4375 -8.71875 C 5.4375 -4.90625 6.78125 -3 9.46875 -3 C 10.09375 -3 10.664062 -3.125 11.1875 -3.375 C 11.707031 -3.632812 12.125 -3.988281 12.4375 -4.4375 C 12.75 -4.894531 12.921875 -5.410156 12.953125 -5.984375 Z M 16.859375 -5.984375 "/></g></g></g><g fill="#ffffff" fill-opacity="1"><g transform="translate(171.943931, 65.02075)"><g><path d="M 8 -7.6875 L 6.1875 -5.84375 L 6.1875 0 L 2.0625 0 L 2.0625 -25.546875 L 6.1875 -25.546875 L 6.1875 -10.890625 L 7.421875 -12.421875 L 12.34375 -18 L 17.328125 -18 L 10.65625 -10.515625 L 18.03125 0 L 13.234375 0 Z M 8 -7.6875 "/></g></g></g><g fill="#ffffff" fill-opacity="1"><g transform="translate(189.769946, 65.02075)"><g><path d="M 2.3125 0 L 2.3125 -25.546875 L 6.453125 -25.546875 L 6.453125 0 Z M 2.3125 0 "/></g></g></g><g fill="#ffffff" fill-opacity="1"><g transform="translate(198.516666, 65.02075)"><g><path d="M 17.265625 -7.703125 L 5.53125 -7.703125 C 5.613281 -6.773438 5.851562 -5.957031 6.25 -5.25 C 6.65625 -4.539062 7.195312 -3.988281 7.875 -3.59375 C 8.550781 -3.195312 9.347656 -3 10.265625 -3 C 12.128906 -3 13.625 -3.726562 14.75 -5.1875 L 16.96875 -3.046875 C 16.3125 -2.078125 15.398438 -1.269531 14.234375 -0.625 C 13.066406 0.0078125 11.660156 0.328125 10.015625 0.328125 C 8.265625 0.328125 6.734375 -0.0507812 5.421875 -0.8125 C 4.109375 -1.570312 3.101562 -2.609375 2.40625 -3.921875 C 1.707031 -5.242188 1.359375 -6.722656 1.359375 -8.359375 L 1.359375 -9.046875 C 1.359375 -10.898438 1.710938 -12.523438 2.421875 -13.921875 C 3.140625 -15.328125 4.117188 -16.410156 5.359375 -17.171875 C 6.597656 -17.941406 7.992188 -18.328125 9.546875 -18.328125 C 11.242188 -18.328125 12.664062 -17.953125 13.8125 -17.203125 C 14.96875 -16.460938 15.832031 -15.425781 16.40625 -14.09375 C 16.976562 -12.757812 17.265625 -11.210938 17.265625 -9.453125 Z M 13.171875 -11.015625 C 13.117188 -12.171875 12.800781 -13.125 12.21875 -13.875 C 11.644531 -14.625 10.75 -15 9.53125 -15 C 8.445312 -15 7.570312 -14.617188 6.90625 -13.859375 C 6.238281 -13.109375 5.8125 -12.050781 5.625 -10.6875 L 13.171875 -10.6875 Z M 13.171875 -11.015625 "/></g></g></g><g fill="#ffffff" fill-opacity="1"><g transform="translate(216.808286, 65.02075)"><g><path d="M 21.6875 -18.328125 C 23.59375 -18.328125 25.050781 -17.789062 26.0625 -16.71875 C 27.070312 -15.65625 27.578125 -13.960938 27.578125 -11.640625 L 27.578125 0 L 23.4375 0 L 23.4375 -11.65625 C 23.4375 -12.882812 23.171875 -13.738281 22.640625 -14.21875 C 22.117188 -14.707031 21.332031 -14.953125 20.28125 -14.953125 C 19.414062 -14.953125 18.691406 -14.722656 18.109375 -14.265625 C 17.535156 -13.804688 17.125 -13.175781 16.875 -12.375 L 16.875 0 L 12.734375 0 L 12.734375 -11.609375 C 12.734375 -12.816406 12.460938 -13.675781 11.921875 -14.1875 C 11.390625 -14.695312 10.601562 -14.953125 9.5625 -14.953125 C 7.976562 -14.953125 6.851562 -14.300781 6.1875 -13 L 6.1875 0 L 2.046875 0 L 2.046875 -18 L 5.9375 -18 L 6.078125 -16.09375 C 6.679688 -16.820312 7.414062 -17.375 8.28125 -17.75 C 9.15625 -18.132812 10.148438 -18.328125 11.265625 -18.328125 C 12.390625 -18.328125 13.375 -18.101562 14.21875 -17.65625 C 15.0625 -17.207031 15.710938 -16.515625 16.171875 -15.578125 C 16.773438 -16.441406 17.539062 -17.113281 18.46875 -17.59375 C 19.40625 -18.082031 20.476562 -18.328125 21.6875 -18.328125 Z M 21.6875 -18.328125 "/></g></g></g><g fill="#ffffff" fill-opacity="1"><g transform="translate(246.424087, 65.02075)"><g><path d="M 21.6875 -18.328125 C 23.59375 -18.328125 25.050781 -17.789062 26.0625 -16.71875 C 27.070312 -15.65625 27.578125 -13.960938 27.578125 -11.640625 L 27.578125 0 L 23.4375 0 L 23.4375 -11.65625 C 23.4375 -12.882812 23.171875 -13.738281 22.640625 -14.21875 C 22.117188 -14.707031 21.332031 -14.953125 20.28125 -14.953125 C 19.414062 -14.953125 18.691406 -14.722656 18.109375 -14.265625 C 17.535156 -13.804688 17.125 -13.175781 16.875 -12.375 L 16.875 0 L 12.734375 0 L 12.734375 -11.609375 C 12.734375 -12.816406 12.460938 -13.675781 11.921875 -14.1875 C 11.390625 -14.695312 10.601562 -14.953125 9.5625 -14.953125 C 7.976562 -14.953125 6.851562 -14.300781 6.1875 -13 L 6.1875 0 L 2.046875 0 L 2.046875 -18 L 5.9375 -18 L 6.078125 -16.09375 C 6.679688 -16.820312 7.414062 -17.375 8.28125 -17.75 C 9.15625 -18.132812 10.148438 -18.328125 11.265625 -18.328125 C 12.390625 -18.328125 13.375 -18.101562 14.21875 -17.65625 C 15.0625 -17.207031 15.710938 -16.515625 16.171875 -15.578125 C 16.773438 -16.441406 17.539062 -17.113281 18.46875 -17.59375 C 19.40625 -18.082031 20.476562 -18.328125 21.6875 -18.328125 Z M 21.6875 -18.328125 "/></g></g></g><g fill="#ffffff" fill-opacity="1"><g transform="translate(276.039888, 65.02075)"><g><path d="M 17.265625 -7.703125 L 5.53125 -7.703125 C 5.613281 -6.773438 5.851562 -5.957031 6.25 -5.25 C 6.65625 -4.539062 7.195312 -3.988281 7.875 -3.59375 C 8.550781 -3.195312 9.347656 -3 10.265625 -3 C 12.128906 -3 13.625 -3.726562 14.75 -5.1875 L 16.96875 -3.046875 C 16.3125 -2.078125 15.398438 -1.269531 14.234375 -0.625 C 13.066406 0.0078125 11.660156 0.328125 10.015625 0.328125 C 8.265625 0.328125 6.734375 -0.0507812 5.421875 -0.8125 C 4.109375 -1.570312 3.101562 -2.609375 2.40625 -3.921875 C 1.707031 -5.242188 1.359375 -6.722656 1.359375 -8.359375 L 1.359375 -9.046875 C 1.359375 -10.898438 1.710938 -12.523438 2.421875 -13.921875 C 3.140625 -15.328125 4.117188 -16.410156 5.359375 -17.171875 C 6.597656 -17.941406 7.992188 -18.328125 9.546875 -18.328125 C 11.242188 -18.328125 12.664062 -17.953125 13.8125 -17.203125 C 14.96875 -16.460938 15.832031 -15.425781 16.40625 -14.09375 C 16.976562 -12.757812 17.265625 -11.210938 17.265625 -9.453125 Z M 13.171875 -11.015625 C 13.117188 -12.171875 12.800781 -13.125 12.21875 -13.875 C 11.644531 -14.625 10.75 -15 9.53125 -15 C 8.445312 -15 7.570312 -14.617188 6.90625 -13.859375 C 6.238281 -13.109375 5.8125 -12.050781 5.625 -10.6875 L 13.171875 -10.6875 Z M 13.171875 -11.015625 "/></g></g></g><g fill="#ffffff" fill-opacity="1"><g transform="translate(294.331508, 65.02075)"><g><path d="M 10.140625 -18.328125 C 10.378906 -18.328125 10.644531 -18.304688 10.9375 -18.265625 C 11.226562 -18.222656 11.445312 -18.171875 11.59375 -18.109375 L 11.5625 -14.203125 C 11.007812 -14.296875 10.457031 -14.34375 9.90625 -14.34375 C 8.976562 -14.34375 8.203125 -14.160156 7.578125 -13.796875 C 6.960938 -13.441406 6.5 -12.9375 6.1875 -12.28125 L 6.1875 0 L 2.046875 0 L 2.046875 -18 L 5.984375 -18 L 6.109375 -15.96875 C 6.554688 -16.71875 7.117188 -17.296875 7.796875 -17.703125 C 8.472656 -18.117188 9.253906 -18.328125 10.140625 -18.328125 Z M 10.140625 -18.328125 "/></g></g></g><g fill="#ffffff" fill-opacity="1"><g transform="translate(306.37072, 65.02075)"><g><path d="M 4.640625 -4.359375 C 5.367188 -4.359375 5.945312 -4.140625 6.375 -3.703125 C 6.8125 -3.273438 7.03125 -2.726562 7.03125 -2.0625 C 7.03125 -1.40625 6.8125 -0.863281 6.375 -0.4375 C 5.945312 -0.0078125 5.367188 0.203125 4.640625 0.203125 C 3.898438 0.203125 3.3125 -0.0078125 2.875 -0.4375 C 2.445312 -0.863281 2.234375 -1.40625 2.234375 -2.0625 C 2.234375 -2.726562 2.445312 -3.273438 2.875 -3.703125 C 3.3125 -4.140625 3.898438 -4.359375 4.640625 -4.359375 Z M 4.640625 -4.359375 "/></g></g></g><g fill="#ffffff" fill-opacity="1"><g transform="translate(315.932243, 65.02075)"><g><path d="M 17.109375 -25.546875 L 17.109375 0 L 13.375 0 L 13.171875 -1.859375 C 11.972656 -0.398438 10.367188 0.328125 8.359375 0.328125 C 6.941406 0.328125 5.695312 -0.0625 4.625 -0.84375 C 3.5625 -1.632812 2.738281 -2.722656 2.15625 -4.109375 C 1.582031 -5.492188 1.296875 -7.054688 1.296875 -8.796875 L 1.296875 -9.140625 C 1.296875 -10.960938 1.582031 -12.566406 2.15625 -13.953125 C 2.726562 -15.335938 3.546875 -16.410156 4.609375 -17.171875 C 5.679688 -17.941406 6.945312 -18.328125 8.40625 -18.328125 C 10.289062 -18.328125 11.8125 -17.671875 12.96875 -16.359375 L 12.96875 -25.546875 Z M 9.40625 -3.0625 C 11.050781 -3.0625 12.238281 -3.78125 12.96875 -5.21875 L 12.96875 -12.84375 C 12.226562 -14.25 11.054688 -14.953125 9.453125 -14.953125 C 8.097656 -14.953125 7.085938 -14.410156 6.421875 -13.328125 C 5.765625 -12.253906 5.4375 -10.859375 5.4375 -9.140625 L 5.4375 -8.796875 C 5.4375 -7.085938 5.757812 -5.703125 6.40625 -4.640625 C 7.0625 -3.585938 8.0625 -3.0625 9.40625 -3.0625 Z M 9.40625 -3.0625 "/></g></g></g><g fill="#ffffff" fill-opacity="1"><g transform="translate(335.171706, 65.02075)"><g><path d="M 17.265625 -7.703125 L 5.53125 -7.703125 C 5.613281 -6.773438 5.851562 -5.957031 6.25 -5.25 C 6.65625 -4.539062 7.195312 -3.988281 7.875 -3.59375 C 8.550781 -3.195312 9.347656 -3 10.265625 -3 C 12.128906 -3 13.625 -3.726562 14.75 -5.1875 L 16.96875 -3.046875 C 16.3125 -2.078125 15.398438 -1.269531 14.234375 -0.625 C 13.066406 0.0078125 11.660156 0.328125 10.015625 0.328125 C 8.265625 0.328125 6.734375 -0.0507812 5.421875 -0.8125 C 4.109375 -1.570312 3.101562 -2.609375 2.40625 -3.921875 C 1.707031 -5.242188 1.359375 -6.722656 1.359375 -8.359375 L 1.359375 -9.046875 C 1.359375 -10.898438 1.710938 -12.523438 2.421875 -13.921875 C 3.140625 -15.328125 4.117188 -16.410156 5.359375 -17.171875 C 6.597656 -17.941406 7.992188 -18.328125 9.546875 -18.328125 C 11.242188 -18.328125 12.664062 -17.953125 13.8125 -17.203125 C 14.96875 -16.460938 15.832031 -15.425781 16.40625 -14.09375 C 16.976562 -12.757812 17.265625 -11.210938 17.265625 -9.453125 Z M 13.171875 -11.015625 C 13.117188 -12.171875 12.800781 -13.125 12.21875 -13.875 C 11.644531 -14.625 10.75 -15 9.53125 -15 C 8.445312 -15 7.570312 -14.617188 6.90625 -13.859375 C 6.238281 -13.109375 5.8125 -12.050781 5.625 -10.6875 L 13.171875 -10.6875 Z M 13.171875 -11.015625 "/></g></g></g><g fill="#ffffff" fill-opacity="1"><g transform="translate(353.463326, 65.02075)"><g><path d="M 16.484375 -18 L 10.265625 0 L 6.625 0 L 0.359375 -18 L 4.65625 -18 L 8.46875 -5.234375 L 12.1875 -18 Z M 16.484375 -18 "/></g></g></g></svg>